<svg width="160" height="160" viewBox="0 0 160 160" fill="none" xmlns="http://www.w3.org/2000/svg">
<path d="M111.68 80.0003C111.68 97.4967 97.4967 111.68 80.0003 111.68C62.5039 111.68 48.3203 97.4967 48.3203 80.0003C48.3203 62.5039 62.5039 48.3203 80.0003 48.3203C97.4967 48.3203 111.68 62.5039 111.68 80.0003Z" fill="#FFB852"/>
<path fill-rule="evenodd" clip-rule="evenodd" d="M113 80C113 98.2254 98.2254 113 80 113C61.7746 113 47 98.2254 47 80C47 61.7746 61.7746 47 80 47C98.2254 47 113 61.7746 113 80ZM80 111.68C97.4964 111.68 111.68 97.4964 111.68 80C111.68 62.5036 97.4964 48.32 80 48.32C62.5036 48.32 48.32 62.5036 48.32 80C48.32 97.4964 62.5036 111.68 80 111.68Z" fill="black"/>
<path d="M68.7329 89.1708C68.737 89.3816 68.7401 89.505 68.4488 89.5083L64.676 89.546L64.7183 92.9679L71.2945 92.8966L71.3561 97.8693L74.6255 97.8305L74.5639 92.8578L76.5962 92.8365L76.656 97.8023L79.7662 97.7687L79.7114 92.7942L82.0505 92.7728C83.608 92.7517 89.169 91.3672 89.095 86.2079C89.1387 84.8117 88.7088 83.4418 87.8753 82.3209C87.0418 81.1999 85.8536 80.3939 84.5039 80.0339C84.5039 80.0339 87.6472 78.0925 87.3052 74.8367C86.9632 71.581 84.4013 70.6967 82.9273 70.2284C81.7821 69.9146 80.6047 69.733 79.4182 69.6873L79.3557 64.4884L76.3675 64.5411L76.4365 69.7091L74.0341 69.7398L73.9871 64.5442L70.9647 64.6059L71.0254 69.798L64.6904 69.8733L64.7183 72.9338L68.1916 72.8927C68.5412 72.8887 68.5432 73.0635 68.5445 73.18L68.7329 89.1708ZM74.0605 72.8226L77.7533 72.7824C78.3873 72.7769 81.4743 73.268 81.4886 75.8865C81.5126 76.6042 81.2787 77.3069 80.8291 77.8669C80.3796 78.427 79.7442 78.8074 79.0382 78.9391C78.7555 79.0126 78.466 79.0567 78.1743 79.0706L74.1028 79.1151L74.0605 72.8226ZM74.2186 82.3717L79.9901 82.3199C80.4078 82.3228 80.8206 82.4108 81.2032 82.5786C81.5858 82.7464 81.9302 82.9904 82.2153 83.2958C82.5004 83.6011 82.7203 83.9614 82.8615 84.3546C83.0027 84.7478 83.0622 85.1656 83.0365 85.5826C83.0636 87.6645 81.2559 88.5985 80.3058 88.8475C80.1668 88.8885 80.023 88.9115 79.8782 88.9158L74.3092 88.9876L74.2186 82.3717Z" fill="#FFE3BD"/>
<path fill-rule="evenodd" clip-rule="evenodd" d="M67.4002 88.1977L63.3386 88.2383L63.4135 94.3011L69.9897 94.2299L70.0513 99.204L75.9606 99.1338L75.9605 99.1289L81.0994 99.0734L81.0447 94.1011L82.0613 94.0918L82.0671 94.0918C83.0759 94.0781 85.0953 93.663 86.8875 92.5328C88.7345 91.3679 90.448 89.3587 90.414 86.218C90.4599 84.5345 89.9386 82.8841 88.9333 81.5323C88.3763 80.7832 87.6887 80.15 86.9098 79.6593C86.9552 79.6075 87.0006 79.5544 87.046 79.4999C87.9202 78.4501 88.8383 76.8067 88.6168 74.6979C88.406 72.6914 87.4841 71.342 86.3588 70.4513C85.2839 69.6006 84.065 69.2042 83.3258 68.9694L83.3005 68.9614L83.275 68.9544C82.4374 68.7249 81.584 68.5606 80.7224 68.4626L80.6585 63.1442L75.2942 63.2389L75.2938 63.1963L69.6283 63.312L69.6888 68.4928L63.3572 68.5681L63.4092 74.2685L67.2355 74.2231L67.4002 88.1977ZM71.0242 69.797L64.6892 69.8724L64.7171 72.9329L68.1904 72.8917C68.54 72.8878 68.542 73.0625 68.5433 73.1791L68.7317 89.1699L68.7317 89.1714C68.7358 89.3813 68.7382 89.504 68.4476 89.5073L64.6748 89.545L64.7171 92.9669L71.2933 92.8957L71.3549 97.8684L74.6242 97.8296L74.5627 92.8569L76.595 92.8355L76.6548 97.8014L79.765 97.7678L79.7102 92.7933L82.0493 92.7719C83.6068 92.7508 89.1678 91.3663 89.0938 86.207C89.1375 84.8108 88.7076 83.4408 87.8741 82.3199C87.3505 81.6158 86.6869 81.0359 85.9312 80.6127C85.484 80.3623 85.0045 80.1668 84.5027 80.0329C84.5027 80.0329 85.0654 79.6854 85.6887 79.0378C86.5386 78.1549 87.5013 76.714 87.304 74.8358C86.962 71.5801 84.4001 70.6957 82.9261 70.2274C81.7809 69.9136 80.6035 69.7321 79.417 69.6863L79.3545 64.4874L76.3663 64.5402L76.4353 69.7082L74.0329 69.7389L73.9859 64.5432L70.9635 64.605L71.0242 69.797ZM81.4874 75.8855C81.473 73.2671 78.3861 72.776 77.7521 72.7815L74.0593 72.8217L74.1016 79.1142L78.1731 79.0697C78.4648 79.0557 78.7543 79.0117 79.037 78.9382C79.743 78.8064 80.3784 78.426 80.8279 77.866C81.2775 77.3059 81.5114 76.6033 81.4874 75.8855ZM78.132 77.75C78.3255 77.7393 78.5174 77.7094 78.705 77.6606L78.7496 77.649L78.7949 77.6406C79.1905 77.5668 79.5466 77.3536 79.7985 77.0397C80.0505 76.7258 80.1816 76.3321 80.1681 75.9298L80.1675 75.9113L80.1674 75.8928C80.1638 75.2297 79.82 74.8247 79.2367 74.5173C78.9363 74.359 78.605 74.2505 78.3083 74.183C78.1624 74.1498 78.0332 74.1284 77.9314 74.1158C77.8806 74.1095 77.8392 74.1057 77.8081 74.1036C77.7802 74.1016 77.7657 74.1014 77.7635 74.1014C77.7632 74.1014 77.7632 74.1014 77.7635 74.1014L75.3881 74.1273L75.4127 77.7798L78.132 77.75ZM83.0353 85.5817C83.061 85.1647 83.0015 84.7468 82.8603 84.3536C82.7191 83.9605 82.4992 83.6002 82.2141 83.2948C81.929 82.9895 81.5846 82.7454 81.202 82.5777C80.8194 82.4099 80.4066 82.3218 79.9889 82.3189L74.2174 82.3708L74.308 88.9859L79.8769 88.9148C80.0218 88.9105 80.1656 88.8876 80.3046 88.8466C81.2547 88.5976 83.0624 87.6636 83.0353 85.5817ZM79.8448 87.5951C79.874 87.5937 79.903 87.5888 79.9311 87.5805L79.9505 87.5748L79.97 87.5697C80.2869 87.4866 80.7668 87.2778 81.1399 86.9325C81.4821 86.616 81.7233 86.2037 81.7154 85.5988L81.7148 85.5496L81.7178 85.5004C81.7325 85.2625 81.6985 85.0241 81.6179 84.7998C81.5374 84.5754 81.412 84.3699 81.2493 84.1957C81.0866 84.0215 80.8901 83.8822 80.6719 83.7865C80.4563 83.692 80.224 83.6418 79.9888 83.639L75.5555 83.6788L75.6098 87.6497L79.8448 87.5951Z" fill="black"/>
<path d="M78.0146 53.9779C83.1652 53.5851 88.3115 54.7299 92.804 57.2595L92.0322 58.5526C87.8067 56.182 82.9699 55.1098 78.129 55.479C73.0686 55.865 68.2514 57.8071 64.3383 61.0389C60.4251 64.2708 57.6077 68.6341 56.2724 73.5305C54.937 78.4268 55.1492 83.6164 56.8799 88.3874C58.6105 93.1584 61.7747 97.2772 65.9387 100.179C70.1026 103.08 75.0622 104.623 80.1373 104.594C85.2124 104.566 90.1544 102.968 94.2855 100.02C98.2373 97.1994 101.262 93.2757 102.985 88.7472L104.406 89.2448C102.58 94.0664 99.3647 98.2443 95.16 101.245C90.7761 104.374 85.5316 106.069 80.1458 106.1C74.76 106.13 69.4968 104.493 65.078 101.414C60.6592 98.3347 57.3012 93.9638 55.4646 88.9008C53.6281 83.8377 53.4029 78.3305 54.8199 73.1344C56.237 67.9383 59.2269 63.3079 63.3796 59.8782C67.5323 56.4485 72.6443 54.3875 78.0146 53.9779Z" fill="black"/>
<path d="M104.972 80.9617H94.7305V78.1619L98.1046 74.74C99.3011 73.5116 100.131 72.5703 100.593 71.9162C101.072 71.2622 101.311 70.5682 101.311 69.8343C101.311 69.0845 101.112 68.5581 100.713 68.255C100.33 67.9519 99.7797 67.8003 99.0618 67.8003C97.9929 67.8003 96.8283 67.896 95.568 68.0875L94.9937 68.1592L94.8262 65.5988C96.3896 65.1202 98.0089 64.8809 99.6839 64.8809C103.034 64.8809 104.709 66.3884 104.709 69.4036C104.709 70.5841 104.454 71.6051 103.943 72.4666C103.433 73.3281 102.508 74.373 101.168 75.6014L98.4157 78.0901H104.972V80.9617Z" fill="#FFDFB6"/>
<path fill-rule="evenodd" clip-rule="evenodd" d="M106.292 82.2814H93.4102V77.6203L97.1587 73.8186C97.1596 73.8177 97.1606 73.8167 97.1615 73.8157C98.3497 72.5957 99.1166 71.7174 99.5153 71.1537L99.5214 71.145L99.5277 71.1364C99.8589 70.6837 99.9909 70.2583 99.9909 69.834C99.9909 69.569 99.9547 69.4178 99.9269 69.3444C99.9177 69.3201 99.9104 69.3064 99.9063 69.2998L99.9035 69.2977L99.8933 69.2896C99.831 69.2403 99.6167 69.12 99.0615 69.12C98.0701 69.12 96.9727 69.2089 95.7659 69.3922L95.7487 69.3948L93.7676 69.6424L93.4405 64.6421L94.4395 64.3363C96.1312 63.8184 97.8808 63.5605 99.6836 63.5605C101.53 63.5605 103.161 63.9729 104.336 65.0301C105.537 66.111 106.029 67.6542 106.029 69.4033C106.029 70.7779 105.73 72.0402 105.079 73.1392C104.469 74.1682 103.431 75.3172 102.059 76.5742L102.053 76.5802L101.843 76.7698H106.292V82.2814ZM98.4154 78.0898L101.167 75.6011C102.507 74.3727 103.433 73.3278 103.943 72.4663C104.454 71.6048 104.709 70.5838 104.709 69.4033C104.709 66.3881 103.034 64.8805 99.6836 64.8805C98.0085 64.8805 96.3893 65.1198 94.8259 65.5984L94.9934 68.1589L95.5677 68.0871C95.8172 68.0493 96.0629 68.0151 96.3048 67.9847C97.2853 67.8616 98.2042 67.8 99.0615 67.8C99.7794 67.8 100.33 67.9515 100.713 68.2547C101.111 68.5578 101.311 69.0842 101.311 69.834C101.311 70.5679 101.072 71.2618 100.593 71.9159C100.13 72.57 99.3008 73.5112 98.1043 74.7396L94.7302 78.1616V80.9614H104.972V78.0898H98.4154Z" fill="black"/>
</svg>
