<svg
    width="40"
    height="40"
    viewBox="0 0 40 40"
    fill="none"
    xmlns="http://www.w3.org/2000/svg"
>
    <g clip-path="url(#clip0_9163_303618)">
        <circle cx="20" cy="20" r="20" fill="#CE6533" />
        <path
            fill-rule="evenodd"
            clip-rule="evenodd"
            d="M8.05368 12.5577C7.93654 12.2308 8.01463 11.8636 8.25356 11.6168L11.5068 8.26162C11.7458 8.01521 12.1022 7.93468 12.4188 8.05511L19.3556 10.6832C19.5261 10.7479 19.6393 10.9152 19.6393 11.1026V12.6689C19.6393 12.7875 19.5938 12.9009 19.5125 12.9848L17.8239 14.7259C17.7046 14.8493 17.5266 14.8896 17.3679 14.829L15.5045 14.1204L13.4569 13.3413C13.2839 13.2752 13.1148 13.4492 13.179 13.628L14.6215 17.6614C14.6799 17.8251 14.6412 18.0087 14.5215 18.1317L13.0203 19.6793C12.8512 19.8536 12.8512 20.1366 13.0203 20.311L14.5294 21.8674C14.6491 21.9908 14.6881 22.1744 14.6294 22.3377L13.1868 26.3708C13.1227 26.5496 13.2914 26.7236 13.4648 26.6575L17.3758 25.1694C17.5344 25.1092 17.7125 25.1494 17.8318 25.2725L19.5121 27.0055C19.5934 27.0893 19.6389 27.2027 19.6389 27.3213V28.8881C19.6389 29.075 19.5261 29.2424 19.3559 29.307L12.4274 31.9433C12.1104 32.0641 11.754 31.9832 11.5151 31.7368L8.26144 28.3812C8.02251 28.1348 7.94442 27.7676 8.06156 27.4403L10.6088 20.3188C10.6801 20.1193 10.6801 19.8998 10.6088 19.7003L8.05368 12.5577Z"
            fill="white"
        />
        <path
            fill-rule="evenodd"
            clip-rule="evenodd"
            d="M31.9464 27.4424C32.0636 27.7693 31.9855 28.1366 31.7466 28.3833L28.4933 31.7389C28.2544 31.9853 27.8983 32.0658 27.5813 31.9454L20.6445 29.3173C20.474 29.2526 20.3608 29.0853 20.3608 28.898V27.3316C20.3608 27.213 20.4063 27.0996 20.4876 27.0157L22.1763 25.2746C22.2955 25.1512 22.4736 25.1109 22.6323 25.1715L24.4957 25.8801L26.5432 26.6592C26.7162 26.7253 26.8849 26.5513 26.8212 26.3725L25.3787 22.3391C25.3203 22.1754 25.359 21.9918 25.4786 21.8688L26.9799 20.3212C27.1489 20.1469 27.1489 19.8639 26.9799 19.6895L25.4707 18.1331C25.3511 18.0097 25.312 17.8261 25.3708 17.6628L26.8133 13.6297C26.8774 13.4509 26.7087 13.2769 26.5353 13.3431L22.6244 14.8311C22.4657 14.8913 22.2877 14.8511 22.1684 14.728L20.488 12.995C20.4067 12.9112 20.3612 12.7978 20.3612 12.6792V11.1124C20.3612 10.9255 20.474 10.7581 20.6442 10.6935L27.5727 8.05723C27.8897 7.93642 28.2458 8.01733 28.4851 8.26374L31.7383 11.6193C31.9776 11.8657 32.0557 12.2329 31.9386 12.5602L29.3913 19.6818C29.3197 19.8812 29.3197 20.1007 29.3913 20.3002L31.9468 27.4439L31.9464 27.4424Z"
            fill="white"
        />
    </g>
    <defs>
        <clipPath id="clip0_9163_303618">
            <rect width="40" height="40" fill="white" />
        </clipPath>
    </defs>
</svg>
