<svg width="48" height="48" viewBox="0 0 48 48" fill="none" xmlns="http://www.w3.org/2000/svg">
    <path
        d="M32.6258 27.2299C38.3223 28.284 42.1969 30.3588 42.1969 32.7467C42.1969 36.2023 34.0933 39 24.0984 39C14.1036 39 6 36.2008 6 32.7467C6 30.3588 9.87608 28.284 15.5711 27.2299C18.046 27.8742 20.9689 28.2447 24.0984 28.2447C27.228 28.2447 30.1509 27.8742 32.6258 27.2314V27.2299ZM30.445 17.1022C35.2833 17.9097 38.6164 19.608 38.6164 21.5755C38.6164 24.3203 32.1161 26.5464 24.0984 26.5464C16.0808 26.5464 9.58048 24.3203 9.58048 21.5755C9.58048 19.6095 12.9136 17.9097 17.7519 17.1022C19.6115 17.5755 21.7803 17.8462 24.0984 17.8462C26.4166 17.8462 28.5854 17.574 30.445 17.1022ZM24.1648 8.75439C30.169 8.75439 35.0375 10.4391 35.0375 12.5185C35.0375 14.5963 30.169 16.281 24.1648 16.281C18.1606 16.281 13.2922 14.5963 13.2922 12.5185C13.2922 10.4391 18.1606 8.75439 24.1648 8.75439Z"
        fill="#0F172A" />
</svg>