<?xml version="1.0" encoding="UTF-8"?>
<svg version="1.1" xmlns="http://www.w3.org/2000/svg" width="1100" height="1100">
<path d="M0 0 C363 0 726 0 1100 0 C1100 363 1100 726 1100 1100 C737 1100 374 1100 0 1100 C0 737 0 374 0 0 Z " fill="#FEFEFE" transform="translate(0,0)"/>
<path d="M0 0 C0 27.72 0 55.44 0 84 C12.87 84 25.74 84 39 84 C54 86 54 86 57 87 C57 59.61 57 32.22 57 4 C67.14580572 5.12731175 67.14580572 5.12731175 71.86328125 6.3828125 C73.42767944 6.79829346 73.42767944 6.79829346 75.02368164 7.22216797 C76.1089917 7.52010254 77.19430176 7.81803711 78.3125 8.125 C79.44228271 8.43195801 80.57206543 8.73891602 81.73608398 9.05517578 C109.84082954 16.84082954 109.84082954 16.84082954 113 20 C113.12502642 22.55499309 113.18604177 25.08430642 113.20532227 27.64086914 C113.21522186 28.44080795 113.22512146 29.24074677 113.23532104 30.06492615 C113.26702918 32.72163892 113.29173008 35.3783696 113.31640625 38.03515625 C113.33696775 39.87219215 113.357964 41.70922324 113.37937927 43.54624939 C113.43468304 48.39104318 113.48405555 53.23588025 113.53222656 58.08074951 C113.58238111 63.02066925 113.63809866 67.96052583 113.69335938 72.90039062 C113.80104246 82.60020651 113.90246473 92.30007714 114 102 C114.71168335 102.24383423 115.4233667 102.48766846 116.15661621 102.7388916 C142.0733321 111.6305169 142.0733321 111.6305169 154.5 116.5 C155.60601563 116.92796875 156.71203125 117.3559375 157.8515625 117.796875 C165.64354396 120.82177198 165.64354396 120.82177198 168 122 C168 95.27 168 68.54 168 41 C175.3958027 42.47916054 182.59632372 44.09547589 189.875 46 C190.89335938 46.26039063 191.91171875 46.52078125 192.9609375 46.7890625 C193.940625 47.04429687 194.9203125 47.29953125 195.9296875 47.5625 C196.80866699 47.79066406 197.68764648 48.01882813 198.59326172 48.25390625 C201 49 201 49 205 51 C205 37.8 205 24.6 205 11 C209.86357792 11.69479685 214.41830494 12.48397905 219.17578125 13.59375 C219.82701462 13.74533569 220.47824799 13.89692139 221.1492157 14.05310059 C222.51168392 14.371017 223.87380838 14.69041001 225.2355957 15.01123047 C227.3234238 15.50257076 229.41258378 15.98791669 231.50195312 16.47265625 C232.83081196 16.78350042 234.15959099 17.09468605 235.48828125 17.40625 C236.69009033 17.68791016 237.89189941 17.96957031 239.13012695 18.25976562 C242 19 242 19 244 20 C244.33 33.2 244.66 46.4 245 60 C251.1565625 61.2065625 251.1565625 61.2065625 257.4375 62.4375 C259.35067017 62.81539673 259.35067017 62.81539673 261.30249023 63.20092773 C262.33575439 63.40145752 263.36901855 63.6019873 264.43359375 63.80859375 C265.47572021 64.01282959 266.51784668 64.21706543 267.59155273 64.42749023 C271.70318552 65.1181126 275.85626957 65.53958551 280 66 C280 53.13 280 40.26 280 27 C292.54 28.32 305.08 29.64 318 31 C318 44.2 318 57.4 318 71 C323.28 71.33 328.56 71.66 334 72 C337.9266032 72.63462808 341.70201378 73.30331414 345.5625 74.1875 C346.54065674 74.40744629 347.51881348 74.62739258 348.52661133 74.85400391 C366.91387327 79.17418548 386.08315405 87.13889609 396.8125 103.4375 C407.90960279 122.08679774 409.27857468 145.49722562 404.09375 166.4765625 C397.91743799 186.37311047 388.80931271 202.25592655 374 217 C374.88300781 217.27972656 375.76601563 217.55945313 376.67578125 217.84765625 C394.33519139 223.74677177 404.81242693 232.55690821 413.56640625 248.9296875 C423.10041148 269.34856518 419.73832262 297.65274158 412.52734375 318.3046875 C402.87707558 344.32814623 384.84816919 364.60085427 359.70703125 376.31640625 C358.47157501 376.87809018 357.23592017 377.43933763 356 378 C355.11699219 378.42152344 354.23398437 378.84304688 353.32421875 379.27734375 C345.89637286 382.58554402 337.96153265 383.65739997 330 385 C328.74123047 385.28810547 328.74123047 385.28810547 327.45703125 385.58203125 C325 386 325 386 318 386 C318 399.2 318 412.4 318 426 C313.771875 426.020625 309.54375 426.04125 305.1875 426.0625 C303.2233313 426.07615601 303.2233313 426.07615601 301.21948242 426.09008789 C300.15060791 426.09258545 299.0817334 426.09508301 297.98046875 426.09765625 C296.90692139 426.10289307 295.83337402 426.10812988 294.72729492 426.11352539 C289.80646635 425.96364753 284.90289232 425.44571748 280 425 C280 411.8 280 398.6 280 385 C271.89429003 384.42480599 271.89429003 384.42480599 263.78759766 383.86376953 C262.75683105 383.78755371 261.72606445 383.71133789 260.6640625 383.6328125 C259.10872803 383.52283936 259.10872803 383.52283936 257.52197266 383.41064453 C252.97438847 382.88041879 248.48948143 381.89789629 244 381 C244 394.2 244 407.4 244 421 C234.41649345 419.80206168 224.98056378 418.58781414 215.5 416.875 C212.035 416.25625 208.57 415.6375 205 415 C205 401.47 205 387.94 205 374 C200.71 373.34 196.42 372.68 192 372 C170.60804154 368.22412282 150.26154848 361.97124251 129.66885376 355.16860962 C124.13518947 353.34454511 118.58706945 351.67612083 113 350 C113 322.61 113 295.22 113 267 C110.03 266.34 107.06 265.68 104 265 C101.20175531 264.22534469 98.41277222 263.43481314 95.625 262.625 C89.10563491 260.77590607 82.56719893 259.15382789 75.9375 257.75 C74.79692139 257.50564209 74.79692139 257.50564209 73.63330078 257.25634766 C68.39440202 256.17737989 63.36244077 255.59582675 58 255 C58 282.06 58 309.12 58 337 C38.86 337 19.72 337 0 337 C0 309.61 0 282.22 0 254 C-30.15826434 257.52353548 -30.15826434 257.52353548 -58 266 C-58 237.62 -58 209.24 -58 180 C-37.91475592 171.6311483 -21.99411692 170.09970585 0 169 C0 141.28 0 113.56 0 85 C-28.42769501 87.41318783 -28.42769501 87.41318783 -55 95 C-55.99 95 -56.98 95 -58 95 C-58 66.95 -58 38.9 -58 10 C-48.28190333 5.14095167 -39.57896062 2.9531597 -28.9375 1.3125 C-28.13030518 1.18093506 -27.32311035 1.04937012 -26.49145508 0.91381836 C-17.49209459 -0.37925817 -9.37805059 0 0 0 Z " fill="#E36E1B" transform="translate(370,337)"/>
<path d="M0 0 C0 27.72 0 55.44 0 84 C12.87 84 25.74 84 39 84 C54 86 54 86 57 87 C57 59.61 57 32.22 57 4 C67.14580572 5.12731175 67.14580572 5.12731175 71.86328125 6.3828125 C73.42767944 6.79829346 73.42767944 6.79829346 75.02368164 7.22216797 C76.1089917 7.52010254 77.19430176 7.81803711 78.3125 8.125 C79.44228271 8.43195801 80.57206543 8.73891602 81.73608398 9.05517578 C109.84082954 16.84082954 109.84082954 16.84082954 113 20 C113.09506052 22.55589888 113.12556761 25.08467972 113.11352539 27.64086914 C113.11367142 28.44080795 113.11381744 29.24074677 113.1139679 30.06492615 C113.11326855 32.72169665 113.10547518 35.37839793 113.09765625 38.03515625 C113.09579215 39.87218691 113.09436821 41.70921806 113.09336853 43.54624939 C113.08954275 48.39109662 113.07971196 53.23591408 113.06866455 58.08074951 C113.05845172 63.02062578 113.05387119 67.96050685 113.04882812 72.90039062 C113.03808974 82.60027353 113.0210126 92.30013429 113 102 C107.74768711 100.86818567 102.54772816 99.65604185 97.375 98.1953125 C96.17230469 97.85886719 94.96960938 97.52242188 93.73046875 97.17578125 C91.27448109 96.48398996 88.81874496 95.79130497 86.36328125 95.09765625 C76.94216276 92.46454874 67.54630859 90.24619026 58 88 C58 115.39 58 142.78 58 171 C63.28 171.66 68.56 172.32 74 173 C77.36843776 173.70227122 80.6273183 174.42347775 83.9375 175.3125 C84.76233887 175.52688721 85.58717773 175.74127441 86.43701172 175.9621582 C88.96246587 176.62602639 91.4818708 177.30890305 94 178 C94.82935059 178.22655273 95.65870117 178.45310547 96.51318359 178.68652344 C98.88738835 179.34150888 101.2570765 180.01018683 103.625 180.6875 C104.34163818 180.88964111 105.05827637 181.09178223 105.79663086 181.30004883 C110.76213868 182.76213868 110.76213868 182.76213868 113 185 C113.18791915 187.62025721 113.25185785 190.13391315 113.22705078 192.75439453 C113.22734283 193.55447937 113.22763489 194.35456421 113.22793579 195.17889404 C113.22653956 197.83030953 113.2109647 200.48144594 113.1953125 203.1328125 C113.19158341 204.96841274 113.18873595 206.80401498 113.18673706 208.63961792 C113.1790924 213.47627232 113.1594368 218.31280703 113.1373291 223.14941406 C113.11688857 228.08266582 113.10773919 233.01593687 113.09765625 237.94921875 C113.07619167 247.63286515 113.04204572 257.31642263 113 267 C111.58612218 266.69198279 110.17262184 266.38223255 108.75927734 266.07177734 C107.9720932 265.89947601 107.18490906 265.72717468 106.37387085 265.5496521 C102.75077333 264.71075088 99.1952453 263.66211183 95.625 262.625 C89.10563491 260.77590607 82.56719893 259.15382789 75.9375 257.75 C74.79692139 257.50564209 74.79692139 257.50564209 73.63330078 257.25634766 C68.39440202 256.17737989 63.36244077 255.59582675 58 255 C58 282.06 58 309.12 58 337 C38.86 337 19.72 337 0 337 C0 309.61 0 282.22 0 254 C-30.15826434 257.52353548 -30.15826434 257.52353548 -58 266 C-58 237.62 -58 209.24 -58 180 C-37.91475592 171.6311483 -21.99411692 170.09970585 0 169 C0 141.28 0 113.56 0 85 C-28.42769501 87.41318783 -28.42769501 87.41318783 -55 95 C-55.99 95 -56.98 95 -58 95 C-58 66.95 -58 38.9 -58 10 C-48.28190333 5.14095167 -39.57896062 2.9531597 -28.9375 1.3125 C-28.13030518 1.18093506 -27.32311035 1.04937012 -26.49145508 0.91381836 C-17.49209459 -0.37925817 -9.37805059 0 0 0 Z " fill="#E3701E" transform="translate(370,337)"/>
<path d="M0 0 C0 27.72 0 55.44 0 84 C12.87 84 25.74 84 39 84 C54 86 54 86 57 87 C57 114.39 57 141.78 57 170 C48.585 169.505 48.585 169.505 40 169 C26.8 169 13.6 169 0 169 C0 141.28 0 113.56 0 85 C-28.42769501 87.41318783 -28.42769501 87.41318783 -55 95 C-55.99 95 -56.98 95 -58 95 C-58 66.95 -58 38.9 -58 10 C-48.28190333 5.14095167 -39.57896062 2.9531597 -28.9375 1.3125 C-28.13030518 1.18093506 -27.32311035 1.04937012 -26.49145508 0.91381836 C-17.49209459 -0.37925817 -9.37805059 0 0 0 Z " fill="#E36E1B" transform="translate(370,337)"/>
<path d="M0 0 C0 27.72 0 55.44 0 84 C1.98 83.505 1.98 83.505 4 83 C5.37611934 82.90806567 6.75584313 82.86220312 8.13500977 82.85473633 C8.94007462 82.84835648 9.74513947 82.84197662 10.57460022 82.83540344 C11.43814621 82.83429062 12.3016922 82.8331778 13.19140625 82.83203125 C14.54213478 82.82703865 14.54213478 82.82703865 15.92015076 82.82194519 C17.82737722 82.8168853 19.73461253 82.81453658 21.6418457 82.81469727 C24.52766002 82.81252621 27.41308219 82.79440341 30.29882812 82.77539062 C32.15885287 82.77245324 34.01887942 82.77047076 35.87890625 82.76953125 C36.72828262 82.76234573 37.577659 82.75516022 38.45277405 82.74775696 C45.03382565 82.77223613 50.29232857 83.78042338 57 85 C57 112.39 57 139.78 57 168 C38.19 168 19.38 168 0 168 C0 140.61 0 113.22 0 85 C-30.15826434 88.52353548 -30.15826434 88.52353548 -58 97 C-58 68.62 -58 40.24 -58 11 C-39.04560266 3.10233444 -20.47153969 0 0 0 Z " fill="#E36E1B" transform="translate(370,506)"/>
<path d="M0 0 C10.81274083 1.04991727 21.60180858 2.15750206 32.375 3.5625 C40.44607027 4.58398016 48.43211968 5.24027754 56.5625 5.5 C85.14047833 6.49239721 85.14047833 6.49239721 94.83203125 15.75 C100.81645968 22.97208395 102.68374034 31.61326085 102.41015625 40.84375 C101.32924799 49.16159639 98.28205524 57.0447504 91.8828125 62.640625 C82.45809656 69.44519169 72.70542853 70.3424572 61.375 70.25 C60.18221436 70.24395752 58.98942871 70.23791504 57.76049805 70.23168945 C46.75775122 70.11068344 35.92263454 69.27710804 25 68 C23.92331055 67.87689453 22.84662109 67.75378906 21.73730469 67.62695312 C18.3861287 67.24016795 15.03653735 66.84236693 11.6875 66.4375 C10.63602783 66.31076904 9.58455566 66.18403809 8.5012207 66.0534668 C7.05235474 65.87037964 7.05235474 65.87037964 5.57421875 65.68359375 C4.71401123 65.57587646 3.85380371 65.46815918 2.9675293 65.35717773 C1 65 1 65 0 64 C-0.09405142 62.0056827 -0.11743249 60.00800457 -0.11352539 58.01147461 C-0.11344986 56.73022202 -0.11337433 55.44896942 -0.11329651 54.12889099 C-0.10818909 52.72004152 -0.10297309 51.31119244 -0.09765625 49.90234375 C-0.09579202 48.46887766 -0.09436814 47.03541093 -0.09336853 45.60194397 C-0.08954372 41.82240043 -0.07971377 38.0428951 -0.06866455 34.2633667 C-0.05844963 30.40930702 -0.05387074 26.55524118 -0.04882812 22.70117188 C-0.03809146 15.13409713 -0.02101549 7.56705391 0 0 Z " fill="#FEFDFD" transform="translate(614,588)"/>
<path d="M0 0 C4.93885756 0.6173572 9.78726215 1.26011952 14.68359375 2.0859375 C16.55168701 2.3962793 16.55168701 2.3962793 18.45751953 2.71289062 C19.10674377 2.82093018 19.75596802 2.92896973 20.42486572 3.0402832 C31.14256687 4.8227206 41.81439494 6.37008739 52.625 7.5 C61.39496725 8.46063853 69.13796403 9.74782041 77 14 C77.62390625 14.33386719 78.2478125 14.66773438 78.890625 15.01171875 C84.19609781 18.61568891 87.08869199 25.10243659 89 31 C90.45651182 39.83837855 89.82069477 49.28403589 85 57 C79.72084729 64.07078226 72.59511384 67.57032799 64 69 C50.67991585 69.78196942 37.83017162 68.02124748 24.6875 66.0625 C22.72736325 65.78085716 20.76707703 65.50025258 18.80664062 65.22070312 C15.24739617 64.70790176 11.6883285 64.19424621 8.1315918 63.66430664 C7.42785934 63.5599379 6.72412689 63.45556915 5.99906921 63.34803772 C3.97988843 62.99649858 1.98835925 62.49708981 0 62 C0 41.54 0 21.08 0 0 Z " fill="#FEFDFC" transform="translate(614,463)"/>
<path d="M0 0 C1.1013176 -0.0049926 1.1013176 -0.0049926 2.22488403 -0.01008606 C3.77979917 -0.01513709 5.3347251 -0.01749495 6.88964844 -0.01733398 C9.21568908 -0.01949217 11.54123243 -0.03758759 13.8671875 -0.05664062 C37.75477255 -0.14605123 37.75477255 -0.14605123 44.3828125 3.16796875 C44.3828125 30.22796875 44.3828125 57.28796875 44.3828125 85.16796875 C25.5728125 85.16796875 6.7628125 85.16796875 -12.6171875 85.16796875 C-12.6171875 57.44796875 -12.6171875 29.72796875 -12.6171875 1.16796875 C-8.28211161 0.30095357 -4.3761001 0.00703001 0 0 Z " fill="#FEFDFD" transform="translate(382.6171875,504.83203125)"/>
<path d="M0 0 C5.76058377 0.64006486 10.43860942 1.20804704 15.87890625 2.671875 C17.13123047 3.00703125 18.38355469 3.3421875 19.67382812 3.6875 C20.31521729 3.8628125 20.95660645 4.038125 21.61743164 4.21875 C23.53264326 4.74184533 25.45087936 5.2538262 27.36914062 5.765625 C36.67402184 8.27608861 45.78621452 11.12069204 55 14 C55 41.06 55 68.12 55 96 C43.89168766 93.77833753 43.89168766 93.77833753 38.625 92.1875 C32.71531167 90.46303357 26.78202543 88.87939191 20.8125 87.375 C19.60231201 87.06598755 19.60231201 87.06598755 18.36767578 86.75073242 C12.25465855 85.22340677 6.23349616 84.13336294 0 83 C0 55.61 0 28.22 0 0 Z " fill="#FEFEFE" transform="translate(428,425)"/>
<path d="M0 0 C4.3905372 0.87810744 8.44280088 2.08509659 12.65234375 3.546875 C13.38892715 3.79995422 14.12551056 4.05303345 14.88441467 4.31378174 C17.23648477 5.12286592 19.586969 5.93645685 21.9375 6.75 C23.4823271 7.28152553 25.02724819 7.81277797 26.57226562 8.34375 C28.0990442 8.8695424 29.62573936 9.39557708 31.15234375 9.921875 C32.16880226 10.27218781 32.16880226 10.27218781 33.20579529 10.62957764 C40.15610596 13.03583054 47.07224034 15.52580012 54 18 C54 44.73 54 71.46 54 99 C41.64681591 95.63094979 41.64681591 95.63094979 36.51171875 93.87890625 C34.84290649 93.31429687 34.84290649 93.31429687 33.14038086 92.73828125 C32.00093018 92.35027344 30.86147949 91.96226562 29.6875 91.5625 C21.2743862 88.72282362 12.88357333 85.96860404 4.30859375 83.65625 C2 83 2 83 0 82 C0 54.94 0 27.88 0 0 Z " fill="#FEFEFD" transform="translate(483,522)"/>
</svg>
