<svg
    width="20"
    height="21"
    viewBox="0 0 20 21"
    fill="none"
    xmlns="http://www.w3.org/2000/svg"
>
    <rect y="0.959961" width="20" height="20" rx="10" fill="white" />
    <path
        d="M17.7605 12.8953C16.6919 17.181 12.3507 19.7892 8.06401 18.7204C3.77905 17.652 1.17053 13.311 2.23964 9.02555C3.30775 4.73934 7.64897 2.13087 11.9344 3.19936C16.2209 4.26785 18.8292 8.6093 17.7605 12.8953Z"
        fill="#F7931A"
    />
    <path
        d="M13.5264 9.82033C13.6857 8.75584 12.8751 8.1836 11.7667 7.80185L12.1263 6.35986L11.2484 6.14112L10.8984 7.5451C10.6676 7.4876 10.4306 7.43335 10.195 7.3796L10.5476 5.96637L9.67024 5.74762L9.31045 7.18911C9.11943 7.14561 8.93191 7.10261 8.74989 7.05736L8.75089 7.05286L7.54026 6.75061L7.30674 7.6881C7.30674 7.6881 7.95806 7.83735 7.94431 7.8466C8.29984 7.93535 8.3641 8.17059 8.35335 8.35709L7.94381 9.99983C7.96831 10.0061 8.00006 10.0151 8.03507 10.0291C8.00581 10.0218 7.97456 10.0138 7.94231 10.0061L7.36824 12.3073C7.32474 12.4153 7.21448 12.5773 6.96595 12.5158C6.9747 12.5286 6.32789 12.3566 6.32789 12.3566L5.89209 13.3613L7.03446 13.646C7.24698 13.6993 7.45525 13.755 7.66028 13.8075L7.29699 15.266L8.17383 15.4848L8.53362 14.0418C8.77314 14.1068 9.00567 14.1668 9.23319 14.2233L8.87465 15.6595L9.7525 15.8783L10.1158 14.4225C11.6127 14.7058 12.7383 14.5915 13.2121 13.2378C13.5939 12.1478 13.1931 11.5191 12.4055 11.1091C12.9791 10.9768 13.4111 10.5996 13.5264 9.82033ZM11.5207 12.6326C11.2494 13.7225 9.41396 13.1333 8.8189 12.9855L9.30095 11.0533C9.89601 11.2018 11.8042 11.4958 11.5207 12.6326ZM11.7922 9.80458C11.5447 10.7961 10.017 10.2923 9.52147 10.1688L9.95852 8.41634C10.4541 8.53984 12.05 8.77034 11.7922 9.80458Z"
        fill="white"
    />
</svg>
