<svg width="52" height="52" viewBox="0 0 52 52" fill="none" xmlns="http://www.w3.org/2000/svg">
<path d="M49.0955 26.4965C49.0955 39.4862 38.5653 50.0165 25.5755 50.0165C12.5858 50.0165 2.05554 39.4862 2.05554 26.4965C2.05554 13.5068 12.5858 2.9765 25.5755 2.9765C38.5653 2.9765 49.0955 13.5068 49.0955 26.4965Z" fill="#FFB852"/>
<path d="M32.1878 34.4241L31.4202 34.2023C30.8763 35.7909 30.3596 36.9117 29.8904 37.662C29.4124 38.4265 29.0194 38.7484 28.7501 38.842C28.6274 38.8846 28.532 38.8798 28.4506 38.8517C28.3636 38.8217 28.2632 38.7544 28.1566 38.6269C27.9375 38.365 27.7439 37.91 27.623 37.3019C27.3829 36.0944 27.4635 34.458 27.9873 33.0696C28.5013 31.7072 29.41 30.6529 30.7922 30.3884C33.2143 30.8645 34.9979 31.4251 36.2735 32.0176C37.5668 32.6183 38.3064 33.2372 38.6756 33.8032C39.0327 34.3506 39.0563 34.8653 38.8772 35.3401C38.6905 35.8347 38.2699 36.3174 37.6849 36.7279C36.5045 37.5563 34.8189 37.98 33.6033 37.6878C33.0104 37.5453 32.5556 37.2409 32.2947 36.7555C32.0297 36.2627 31.9287 35.5168 32.1878 34.4241Z" fill="#FFE3BD" stroke="black" stroke-width="0.8"/>
<path d="M18.5786 20.2078L18.4448 19.42C17.3296 19.5542 16.5996 19.3697 16.1396 19.0509C15.6866 18.7369 15.4354 18.2509 15.3606 17.6458C15.2072 16.4055 15.8184 14.7789 16.7748 13.6997C17.2488 13.1649 17.7759 12.8015 18.2885 12.6718C18.7808 12.5474 19.2898 12.6289 19.7936 13.0454C20.3145 13.4761 20.8462 14.2805 21.2974 15.633C21.7424 16.9669 22.0984 18.8019 22.2985 21.2616C21.8798 22.6047 20.7295 23.3884 19.3174 23.7454C17.8784 24.1092 16.2429 24.0048 15.0698 23.6301C14.4791 23.4414 14.0487 23.1978 13.8131 22.9506C13.6984 22.8303 13.6429 22.723 13.6228 22.6332C13.6041 22.5492 13.6101 22.4541 13.6663 22.337C13.7896 22.08 14.1539 21.726 14.9676 21.3373C15.7662 20.9558 16.9384 20.569 18.5786 20.2078Z" fill="#FFE3BD" stroke="black" stroke-width="0.8"/>
<path d="M26.7615 25.5424L26.7616 25.5424C27.9015 26.8186 28.4846 28.397 28.5288 29.983C27.6111 30.5343 26.9821 31.4283 26.5828 32.4124C26.1775 33.4111 25.9967 34.5298 25.9942 35.5552C25.8136 35.704 25.6272 35.8423 25.4362 35.9704L25.2047 36.1188C23.9709 36.8757 22.1519 37.1834 20.7216 37.0909C19.5047 36.9429 18.3237 36.4752 17.3147 35.6958L16.982 35.4388L16.7418 35.7838C16.6341 35.9386 16.4061 36.0861 16.0526 36.2011C15.7099 36.3127 15.3049 36.3759 14.9191 36.4036C14.5986 36.4267 14.305 36.4244 14.0899 36.4096C14.0963 36.3564 14.1037 36.2974 14.1121 36.2338C14.1515 35.9353 14.2127 35.5357 14.2996 35.1267C14.3873 34.7146 14.4981 34.3084 14.6326 33.9896C14.6998 33.8304 14.7679 33.7051 14.834 33.6152C14.9019 33.5228 14.9507 33.4908 14.9713 33.4818L15.3364 33.3215L15.1773 32.9559C14.8037 32.097 14.6132 31.1808 14.6023 30.2641L14.6043 29.9991C14.643 28.5079 15.1577 27.0326 16.1338 25.82L16.2416 25.69C16.3732 25.5344 16.5124 25.3834 16.6593 25.2378C17.7035 25.3701 18.8767 25.3274 19.9514 25.0328C21.0106 24.7424 22.0044 24.198 22.6625 23.3037C24.192 23.5465 25.6498 24.2976 26.7615 25.5424Z" fill="black" stroke="black" stroke-width="0.8"/>
<path d="M26.7615 25.5424L26.7615 25.5425C27.9014 26.8186 28.4845 28.3971 28.5287 29.9831C27.6111 30.5344 26.982 31.4283 26.5827 32.4124C26.1774 33.4111 25.9967 34.5298 25.9942 35.5552C25.9435 35.5969 25.8924 35.6379 25.8409 35.678C24.0022 31.1014 20.9114 27.6438 16.5792 25.3185C16.6056 25.2914 16.6323 25.2645 16.6593 25.2378C17.7034 25.3702 18.8766 25.3274 19.9513 25.0328C21.0106 24.7424 22.0043 24.198 22.6625 23.3038C24.192 23.5465 25.6498 24.2976 26.7615 25.5424ZM15.1773 32.9559C14.9108 32.3434 14.7375 31.7016 14.656 31.0513C15.7729 31.8367 16.7749 32.7264 17.6623 33.7201L17.6624 33.7201C18.5337 34.6956 19.2963 35.773 19.95 36.9529C19.0092 36.7295 18.1087 36.3091 17.3146 35.6958L16.9819 35.4388L16.7418 35.7839C16.6341 35.9386 16.406 36.0861 16.0526 36.2012C15.7099 36.3127 15.3048 36.3759 14.9191 36.4037C14.5878 36.4275 14.2854 36.4243 14.0686 36.4081C14.094 36.0304 14.1645 35.4466 14.2976 34.883C14.384 34.5175 14.4925 34.1789 14.6223 33.9172C14.759 33.6418 14.8858 33.5193 14.9712 33.4818L15.3363 33.3215L15.1773 32.9559ZM14.6216 29.6555C14.7129 28.4404 15.1212 27.2487 15.8385 26.2147C17.9438 27.3167 19.7387 28.6915 21.2275 30.338C22.7612 32.0341 23.9751 34.0244 24.8675 36.313C23.7667 36.9062 22.5455 37.179 21.3353 37.1385C20.5614 35.5948 19.6205 34.2016 18.5124 32.961L18.2591 33.1873L18.5124 32.961C17.3857 31.6996 16.0882 30.5979 14.6216 29.6555Z" fill="#FFB900" stroke="black" stroke-width="0.8"/>
<path d="M31.0888 17.885C31.0881 17.8881 31.0875 17.8912 31.0868 17.8943C31.0832 17.9113 31.0794 17.9283 31.0755 17.9451C31.0474 18.0667 31.0126 18.1831 30.9668 18.2862L30.8807 18.2266M31.0888 17.885L30.6222 18.0726C30.7087 18.122 30.7949 18.1734 30.8807 18.2266M31.0888 17.885C31.0897 17.8855 31.0906 17.8861 31.0915 17.8867L31.1001 17.892L31.1083 17.8977L31.4422 18.1287M31.0888 17.885L31.4486 18.1332M30.8807 18.2266L30.8407 18.2912L30.6699 18.5666C30.6671 18.5648 30.6643 18.5631 30.6615 18.5613L30.6531 18.5556L30.8372 18.2895L30.8807 18.2266ZM34.3584 21.2453C34.5872 21.1914 34.824 21.1593 35.0694 21.1492L35.0695 21.1492C35.6325 21.1261 36.2408 21.2197 36.8979 21.4395L37.1111 21.5108L37.2829 21.3658C37.3869 21.2779 37.5186 21.2369 37.651 21.2441L37.6588 21.2446L37.6593 21.2446C37.7937 21.2544 37.9213 21.3134 38.0144 21.4176L34.3584 21.2453ZM34.3584 21.2453L34.3675 21.2604M34.3584 21.2453L34.3675 21.2604M34.3675 21.2604C34.4283 21.2542 34.4877 21.2497 34.5441 21.2464C34.6631 21.2392 34.7964 21.2357 34.9104 21.2326L34.3675 21.2604ZM31.4486 18.1332C31.5478 17.8813 31.6193 17.6155 31.6627 17.3351L31.6628 17.3349C31.7493 16.7786 31.7249 16.1635 31.5805 15.486L31.5337 15.2662L31.697 15.1119C31.794 15.0203 31.8493 14.8978 31.8591 14.7686V14.7686L31.8597 14.7589C31.8672 14.6218 31.8231 14.4858 31.7282 14.3796L31.7281 14.3795C31.6337 14.2737 31.5038 14.2145 31.3672 14.206L31.3667 14.206L31.3649 14.2059C31.2278 14.1984 31.0916 14.2425 30.9852 14.3374C30.8789 14.4323 30.8199 14.5625 30.812 14.6992L30.8111 14.7143C30.8074 14.8467 30.8518 14.9773 30.9433 15.0798L30.9435 15.0799C30.9899 15.1319 31.0457 15.173 31.1078 15.2026L31.108 15.2027C31.1413 15.2187 31.1767 15.2311 31.2135 15.2399L31.4607 15.2991L31.5121 15.5481C31.6426 16.1806 31.6702 16.774 31.5849 17.3231M31.4486 18.1332L31.4422 18.1287M31.4486 18.1332L31.4422 18.1287M31.5849 17.3231L31.1897 17.2618L31.5849 17.3231C31.5849 17.3231 31.5849 17.3231 31.5849 17.3231ZM31.5849 17.3231C31.578 17.3681 31.5707 17.4184 31.5629 17.4719C31.5439 17.603 31.5221 17.7537 31.4949 17.8948C31.4803 17.97 31.4632 18.0489 31.4422 18.1287M38.1464 21.7908C38.152 21.6558 38.1078 21.5222 38.0144 21.4177L38.1464 21.7908ZM38.1464 21.7908L38.1459 21.7977C38.1378 21.9351 38.0786 22.0654 37.9726 22.16L37.9725 22.1601C37.8662 22.255 37.7301 22.299 37.5929 22.2915L37.585 22.2911L37.5846 22.2911C37.4501 22.2813 37.3229 22.2224 37.2298 22.1182C37.1828 22.0656 37.1482 22.0055 37.1261 21.9411L37.1259 21.9406C37.1139 21.9059 37.1056 21.8697 37.1011 21.8323L37.0704 21.5795L36.8284 21.5003C36.2146 21.2994 35.6282 21.205 35.0728 21.2277L38.1464 21.7908ZM33.9474 22.1833L33.9702 22.1759C35.1155 24.441 34.9764 26.689 33.6876 27.8398C32.7419 28.6837 31.2922 28.8499 29.7294 28.3222C29.4615 26.95 28.832 25.6299 27.8337 24.5121L27.8337 24.512C26.8354 23.3943 25.5943 22.6205 24.261 22.1996C23.9126 20.5877 24.2411 19.1662 25.1865 18.3222C26.4085 17.2315 28.4894 17.2763 30.5182 18.4747L30.6466 18.6136L33.773 21.9947L33.9474 22.1833Z" fill="black" stroke="black" stroke-width="0.8"/>
<path fill-rule="evenodd" clip-rule="evenodd" d="M50.0756 26.5C50.0756 40.031 39.1065 51 25.5756 51C12.0446 51 1.07556 40.031 1.07556 26.5C1.07556 12.969 12.0446 2 25.5756 2C39.1065 2 50.0756 12.969 50.0756 26.5ZM25.5756 50.02C38.5653 50.02 49.0956 39.4897 49.0956 26.5C49.0956 13.5103 38.5653 2.98 25.5756 2.98C12.5858 2.98 2.05556 13.5103 2.05556 26.5C2.05556 39.4897 12.5858 50.02 25.5756 50.02Z" fill="black"/>
<path d="M8.37358 17.3524L8.32572 17.2989L8.29215 17.3623C3.39397 26.6123 6.66104 38.1541 15.8005 43.4308C21.1743 46.5334 27.4088 46.7947 32.7645 44.6811L32.8313 44.6547L32.7834 44.6012L32.2268 43.9799L32.2039 43.9544L32.1719 43.9665C27.1182 45.8717 21.2827 45.5798 16.2405 42.6687C7.59648 37.6781 4.45301 26.8189 8.93716 18.0294L8.95274 17.9989L8.92986 17.9733L8.37358 17.3524ZM42.166 35.0639L42.1501 35.0945L42.1731 35.1202L42.7283 35.7399L42.7759 35.7931L42.8096 35.7302C47.7788 26.4648 44.5205 14.8635 35.3505 9.56922C29.9441 6.44783 23.6665 6.20225 18.2891 8.3577L18.2229 8.38427L18.2705 8.43747L18.8259 9.05751L18.8489 9.08316L18.8811 9.07083C23.9572 7.12465 29.8357 7.4014 34.9105 10.3313C43.5852 15.3396 46.7202 26.2581 42.166 35.0639Z" fill="black" stroke="black" stroke-width="0.1"/>
<path d="M19.694 8.87177C19.694 9.42405 19.2463 9.87177 18.694 9.87177C18.1417 9.87177 17.694 9.42405 17.694 8.87177C17.694 8.31948 18.1417 7.87177 18.694 7.87177C19.2463 7.87177 19.694 8.31948 19.694 8.87177Z" fill="black"/>
<circle cx="8.75647" cy="17.4943" r="1" fill="black"/>
<path d="M33.712 44.1348C33.712 44.6871 33.2643 45.1348 32.712 45.1348C32.1598 45.1348 31.712 44.6871 31.712 44.1348C31.712 43.5825 32.1598 43.1348 32.712 43.1348C33.2643 43.1348 33.712 43.5825 33.712 44.1348Z" fill="black"/>
<path d="M43.3196 35.2675C43.3196 35.8197 42.8719 36.2675 42.3196 36.2675C41.7674 36.2675 41.3196 35.8197 41.3196 35.2675C41.3196 34.7152 41.7674 34.2675 42.3196 34.2675C42.8719 34.2675 43.3196 34.7152 43.3196 35.2675Z" fill="black"/>
</svg>
