<svg width="48" height="48" viewBox="0 0 48 48" fill="none" xmlns="http://www.w3.org/2000/svg">
<g id="Logo_tiny/CAMELOT_light">
<path id="Vector" d="M26.8579 42V27.204C30.349 27.582 32.7179 29.202 32.7179 29.202L34.9443 26.664C31.293 24.036 25.8783 23.928 25.8783 23.928L24.9877 13.992C25.5755 13.596 25.9674 12.93 25.9674 12.156C25.9674 10.95 24.9877 9.96 23.7944 9.96C22.601 9.96 21.6214 10.95 21.6214 12.156C21.6214 12.93 22.0132 13.614 22.601 13.992L21.7104 23.928C21.7104 23.928 16.2958 24.018 12.6444 26.664L14.8709 29.202C14.8709 29.202 17.2398 27.582 20.7308 27.204V42C7.08728 31.776 5.96516 16.926 6.00078 11.994C6.00078 10.968 6.60637 10.032 7.53256 9.618C10.2577 8.394 16.4739 6 23.7766 6C31.0792 6 37.2954 8.394 40.0205 9.618C40.9467 10.032 41.5523 10.968 41.5523 11.994C41.5879 16.926 40.4658 31.776 26.8579 42Z" fill="#FFAF1D"/>
</g>
</svg>
