<svg
    width="48"
    height="48"
    viewBox="0 0 48 48"
    fill="none"
    xmlns="http://www.w3.org/2000/svg"
>
    <path
        d="M1.68918 18.4388L1.68925 18.4386C4.76003 6.1159 17.2409 -1.38336 29.5613 1.68849L29.5614 1.6885C41.8848 4.76037 49.3836 17.2419 46.3113 29.564C43.2391 41.8851 30.7583 49.3838 18.4339 46.3112C6.11493 43.2393 -1.38444 30.7592 1.68918 18.4388Z"
        fill="white"
        stroke="#0052FF"
        stroke-width="2"
    />
    <path
        d="M34.5797 20.5814C35.0575 17.3879 32.6257 15.6712 29.3006 14.526L30.3792 10.2L27.7457 9.54377L26.6956 13.7557C26.0033 13.5832 25.2922 13.4205 24.5856 13.2592L25.6432 9.01952L23.0112 8.36328L21.9318 12.6877C21.3588 12.5572 20.7962 12.4282 20.2502 12.2925L20.2532 12.279L16.6213 11.3723L15.9207 14.1847C15.9207 14.1847 17.8747 14.6325 17.8334 14.6602C18.9 14.9265 19.0928 15.6322 19.0605 16.1917L17.8319 21.1199C17.9054 21.1386 18.0007 21.1657 18.1057 21.2077C18.0179 21.1859 17.9242 21.1619 17.8274 21.1387L16.1052 28.0423C15.9747 28.3663 15.6439 28.8523 14.8983 28.6678C14.9246 28.7061 12.9841 28.1901 12.9841 28.1901L11.6768 31.2043L15.1039 32.0585C15.7414 32.2183 16.3663 32.3855 16.9813 32.543L15.8914 36.9185L18.522 37.5747L19.6013 33.2458C20.3199 33.4408 21.0175 33.6208 21.7001 33.7903L20.6244 38.099L23.258 38.7552L24.3478 34.388C28.8386 35.2378 32.2154 34.895 33.6368 30.8338C34.7822 27.5638 33.5798 25.6776 31.2171 24.4476C32.9378 24.0509 34.2339 22.9191 34.5797 20.5814ZM28.5626 29.0181C27.7487 32.288 22.2424 30.5203 20.4572 30.0771L21.9033 24.2804C23.6885 24.7259 29.4131 25.6079 28.5626 29.0181ZM29.3771 20.5342C28.6346 23.5086 24.0516 21.9974 22.5649 21.6269L23.8761 16.3694C25.3627 16.7399 30.1505 17.4314 29.3771 20.5342Z"
        fill="#0052FF"
    />
</svg>
