<?xml version="1.0" encoding="UTF-8"?>
<svg version="1.1" xmlns="http://www.w3.org/2000/svg" width="401" height="400">
    <path
        d="M0 0 C7.64094874 3.37673655 15.48080303 6.06817791 23.44140625 8.59375 C39.86310135 13.8397587 52.90346905 19.84652393 61.97265625 35.171875 C67.18481345 46.02135025 68.99116622 57.57780078 64.97265625 69.171875 C60.05269463 80.28501514 53.10700265 88.09072486 41.97265625 93.171875 C9.49715823 104.58319631 -27.02474574 100.07260656 -57.58984375 85.421875 C-69.86894351 79.174883 -79.93777524 69.39579629 -85.11328125 56.45703125 C-89.02810212 43.94037922 -87.21397489 32.059894 -82.02734375 20.234375 C-78.54204502 13.6017459 -73.20561318 8.48542578 -68.02734375 3.171875 C-67.11275391 2.12966797 -67.11275391 2.12966797 -66.1796875 1.06640625 C-47.79199223 -19.3995052 -21.1456729 -9.37060964 0 0 Z "
        fill="#2798D9"
        transform="translate(216.02734375,211.828125)"
    />
    <path
        d="M0 0 C0.98629143 -0.00635216 0.98629143 -0.00635216 1.99250793 -0.01283264 C4.10054039 -0.02264251 6.20835521 -0.02276869 8.31640625 -0.01953125 C9.03477661 -0.018927 9.75314697 -0.01832275 10.49328613 -0.0177002 C30.68638274 0.02858576 50.37023317 0.97327923 66.16796875 15.234375 C71.25923585 20.5639973 74.33717428 26.28368255 76.87890625 33.16796875 C77.12511719 33.83441406 77.37132812 34.50085938 77.625 35.1875 C81.31717624 47.28256011 78.84467918 60.73566229 73.25390625 71.79296875 C63.00347555 89.19369989 46.67151853 97.97699144 27.56640625 102.91796875 C8.0747974 107.04255345 -8.64915342 104.54873405 -25.68359375 93.8203125 C-39.09681577 84.72769565 -49.16097741 73.59783781 -53.00390625 57.4609375 C-55.34197929 43.09214686 -52.79109157 31.43693962 -45.12109375 19.16796875 C-36.72604955 8.27005423 -24.18998663 2.83025033 -10.86767578 0.63085938 C-7.20629511 0.17849539 -3.68747603 0.0229834 0 0 Z "
        fill="#2AF4EB"
        transform="translate(190.12109375,82.83203125)"
    />
    <path
        d="M0 0 C0.98629143 -0.00635216 0.98629143 -0.00635216 1.99250793 -0.01283264 C4.10054039 -0.02264251 6.20835521 -0.02276869 8.31640625 -0.01953125 C9.03477661 -0.018927 9.75314697 -0.01832275 10.49328613 -0.0177002 C30.68638274 0.02858576 50.37023317 0.97327923 66.16796875 15.234375 C71.25923585 20.5639973 74.33717428 26.28368255 76.87890625 33.16796875 C77.12511719 33.83441406 77.37132812 34.50085938 77.625 35.1875 C81.31717624 47.28256011 78.84467918 60.73566229 73.25390625 71.79296875 C63.00347555 89.19369989 46.67151853 97.97699144 27.56640625 102.91796875 C8.0747974 107.04255345 -8.64915342 104.54873405 -25.68359375 93.8203125 C-39.09681577 84.72769565 -49.16097741 73.59783781 -53.00390625 57.4609375 C-55.34197929 43.09214686 -52.79109157 31.43693962 -45.12109375 19.16796875 C-36.72604955 8.27005423 -24.18998663 2.83025033 -10.86767578 0.63085938 C-7.20629511 0.17849539 -3.68747603 0.0229834 0 0 Z M-18.12109375 10.16796875 C-19.99609375 10.73046875 -19.99609375 10.73046875 -22.12109375 11.16796875 C-30.76838615 14.76786049 -39.34401014 22.92386426 -43.73046875 31.20703125 C-44.9521968 35.11425585 -45.43074134 37.23902599 -44.12109375 41.16796875 C-44.30671875 41.88984375 -44.49234375 42.61171875 -44.68359375 43.35546875 C-45.20735156 46.72248324 -44.5152354 48.93248116 -43.6015625 52.1640625 C-42.95593964 54.85678223 -42.9834085 57.41426382 -43.12109375 60.16796875 C-42.79109375 60.16796875 -42.46109375 60.16796875 -42.12109375 60.16796875 C-42.0953125 60.96460938 -42.06953125 61.76125 -42.04296875 62.58203125 C-41.61710706 71.09828095 -41.61710706 71.09828095 -37.12109375 78.16796875 C-35.48477483 79.21689113 -33.81623512 80.21703578 -32.12109375 81.16796875 C-29.47954888 83.61622985 -27.22019429 86.0358347 -25.05859375 88.91796875 C-22.91075148 91.41223719 -22.17307411 91.4788119 -19.12109375 92.16796875 C-18.08964004 93.47712154 -17.08567209 94.80879018 -16.12109375 96.16796875 C-15.46109375 96.16796875 -14.80109375 96.16796875 -14.12109375 96.16796875 C-14.12109375 97.15796875 -14.12109375 98.14796875 -14.12109375 99.16796875 C-3.3588691 102.36240999 9.80889983 105.14920536 20.51953125 100.6328125 C23.66527852 98.80358976 23.66527852 98.80358976 26.3984375 96.796875 C29.01993566 95.07535573 30.81694103 94.64655342 33.87890625 94.16796875 C40.30866818 91.95276809 44.95522841 88.76620093 49.87890625 84.16796875 C50.65878906 83.50023437 51.43867188 82.8325 52.2421875 82.14453125 C53.05042969 81.45101562 53.85867187 80.7575 54.69140625 80.04296875 C55.44035156 79.40101563 56.18929687 78.7590625 56.9609375 78.09765625 C58.881375 76.16548492 59.77999342 74.63088304 60.87890625 72.16796875 C62.07931534 70.24652186 63.31753603 68.35375106 64.5625 66.4609375 C68.12273244 60.25958307 69.39859682 55.30830627 69.62890625 48.23046875 C69.65766846 47.40434082 69.68643066 46.57821289 69.71606445 45.72705078 C69.76466662 44.03101385 69.80351143 42.33466878 69.83251953 40.63818359 C69.86235199 39.04952683 69.9088439 37.46104906 69.97607422 35.87353516 C70.34019486 27.02110715 70.34019486 27.02110715 66.65234375 19.17578125 C62.3793292 14.8610564 62.3793292 14.8610564 56.87890625 13.16796875 C56.87890625 12.50796875 56.87890625 11.84796875 56.87890625 11.16796875 C53.92226106 9.68964615 51.13660888 10.10764092 47.87890625 10.16796875 C47.87890625 9.50796875 47.87890625 8.84796875 47.87890625 8.16796875 C48.53890625 7.83796875 49.19890625 7.50796875 49.87890625 7.16796875 C47.60816973 6.99998824 45.33731332 6.83362762 43.06640625 6.66796875 C41.80183594 6.57515625 40.53726563 6.48234375 39.234375 6.38671875 C37.11912108 6.24882094 34.99865033 6.16796875 32.87890625 6.16796875 C32.23953125 6.15636719 31.60015625 6.14476563 30.94140625 6.1328125 C30.26078125 6.12378906 29.58015625 6.11476563 28.87890625 6.10546875 C28.19828125 6.09386719 27.51765625 6.08226563 26.81640625 6.0703125 C24.65926271 6.09225506 24.65926271 6.09225506 21.87890625 7.16796875 C20.248608 7.08798784 18.62122719 6.93945116 17 6.75 C10.64097619 6.10184658 4.33055097 5.91254866 -2.05859375 5.85546875 C-3.16783203 5.82646484 -4.27707031 5.79746094 -5.41992188 5.76757812 C-6.48533203 5.75919922 -7.55074219 5.75082031 -8.6484375 5.7421875 C-10.08304321 5.72031372 -10.08304321 5.72031372 -11.54663086 5.69799805 C-14.84299427 6.29975239 -15.94231744 7.70272426 -18.12109375 10.16796875 Z "
        fill="#259387"
        transform="translate(190.12109375,82.83203125)"
    />
    <path
        d="M0 0 C0.71438232 -0.0007251 1.42876465 -0.0014502 2.16479492 -0.00219727 C12.41503322 -0.00104361 22.45459179 0.32551691 32.5625 2.1875 C32.5625 2.5175 32.5625 2.8475 32.5625 3.1875 C31.52480469 3.17589844 30.48710937 3.16429688 29.41796875 3.15234375 C18.46297231 3.0705536 7.50785971 3.20991929 -3.44442749 3.45095825 C-5.01759421 3.48353785 -6.59087221 3.5111411 -8.16421509 3.53366089 C-10.40949094 3.56712646 -12.65363709 3.61930133 -14.8984375 3.67578125 C-16.85982666 3.71505737 -16.85982666 3.71505737 -18.86083984 3.75512695 C-24.32358275 4.41550359 -28.24603197 6.83324184 -32.5 10.1875 C-34.58797463 11.82713652 -36.57853017 13.26767161 -38.890625 14.58203125 C-41.74701148 16.38260616 -43.80466359 18.42860118 -46.125 20.875 C-47.52437707 22.34963769 -48.95412786 23.79738505 -50.4375 25.1875 C-51.0975 25.1875 -51.7575 25.1875 -52.4375 25.1875 C-52.4375 25.8475 -52.4375 26.5075 -52.4375 27.1875 C-53.0975 27.5175 -53.7575 27.8475 -54.4375 28.1875 C-56.21017112 33.1825027 -55.66254667 38.77539724 -55.6875 44 C-55.708125 45.06798828 -55.72875 46.13597656 -55.75 47.23632812 C-55.78075078 53.45182911 -55.25662395 57.66090057 -52.4375 63.1875 C-51.63565289 65.99025262 -50.95508385 68.80100131 -50.28125 71.63671875 C-49.39287068 74.32242104 -48.16825442 75.98078811 -46.4375 78.1875 C-46.4375 78.8475 -46.4375 79.5075 -46.4375 80.1875 C-45.138125 80.55875 -45.138125 80.55875 -43.8125 80.9375 C-39.41085118 82.5677403 -35.69651595 84.47523831 -32.875 88.3125 C-31.02938749 90.71982066 -29.23214095 91.09690841 -26.4375 92.1875 C-24.125 94.125 -24.125 94.125 -22.4375 96.1875 C-22.4375 97.1775 -22.4375 98.1675 -22.4375 99.1875 C-36.83915659 94.87334736 -48.68599779 83.96378411 -56.20703125 71.1796875 C-62.23661976 59.23787474 -64.20582567 46.15178092 -60.4375 33.1875 C-55.4163078 20.29562362 -48.07225291 11.16771311 -35.4375 5.1875 C-23.6231755 0.78525766 -12.47007203 -0.0127869 0 0 Z "
        fill="#26C3A7"
        transform="translate(198.4375,82.8125)"
    />
    <path
        d="M0 0 C0 0.66 0 1.32 0 2 C-4.95 1.505 -4.95 1.505 -10 1 C-10.33 1.66 -10.66 2.32 -11 3 C-12.0828125 2.7525 -12.0828125 2.7525 -13.1875 2.5 C-17.18985232 1.7884707 -20.12818744 1.70939581 -24 3 C-25.63029825 2.92001909 -27.25767906 2.77148241 -28.87890625 2.58203125 C-35.23793006 1.93387783 -41.54835528 1.74457991 -47.9375 1.6875 C-49.04673828 1.65849609 -50.15597656 1.62949219 -51.29882812 1.59960938 C-52.36423828 1.59123047 -53.42964844 1.58285156 -54.52734375 1.57421875 C-55.96194946 1.55234497 -55.96194946 1.55234497 -57.42553711 1.5300293 C-60.72190052 2.13178364 -61.82122369 3.53475551 -64 6 C-65.875 6.5625 -65.875 6.5625 -68 7 C-73.2049361 9.19431119 -76.76094102 12.18197151 -80.6875 16.125 C-81.26258301 16.7017749 -81.83766602 17.2785498 -82.43017578 17.87280273 C-86.67443898 22.30114407 -89.01921102 25.82102941 -90 32 C-89.68480056 33.33773622 -89.35327113 34.6718101 -89 36 C-89.185625 36.7425 -89.37125 37.485 -89.5625 38.25 C-90.32622941 43.05058487 -88.51190347 47.46428959 -87 52 C-86.8436455 55.77856717 -86.74645203 59.55488193 -86.671875 63.3359375 C-85.8614898 67.75536375 -84.49005278 69.26083736 -81 72 C-80.34 72 -79.68 72 -79 72 C-77.3125 74.375 -77.3125 74.375 -76 77 C-76.33 77.66 -76.66 78.32 -77 79 C-86.08422825 73.95320653 -88.81551582 67.19619452 -91.6875 57.5625 C-91.91824219 56.73878906 -92.14898437 55.91507813 -92.38671875 55.06640625 C-92.94537349 52.96404665 -92.94537349 52.96404665 -94 51 C-94.24298891 47.06766357 -94.18520321 43.1265009 -94.1875 39.1875 C-94.19974609 38.09373047 -94.21199219 36.99996094 -94.22460938 35.87304688 C-94.22654297 34.81537109 -94.22847656 33.75769531 -94.23046875 32.66796875 C-94.23457764 31.70141357 -94.23868652 30.7348584 -94.24291992 29.73901367 C-93.98415725 26.82136704 -93.21710403 24.64977145 -92 22 C-91.34 22 -90.68 22 -90 22 C-90 21.34 -90 20.68 -90 20 C-88.42578125 18.44921875 -88.42578125 18.44921875 -86.3125 16.6875 C-83.90257643 14.65254705 -81.71372636 12.69170532 -79.5625 10.375 C-76.64477126 7.67076361 -73.64972802 6.04292156 -70.1484375 4.19921875 C-67.52615718 2.73550956 -65.31351915 0.90525107 -63 -1 C-59.45467443 -2.18177519 -56.16730343 -2.22973849 -52.47265625 -2.31640625 C-51.7284996 -2.33718735 -50.98434296 -2.35796844 -50.21763611 -2.37937927 C-48.6382306 -2.42262282 -47.05876359 -2.46366732 -45.47924805 -2.50268555 C-43.10254942 -2.56150878 -40.72610228 -2.62678887 -38.34960938 -2.69335938 C-6.48145334 -3.55901232 -6.48145334 -3.55901232 0 0 Z "
        fill="#27D1B4"
        transform="translate(236,88)"
    />
    <path
        d="M0 0 C3.80210131 6.1599936 1.66939585 14.0759572 0.140625 20.75390625 C-1.93603326 28.28578602 -4.25303378 35.00138404 -9.0625 41.25 C-9.56910156 41.91515625 -10.07570313 42.5803125 -10.59765625 43.265625 C-12 45 -12 45 -14 47 C-14.66 47.99 -15.32 48.98 -16 50 C-18.625 50.6875 -18.625 50.6875 -21 51 C-21 52.32 -21 53.64 -21 55 C-40.13367775 63.17746394 -60.35685539 68.82602158 -80.6875 61.375 C-81.780625 60.92125 -82.87375 60.4675 -84 60 C-80.79182773 58.9894964 -79.84302913 59.04059592 -76.375 59.9375 C-66.27566404 62.30792265 -55.27399754 63.05038465 -46.1875 57.5625 C-44.84751953 56.60537109 -44.84751953 56.60537109 -43.48046875 55.62890625 C-40.85897059 53.90738698 -39.06196522 53.47858467 -36 53 C-29.5724123 50.78554841 -24.92837963 47.59037129 -20 43 C-17.90159962 41.23473983 -15.80207297 39.47089015 -13.69921875 37.7109375 C-11.8931242 35.89238713 -11.05445893 34.31891604 -10 32 C-9.20080373 30.72075845 -8.38788407 29.45000336 -7.5625 28.1875 C-3.02086446 20.87265339 -1.63671131 15.61526962 -1.2109375 6.98828125 C-1.03555381 4.50367896 -0.70534477 2.37620247 0 0 Z "
        fill="#28CCDF"
        transform="translate(260,123)"
    />
    <path
        d="M0 0 C2.80703896 1.34040619 3.86054551 2.54745461 6 5 C7.34760669 9.28063303 7.16845336 11.46804203 5.8125 15.75 C3.19329529 20.44650499 3.19329529 20.44650499 0 22 C-3.98476694 23.07153397 -6.93528063 23.42588775 -10.8125 21.875 C-13.42851209 19.63270392 -14.73475573 18.23340202 -16 15 C-16.30725162 10.0297532 -15.73458204 6.90410098 -12.5625 3 C-8.50711723 -0.1651768 -5.08325406 -0.82048813 0 0 Z "
        fill="#218E79"
        transform="translate(288,59)"
    />
    <path
        d="M0 0 C0.33 0.66 0.66 1.32 1 2 C0.27040993 4.12648814 -0.5352546 6.22705493 -1.375 8.3125 C-3.65458846 14.25736977 -4.63061659 19.65726445 -4.859375 26.0625 C-5 29 -5 29 -5.51171875 31.7265625 C-6.19176684 36.28560493 -6.10516924 40.77328676 -6.0625 45.375 C-6.05798828 46.30183594 -6.05347656 47.22867188 -6.04882812 48.18359375 C-6.03711574 50.45579709 -6.02071372 52.72786388 -6 55 C-11.17941935 50.17148742 -12.57365076 42.72128741 -13.359375 35.86328125 C-13.70852454 22.50831136 -9.05194041 9.82782101 0 0 Z "
        fill="#2581A4"
        transform="translate(142,221)"
    />
    <path
        d="M0 0 C0.33 0 0.66 0 1 0 C1.02187378 0.85380249 1.02187378 0.85380249 1.04418945 1.72485352 C1.11929165 4.33803828 1.21574189 6.95003099 1.3125 9.5625 C1.33505859 10.45775391 1.35761719 11.35300781 1.38085938 12.27539062 C1.60985952 17.95875775 2.52751021 21.89309413 5 27 C5.80184711 29.80275262 6.48241615 32.61350131 7.15625 35.44921875 C8.04462932 38.13492104 9.26924558 39.79328811 11 42 C11 42.66 11 43.32 11 44 C11.86625 44.2475 12.7325 44.495 13.625 44.75 C18.02664882 46.3802403 21.74098405 48.28773831 24.5625 52.125 C26.40811251 54.53232066 28.20535905 54.90940841 31 56 C33.3125 57.9375 33.3125 57.9375 35 60 C35 60.99 35 61.98 35 63 C23.82464374 59.65231619 11.31184983 51.11253359 5 41 C4.625 37.5625 4.625 37.5625 5 35 C4.34 35 3.68 35 3 35 C2.18243762 32.93950145 1.37115266 30.87651147 0.5625 28.8125 C0.11003906 27.66394531 -0.34242188 26.51539063 -0.80859375 25.33203125 C-2.61246718 20.28709999 -3.12130075 16.03836836 -3.0625 10.6875 C-3.05347656 9.61886719 -3.04445312 8.55023438 -3.03515625 7.44921875 C-3.02355469 6.64097656 -3.01195312 5.83273438 -3 5 C-2.01 4.67 -1.02 4.34 0 4 C0 2.68 0 1.36 0 0 Z "
        fill="#208C9C"
        transform="translate(141,119)"
    />
    <path
        d="M0 0 C10.8413463 1.62620195 20.44628665 6.91697716 27.51171875 15.38671875 C29.85270787 19.49727444 30.31547087 23.61680496 30.74609375 28.27734375 C30.83078926 30.96343723 30.83078926 30.96343723 32 33 C32.2412158 36.59877757 32.18519881 40.20653788 32.1875 43.8125 C32.19974609 44.81087891 32.21199219 45.80925781 32.22460938 46.83789062 C32.22654297 47.80533203 32.22847656 48.77277344 32.23046875 49.76953125 C32.23457764 50.65229736 32.23868652 51.53506348 32.24291992 52.44458008 C31.97437804 55.26953267 31.16717379 57.42655094 30 60 C29.34 60 28.68 60 28 60 C27.87882812 60.74765625 27.75765625 61.4953125 27.6328125 62.265625 C27.46523438 63.25046875 27.29765625 64.2353125 27.125 65.25 C26.96257812 66.22453125 26.80015625 67.1990625 26.6328125 68.203125 C25.69777411 72.33576382 24.94061052 74.37292632 21.375 76.75 C20.59125 77.1625 19.8075 77.575 19 78 C20.12863981 75.74272039 21.26573131 73.49518253 22.44140625 71.26171875 C26.85444645 62.02640906 31.42734235 48.26213079 28.046875 38.1484375 C26.75567962 34.26521557 26.55135026 30.6884038 26.375 26.625 C26.33632813 25.88894531 26.29765625 25.15289062 26.2578125 24.39453125 C26.16442002 22.59672594 26.0811629 20.79839892 26 19 C25.01 18.67 24.02 18.34 23 18 C22.67 17.01 22.34 16.02 22 15 C20.3663139 13.63169753 20.3663139 13.63169753 18.4375 12.4375 C16.49609375 11.18359375 16.49609375 11.18359375 15 10 C15 9.34 15 8.68 15 8 C12.03 7.67 9.06 7.34 6 7 C6 6.34 6 5.68 6 5 C5.34 4.67 4.68 4.34 4 4 C4 3.34 4 2.68 4 2 C2.35 2 0.7 2 -1 2 C-0.67 1.34 -0.34 0.68 0 0 Z "
        fill="#25AAA2"
        transform="translate(232,86)"
    />
    <path
        d="M0 0 C3.80210131 6.1599936 1.66939585 14.0759572 0.140625 20.75390625 C-1.93603326 28.28578602 -4.25303378 35.00138404 -9.0625 41.25 C-9.56910156 41.91515625 -10.07570312 42.5803125 -10.59765625 43.265625 C-12 45 -12 45 -14 47 C-14.66 47.99 -15.32 48.98 -16 50 C-17.03125 50.12375 -18.0625 50.2475 -19.125 50.375 C-23.41989304 51.06772468 -25.54614875 52.47431991 -29.06640625 54.85546875 C-31.63570871 56.37628819 -34.04700637 56.77852548 -37 57 C-37 56.34 -37 55.68 -37 55 C-36.03900391 54.70609375 -36.03900391 54.70609375 -35.05859375 54.40625 C-29.04307582 52.32636899 -25.6450875 50.08307479 -21.73046875 45.08984375 C-19.35573767 42.22194053 -16.58558968 39.97694096 -13.69921875 37.640625 C-11.85407016 35.85910222 -11.05171689 34.32179874 -10 32 C-9.20080373 30.72075845 -8.38788407 29.45000336 -7.5625 28.1875 C-3.02086446 20.87265339 -1.63671131 15.61526962 -1.2109375 6.98828125 C-1.03555381 4.50367896 -0.70534477 2.37620247 0 0 Z "
        fill="#27C7D5"
        transform="translate(260,123)"
    />
    <path
        d="M0 0 C0 0.66 0 1.32 0 2 C-3.3 1.67 -6.6 1.34 -10 1 C-10.33 1.66 -10.66 2.32 -11 3 C-11.721875 2.835 -12.44375 2.67 -13.1875 2.5 C-17.18985232 1.7884707 -20.12818744 1.70939581 -24 3 C-25.63029825 2.92001909 -27.25767906 2.77148241 -28.87890625 2.58203125 C-35.23793006 1.93387783 -41.54835528 1.74457991 -47.9375 1.6875 C-49.04673828 1.65849609 -50.15597656 1.62949219 -51.29882812 1.59960938 C-52.36423828 1.59123047 -53.42964844 1.58285156 -54.52734375 1.57421875 C-55.96194946 1.55234497 -55.96194946 1.55234497 -57.42553711 1.5300293 C-60.70818079 2.12927909 -61.89089728 3.48963668 -64 6 C-64.66 5.67 -65.32 5.34 -66 5 C-65.34 4.34 -64.68 3.68 -64 3 C-64.33 2.01 -64.66 1.02 -65 0 C-60.77504433 -2.04012745 -56.88971161 -2.33818149 -52.27734375 -2.4140625 C-51.536017 -2.43342865 -50.79469025 -2.4527948 -50.03089905 -2.4727478 C-47.66654828 -2.53221915 -45.30214023 -2.57863924 -42.9375 -2.625 C-41.3756307 -2.6632406 -39.81378112 -2.70229573 -38.25195312 -2.7421875 C-6.41472921 -3.52237363 -6.41472921 -3.52237363 0 0 Z "
        fill="#26C1A1"
        transform="translate(236,88)"
    />
    <path
        d="M0 0 C-1.11375 0.2475 -2.2275 0.495 -3.375 0.75 C-7.03636364 1.55032044 -7.03636364 1.55032044 -7.9921875 3.87890625 C-8.32476562 4.57886719 -8.65734375 5.27882812 -9 6 C-10.734375 7.60546875 -10.734375 7.60546875 -12.75 9.1875 C-17.79534239 13.45310766 -21.60116325 18.46083785 -24.0390625 24.62890625 C-25 27 -25 27 -27 29.3125 C-28.94372558 31.92438124 -29.41037289 33.1756865 -30.0625 36.25 C-30.371875 37.4875 -30.68125 38.725 -31 40 C-32.485 40.495 -32.485 40.495 -34 41 C-34.49342055 30.51481338 -31.00053484 19.66726086 -23.89355469 11.82958984 C-18.25821541 6.19968659 -8.39685783 -3.22803733 0 0 Z "
        fill="#27B0CC"
        transform="translate(171,203)"
    />
    <path
        d="M0 0 C0.71438232 -0.0007251 1.42876465 -0.0014502 2.16479492 -0.00219727 C12.41503322 -0.00104361 22.45459179 0.32551691 32.5625 2.1875 C32.5625 2.5175 32.5625 2.8475 32.5625 3.1875 C31.52480469 3.17589844 30.48710937 3.16429688 29.41796875 3.15234375 C18.44255658 3.0716332 7.47244101 3.23692015 -3.49935913 3.50588989 C-5.07938355 3.54354093 -6.65948839 3.57795994 -8.23965454 3.60910034 C-10.49213739 3.65456113 -12.74398455 3.71243925 -14.99609375 3.7734375 C-16.96533813 3.82056885 -16.96533813 3.82056885 -18.97436523 3.86865234 C-22.24307881 4.16959982 -24.47786473 4.84523165 -27.4375 6.1875 C-29.67578125 6.3828125 -29.67578125 6.3828125 -31.75 6.3125 C-32.966875 6.27125 -34.18375 6.23 -35.4375 6.1875 C-33.05369611 3.80369611 -31.48512611 3.47728839 -28.25 2.625 C-27.32832031 2.37621094 -26.40664062 2.12742187 -25.45703125 1.87109375 C-17.00142027 -0.04317782 -8.61198044 -0.00883079 0 0 Z "
        fill="#1B7C69"
        transform="translate(198.4375,82.8125)"
    />
    <path
        d="M0 0 C0.66 0.33 1.32 0.66 2 1 C1.90460938 1.58007812 1.80921875 2.16015625 1.7109375 2.7578125 C0.99777551 7.78311672 0.9521879 11.22177177 3 16 C4.55132547 20.6539764 4.2318403 25.45430342 4.328125 30.3359375 C5.1385102 34.75536375 6.50994722 36.26083736 10 39 C10.66 39 11.32 39 12 39 C13.6875 41.375 13.6875 41.375 15 44 C14.67 44.66 14.34 45.32 14 46 C6.70278217 41.94599009 3.99365428 37.58392419 1 30 C0.608125 29.01 0.21625 28.02 -0.1875 27 C-2.172533 19.67064738 -4.0740707 8.76475701 -0.98828125 1.67578125 C-0.66214844 1.12277344 -0.33601562 0.56976563 0 0 Z "
        fill="#27CCC6"
        transform="translate(145,121)"
    />
    <path
        d="M0 0 C-0.33 0.66 -0.66 1.32 -1 2 C-2.22976562 1.96519531 -3.45953125 1.93039063 -4.7265625 1.89453125 C-6.35936127 1.86637955 -7.9921749 1.83908087 -9.625 1.8125 C-10.43324219 1.78736328 -11.24148437 1.76222656 -12.07421875 1.73632812 C-19.71374125 1.64316322 -23.79201121 3.69801506 -29.3046875 9.01171875 C-30.83587168 10.56270273 -32.35913799 12.12153747 -33.875 13.6875 C-34.65875 14.48478516 -35.4425 15.28207031 -36.25 16.10351562 C-38.17366361 18.0623682 -40.08994591 20.02788984 -42 22 C-42.33 21.34 -42.66 20.68 -43 20 C-38.8857651 14.59271984 -34.878778 9.49974021 -29.54296875 5.25390625 C-27.95053089 4.00964216 -27.95053089 4.00964216 -26.48828125 2.4453125 C-19.5034327 -4.33787375 -8.42284372 -2.99478888 0 0 Z "
        fill="#23C0CE"
        transform="translate(191,203)"
    />
    <path
        d="M0 0 C0.33 0 0.66 0 1 0 C1.02187378 0.85380249 1.02187378 0.85380249 1.04418945 1.72485352 C1.11929165 4.33803828 1.21574189 6.95003099 1.3125 9.5625 C1.33505859 10.45775391 1.35761719 11.35300781 1.38085938 12.27539062 C1.60979413 17.95713498 2.51464703 21.89881304 5 27 C5.60544446 28.90353733 6.17230918 30.82007882 6.6875 32.75 C6.93886719 33.67296875 7.19023437 34.5959375 7.44921875 35.546875 C8 38 8 38 8 41 C7.01 40.34 6.02 39.68 5 39 C5 37.68 5 36.36 5 35 C4.34 35 3.68 35 3 35 C2.18243762 32.93950145 1.37115266 30.87651147 0.5625 28.8125 C0.11003906 27.66394531 -0.34242188 26.51539063 -0.80859375 25.33203125 C-2.61246718 20.28709999 -3.12130075 16.03836836 -3.0625 10.6875 C-3.05347656 9.61886719 -3.04445312 8.55023438 -3.03515625 7.44921875 C-3.02355469 6.64097656 -3.01195312 5.83273438 -3 5 C-2.01 4.67 -1.02 4.34 0 4 C0 2.68 0 1.36 0 0 Z "
        fill="#25A69F"
        transform="translate(141,119)"
    />
    <path
        d="M0 0 C0.66 0.33 1.32 0.66 2 1 C0.46233805 12.95182696 -7.5159172 22.82386523 -16.73046875 30.1796875 C-23.43825301 35 -23.43825301 35 -26 35 C-26.495 33.515 -26.495 33.515 -27 32 C-26.278125 31.773125 -25.55625 31.54625 -24.8125 31.3125 C-21.40139354 29.72065032 -19.56319395 27.75074472 -17 25 C-15.04261121 22.94086576 -13.05624126 20.96485276 -11 19 C-10.34 19 -9.68 19 -9 19 C-8.896875 18.401875 -8.79375 17.80375 -8.6875 17.1875 C-7.90175967 14.68741714 -7.03081147 13.62464918 -5 12 C-4.34 12 -3.68 12 -3 12 C-2.87625 10.7625 -2.7525 9.525 -2.625 8.25 C-2.24253695 5.1237803 -1.69450477 2.71120763 0 0 Z "
        fill="#1C7572"
        transform="translate(265,142)"
    />
    <path
        d="M0 0 C1.29760307 4.23331497 0.33707159 6.77766867 -1 11 C-1.33959488 12.45688796 -1.67299179 13.91523534 -2 15.375 C-2.495 17.169375 -2.495 17.169375 -3 19 C-3.66 19.33 -4.32 19.66 -5 20 C-5.39604038 28.53687044 -5.05136859 36.37336288 -0.8984375 44.03125 C0 46 0 46 0 50 C0.66 50 1.32 50 2 50 C1.67 51.32 1.34 52.64 1 54 C-6.16804396 41.56133549 -9.61801955 29.69332505 -6.9140625 15.1640625 C-5.34671362 9.73862408 -2.79848652 4.884151 0 0 Z "
        fill="#175651"
        transform="translate(144,104)"
    />
    <path
        d="M0 0 C11.24087134 2.13188939 24.07950749 5.47718834 33 13 C33 13.99 33 14.98 33 16 C20.53837195 11.30040612 20.53837195 11.30040612 15.0625 8.75 C12.38321364 7.51378516 10.5389971 6.92456316 7.5625 6.4375 C6.716875 6.293125 5.87125 6.14875 5 6 C4.34 5.01 3.68 4.02 3 3 C2.01 2.67 1.02 2.34 0 2 C0 1.34 0 0.68 0 0 Z "
        fill="#2197A2"
        transform="translate(232,219)"
    />
    <path
        d="M0 0 C2.64 0.66 5.28 1.32 8 2 C8 2.99 8 3.98 8 5 C9.32 5 10.64 5 12 5 C12 5.66 12 6.32 12 7 C12.99 7 13.98 7 15 7 C15 7.66 15 8.32 15 9 C21.08399373 10.59580163 26.42651689 11.17607611 32.71484375 10.97265625 C35 11 35 11 37 12 C39.69620275 11.23025735 39.69620275 11.23025735 42.625 10.0625 C43.62789062 9.68222656 44.63078125 9.30195313 45.6640625 8.91015625 C46.43492187 8.60980469 47.20578125 8.30945313 48 8 C47 11 47 11 44.96875 12.6640625 C41.12023064 14.39589621 37.63976886 14.44825481 33.5 14.375 C32.71061035 14.36919922 31.9212207 14.36339844 31.10791016 14.35742188 C24.11575659 14.20458792 17.71549654 12.99329226 11 11 C11 10.01 11 9.02 11 8 C10.0409375 7.566875 10.0409375 7.566875 9.0625 7.125 C7 6 7 6 6 4 C4.7625 3.505 4.7625 3.505 3.5 3 C1 2 1 2 0 0 Z "
        fill="#28D4EC"
        transform="translate(165,171)"
    />
    <path
        d="M0 0 C3.80210131 6.1599936 1.66939585 14.0759572 0.140625 20.75390625 C-1.93603326 28.28578602 -4.25303378 35.00138404 -9.0625 41.25 C-9.56910156 41.91515625 -10.07570312 42.5803125 -10.59765625 43.265625 C-12 45 -12 45 -14 47 C-14.66 47.99 -15.32 48.98 -16 50 C-18.125 50.6875 -18.125 50.6875 -20 51 C-18.62177144 47.87327251 -17.03754129 45.84197456 -14.5625 43.5 C-9.7748266 38.81165592 -7.70841871 35.60588567 -6 29 C-5.03853926 26.0555265 -4.04993418 23.13461345 -2.97265625 20.23046875 C-1.95736296 16.85839022 -1.63066692 13.88488406 -1.4375 10.375 C-1.23255672 6.78640134 -1.01969149 3.45515298 0 0 Z "
        fill="#26B2B5"
        transform="translate(260,123)"
    />
    <path
        d="M0 0 C12.38410947 1.85761642 21.42933684 8.18040455 29 18 C26 19 26 19 23 18 C22.67 17.01 22.34 16.02 22 15 C20.3663139 13.63169753 20.3663139 13.63169753 18.4375 12.4375 C16.49609375 11.18359375 16.49609375 11.18359375 15 10 C15 9.34 15 8.68 15 8 C12.03 7.67 9.06 7.34 6 7 C6 6.34 6 5.68 6 5 C5.34 4.67 4.68 4.34 4 4 C4 3.34 4 2.68 4 2 C2.35 2 0.7 2 -1 2 C-0.67 1.34 -0.34 0.68 0 0 Z "
        fill="#1C7564"
        transform="translate(232,86)"
    />
    <path
        d="M0 0 C0.66 0.33 1.32 0.66 2 1 C2 2.32 2 3.64 2 5 C-18.45901639 13.47131148 -18.45901639 13.47131148 -26 13 C-26 12.34 -26 11.68 -26 11 C-25.04287109 10.81824219 -25.04287109 10.81824219 -24.06640625 10.6328125 C-23.24011719 10.46523437 -22.41382813 10.29765625 -21.5625 10.125 C-20.32693359 9.88136719 -20.32693359 9.88136719 -19.06640625 9.6328125 C-18.38449219 9.42398438 -17.70257813 9.21515625 -17 9 C-16.67 8.34 -16.34 7.68 -16 7 C-14.1796875 6.2890625 -14.1796875 6.2890625 -11.875 5.625 C-8.66418078 4.63154078 -5.93120067 3.50141725 -3.0625 1.75 C-1.5465625 0.88375 -1.5465625 0.88375 0 0 Z "
        fill="#1D8D93"
        transform="translate(237,173)"
    />
    <path
        d="M0 0 C1 3 1 3 -0.25 5.6875 C-1.11625 6.8321875 -1.11625 6.8321875 -2 8 C-2.99 8 -3.98 8 -5 8 C-5.50471197 9.76949612 -6.00360685 11.54065223 -6.5 13.3125 C-6.7784375 14.29863281 -7.056875 15.28476563 -7.34375 16.30078125 C-8.11812196 19.02287203 -8.11812196 19.02287203 -8 22 C-8.22864687 23.38264106 -8.50235189 24.75833111 -8.8125 26.125 C-8.96332031 26.82882813 -9.11414063 27.53265625 -9.26953125 28.2578125 C-9.51058594 28.83273438 -9.75164062 29.40765625 -10 30 C-10.99 30.33 -11.98 30.66 -13 31 C-13.30727223 25.30422203 -12.35030343 20.85287016 -10.4375 15.5 C-10.17372559 14.75113525 -9.90995117 14.00227051 -9.63818359 13.23071289 C-7.4649665 7.45172949 -4.92677032 3.84288085 0 0 Z "
        fill="#2698BC"
        transform="translate(150,213)"
    />
    <path
        d="M0 0 C0.66 0 1.32 0 2 0 C2.13277344 0.84304687 2.26554687 1.68609375 2.40234375 2.5546875 C2.57894531 3.65039062 2.75554687 4.74609375 2.9375 5.875 C3.19853516 7.51082031 3.19853516 7.51082031 3.46484375 9.1796875 C3.85551159 11.93821546 3.85551159 11.93821546 5 14 C5.2412158 17.59877757 5.18519881 21.20653788 5.1875 24.8125 C5.19974609 25.81087891 5.21199219 26.80925781 5.22460938 27.83789062 C5.22654297 28.80533203 5.22847656 29.77277344 5.23046875 30.76953125 C5.23457764 31.65229736 5.23868652 32.53506348 5.24291992 33.44458008 C4.97437804 36.26953267 4.16717379 38.42655094 3 41 C2 38 2 38 2.42578125 36.3203125 C3.28079467 32.8653603 3.18433611 29.41222546 3.1875 25.875 C3.19974609 25.14667969 3.21199219 24.41835937 3.22460938 23.66796875 C3.22985188 21.77717022 3.12233385 19.88684419 3 18 C2.34 17.34 1.68 16.68 1 16 C0.67 16 0.34 16 0 16 C0 10.72 0 5.44 0 0 Z "
        fill="#25A490"
        transform="translate(259,105)"
    />
    <path
        d="M0 0 C1.33332095 2.6666419 0.67102033 4.16680303 0 7 C-0.66 7 -1.32 7 -2 7 C-1.95875 8.2375 -1.9175 9.475 -1.875 10.75 C-1.76095424 14.17137281 -2.48655645 15.97311289 -4 19 C-4.43473339 21.07169246 -4.80654223 23.15727751 -5.125 25.25 C-5.29257813 26.32765625 -5.46015625 27.4053125 -5.6328125 28.515625 C-5.75398437 29.33546875 -5.87515625 30.1553125 -6 31 C-6.33 31 -6.66 31 -7 31 C-7.54670887 19.39762296 -5.570506 10.18057994 0 0 Z "
        fill="#184F5B"
        transform="translate(136,229)"
    />
    <path
        d="M0 0 C-1.11375 0.2475 -2.2275 0.495 -3.375 0.75 C-7.01743954 1.55290809 -7.01743954 1.55290809 -8 3.8125 C-8.33 4.534375 -8.66 5.25625 -9 6 C-11.22417926 7.83259841 -13.58768059 9.42618734 -16 11 C-17.32 10.34 -18.64 9.68 -20 9 C-14.80696164 3.99063824 -7.63502746 -2.63692822 0 0 Z "
        fill="#1F9FAC"
        transform="translate(171,203)"
    />
    <path
        d="M0 0 C0.66 0 1.32 0 2 0 C1.79503906 0.64066406 1.59007812 1.28132813 1.37890625 1.94140625 C1.10949219 2.80636719 0.84007812 3.67132813 0.5625 4.5625 C0.29566406 5.40941406 0.02882812 6.25632812 -0.24609375 7.12890625 C-1.85179062 13.24386584 -2.13711326 19.1642463 -2.0625 25.4375 C-2.05798828 26.16904297 -2.05347656 26.90058594 -2.04882812 27.65429688 C-2.03718148 29.43623419 -2.01925191 31.21812863 -2 33 C-4.59067878 30.40932122 -4.25719035 29.3317628 -4.265625 25.73046875 C-4.26820313 24.67666016 -4.27078125 23.62285156 -4.2734375 22.53710938 C-4.26570312 21.43173828 -4.25796875 20.32636719 -4.25 19.1875 C-4.25773438 18.09373047 -4.26546875 16.99996094 -4.2734375 15.87304688 C-4.27085937 14.81537109 -4.26828125 13.75769531 -4.265625 12.66796875 C-4.26336914 11.70141357 -4.26111328 10.7348584 -4.25878906 9.73901367 C-3.9838845 6.82943416 -3.21233518 4.64528648 -2 2 C-1.34 2 -0.68 2 0 2 C0 1.34 0 0.68 0 0 Z "
        fill="#26BFB2"
        transform="translate(146,108)"
    />
    <path
        d="M0 0 C1.05380859 -0.0009668 1.05380859 -0.0009668 2.12890625 -0.00195312 C8.38068536 0.0604512 14.38254064 0.8898571 20.5 2.1875 C20.17 2.8475 19.84 3.5075 19.5 4.1875 C18.78199219 4.1153125 18.06398437 4.043125 17.32421875 3.96875 C7.37091058 3.07629896 -2.51454075 3.09260123 -12.5 3.1875 C-11.5 1.1875 -11.5 1.1875 -9.90625 0.57421875 C-6.60361866 0.04343871 -3.33600961 -0.00315313 0 0 Z "
        fill="#27D2AD"
        transform="translate(194.5,86.8125)"
    />
    <path
        d="M0 0 C1.58409994 0.11487748 3.16728963 0.24234508 4.75 0.375 C6.07257813 0.47941406 6.07257813 0.47941406 7.421875 0.5859375 C10 1 10 1 11.84960938 2 C14.35634646 3.16571243 16.22891974 3.31325316 18.984375 3.4140625 C20.38623047 3.47207031 20.38623047 3.47207031 21.81640625 3.53125 C22.78449219 3.5621875 23.75257813 3.593125 24.75 3.625 C26.22533203 3.68300781 26.22533203 3.68300781 27.73046875 3.7421875 C30.15346037 3.83628426 32.57644796 3.92192328 35 4 C35 4.33 35 4.66 35 5 C22.38804082 6.17099746 11.89016122 5.93553862 0 1 C0 0.67 0 0.34 0 0 Z "
        fill="#14666D"
        transform="translate(176,182)"
    />
    <path
        d="M0 0 C0 2 0 2 -1.6875 3.9375 C-5.10688661 6.98722319 -8.89026771 9.02124001 -13 11 C-13 11.66 -13 12.32 -13 13 C-13.99 13 -14.98 13 -16 13 C-16 13.66 -16 14.32 -16 15 C-16.66 15 -17.32 15 -18 15 C-16.46294916 11.21781873 -14.15470258 9.0630744 -11.125 6.375 C-10.26132813 5.59898438 -9.39765625 4.82296875 -8.5078125 4.0234375 C-3.52123552 0 -3.52123552 0 0 0 Z "
        fill="#1A7466"
        transform="translate(163,89)"
    />
    <path
        d="M0 0 C2.5090553 1.03822978 3.83184987 1.766052 5.4375 4 C7.37673803 6.48222468 9.1000929 6.86832894 12 8 C14.3125 9.9375 14.3125 9.9375 16 12 C16 12.99 16 13.98 16 15 C12.59687262 13.94124926 9.98646769 12.99097846 7 11 C7 10.34 7 9.68 7 9 C6.401875 8.401875 5.80375 7.80375 5.1875 7.1875 C2.95315792 4.95315792 1.52817876 2.75072177 0 0 Z "
        fill="#27B9D1"
        transform="translate(160,167)"
    />
    <path
        d="M0 0 C2.64 0.66 5.28 1.32 8 2 C8 2.99 8 3.98 8 5 C9.32 5 10.64 5 12 5 C12 5.66 12 6.32 12 7 C12.99 7 13.98 7 15 7 C15 7.66 15 8.32 15 9 C16.32 9.66 17.64 10.32 19 11 C15.94736336 11.98120464 14.05263664 11.98120464 11 11 C11 10.01 11 9.02 11 8 C10.0409375 7.566875 10.0409375 7.566875 9.0625 7.125 C7 6 7 6 6 4 C4.7625 3.505 4.7625 3.505 3.5 3 C1 2 1 2 0 0 Z "
        fill="#27C8E2"
        transform="translate(165,171)"
    />
    <path
        d="M0 0 C0.66 0 1.32 0 2 0 C1.67 0.66 1.34 1.32 1 2 C0.67 1.34 0.34 0.68 0 0 Z M0 2 C0.33 2.99 0.66 3.98 1 5 C0.01 6.485 0.01 6.485 -1 8 C-1.27972656 8.94359375 -1.55945313 9.8871875 -1.84765625 10.859375 C-3.16588652 14.45211106 -4.83542041 16.46419394 -7.4375 19.25 C-8.21996094 20.10078125 -9.00242188 20.9515625 -9.80859375 21.828125 C-12 24 -12 24 -15 26 C-13.61439191 22.89267096 -11.97369275 20.7586276 -9.625 18.3125 C-6.44402938 14.78102742 -4.54881141 11.38949523 -2.82421875 6.98046875 C-2 5 -2 5 0 2 Z "
        fill="#27BEC2"
        transform="translate(255,146)"
    />
    <path
        d="M0 0 C2.09315085 2.09315085 2.49582255 3.13403499 3.375 5.875 C4.63852039 9.402595 5.97212552 11.65583911 9 14 C9.66 14 10.32 14 11 14 C12.6875 16.375 12.6875 16.375 14 19 C13.67 19.66 13.34 20.32 13 21 C5.89339651 17.05188695 2.60689491 12.63059864 0 5 C-0.25 1.9375 -0.25 1.9375 0 0 Z "
        fill="#27B5C3"
        transform="translate(146,146)"
    />
    <path
        d="M0 0 C0.33 0 0.66 0 1 0 C1.91415319 3.88877867 2.13432455 7.50909382 2.125 11.5 C2.12886719 13.15515625 2.12886719 13.15515625 2.1328125 14.84375 C2.01325821 17.68492244 1.64925815 20.23807642 1 23 C0.67 23 0.34 23 0 23 C-0.91415319 19.11122133 -1.13432455 15.49090618 -1.125 11.5 C-1.12757813 10.3965625 -1.13015625 9.293125 -1.1328125 8.15625 C-1.01325821 5.31507756 -0.64925815 2.76192358 0 0 Z "
        fill="#195E53"
        transform="translate(267,119)"
    />
    <path
        d="M0 0 C2 3.75 2 3.75 2 6 C2.66 6 3.32 6 4 6 C4 9.3 4 12.6 4 16 C1.36629864 13.36629864 0.48066086 12.33379748 -0.75 9.0625 C-1.01296875 8.39347656 -1.2759375 7.72445313 -1.546875 7.03515625 C-2.0756668 4.66015169 -1.80613871 3.2758672 -1 1 C-0.67 0.67 -0.34 0.34 0 0 Z "
        fill="#1C5468"
        transform="translate(132,260)"
    />
    <path
        d="M0 0 C1.29760307 4.23331497 0.33707159 6.77766867 -1 11 C-1.69420198 13.66033106 -2.34417113 16.32983962 -3 19 C-3.66 19 -4.32 19 -5 19 C-5.72790099 11.25189832 -4.35178114 6.43441926 0 0 Z "
        fill="#1E8073"
        transform="translate(144,104)"
    />
    <path
        d="M0 0 C0.33 0 0.66 0 1 0 C1.04898438 0.96421875 1.09796875 1.9284375 1.1484375 2.921875 C1.22320312 4.18515625 1.29796875 5.4484375 1.375 6.75 C1.44460937 8.00296875 1.51421875 9.2559375 1.5859375 10.546875 C1.96116228 13.67610807 2.51353938 15.31711985 4 18 C4 18.99 4 19.98 4 21 C3.34 21 2.68 21 2 21 C0.95374591 19.70264493 -0.04701223 18.36733028 -1 17 C-1.33 16.67 -1.66 16.34 -2 16 C-1.93552434 13.87230338 -1.79828808 11.74660817 -1.625 9.625 C-1.48964844 7.88089844 -1.48964844 7.88089844 -1.3515625 6.1015625 C-1 3 -1 3 0 0 Z "
        fill="#24718C"
        transform="translate(132,245)"
    />
    <path
        d="M0 0 C0.66 0.33 1.32 0.66 2 1 C1.46105575 5.59808129 0.23428472 8.86784369 -2.0625 12.875 C-2.61035156 13.84179688 -3.15820312 14.80859375 -3.72265625 15.8046875 C-4.14417969 16.52914062 -4.56570313 17.25359375 -5 18 C-5.33 18 -5.66 18 -6 18 C-6 16.35 -6 14.7 -6 13 C-5.01 12.67 -4.02 12.34 -3 12 C-2.87625 10.7625 -2.7525 9.525 -2.625 8.25 C-2.24253695 5.1237803 -1.69450477 2.71120763 0 0 Z "
        fill="#19635B"
        transform="translate(265,142)"
    />
    <path
        d="M0 0 C0.33 1.32 0.66 2.64 1 4 C-0.45365269 5.17249353 -1.91307419 6.33783816 -3.375 7.5 C-4.18710938 8.1496875 -4.99921875 8.799375 -5.8359375 9.46875 C-8 11 -8 11 -10 11 C-10.33 10.01 -10.66 9.02 -11 8 C-9.9171875 7.6596875 -9.9171875 7.6596875 -8.8125 7.3125 C-5.45850839 5.74730392 -3.49514416 3.70307284 -1 1 C-0.67 0.67 -0.34 0.34 0 0 Z "
        fill="#1D8284"
        transform="translate(249,166)"
    />
    <path
        d="M0 0 C2.31907979 3.62133228 2.1112694 6.41335942 1.75 10.625 C1.66234375 11.77226562 1.5746875 12.91953125 1.484375 14.1015625 C1 17 1 17 -1 19 C-2.44341036 16.11317927 -1.89078913 13.82165307 -1.625 10.625 C-1.53476562 9.48289063 -1.44453125 8.34078125 -1.3515625 7.1640625 C-1.07375456 4.66379106 -0.69949998 2.40675418 0 0 Z "
        fill="#26B9A9"
        transform="translate(260,123)"
    />
    <path
        d="M0 0 C3.40198926 4.04998722 6 8.63626649 6 14 C5.01 13.67 4.02 13.34 3 13 C2.67 12.01 2.34 11.02 2 10 C1.34 9.67 0.68 9.34 0 9 C0 6.03 0 3.06 0 0 Z "
        fill="#1C7061"
        transform="translate(261,105)"
    />
    <path
        d="M0 0 C1.45903258 0.30921884 2.91720722 0.62248799 4.375 0.9375 C5.18710938 1.11152344 5.99921875 1.28554687 6.8359375 1.46484375 C9 2 9 2 11 3 C11.625 5.0625 11.625 5.0625 12 7 C10.02 7 8.04 7 6 7 C6 6.34 6 5.68 6 5 C5.34 4.67 4.68 4.34 4 4 C4 3.34 4 2.68 4 2 C2.35 2 0.7 2 -1 2 C-0.67 1.34 -0.34 0.68 0 0 Z "
        fill="#1E8670"
        transform="translate(232,86)"
    />
    <path
        d="M0 0 C3.68548192 3.68548192 5 7.86850209 5 13 C5.66 13 6.32 13 7 13 C6.67 14.32 6.34 15.64 6 17 C4.98422665 15.30099815 3.9880102 13.59029549 3 11.875 C2.1646875 10.44800781 2.1646875 10.44800781 1.3125 8.9921875 C-0.11630654 5.73484878 -0.25041309 3.5162171 0 0 Z "
        fill="#1A6060"
        transform="translate(139,141)"
    />
    <path
        d="M0 0 C0 0.33 0 0.66 0 1 C-1.546875 1.3403125 -1.546875 1.3403125 -3.125 1.6875 C-7.34647661 2.8606081 -9.75014799 5.12803776 -13 8 C-13.66 8 -14.32 8 -15 8 C-14.09126425 4.94334338 -13.32469175 3.27694297 -10.875 1.1875 C-7.02507023 -0.40268838 -4.14686216 -0.2108574 0 0 Z "
        fill="#196456"
        transform="translate(288,59)"
    />
    <path
        d="M0 0 C3.23861295 3.23861295 4.47231678 5.72248699 6 10 C5.67 10.99 5.34 11.98 5 13 C3.68 12.67 2.36 12.34 1 12 C0.67 8.04 0.34 4.08 0 0 Z "
        fill="#1B506A"
        transform="translate(275,244)"
    />
    <path
        d="M0 0 C0.66 0.33 1.32 0.66 2 1 C0.68 3.31 -0.64 5.62 -2 8 C-2.66 8 -3.32 8 -4 8 C-4 8.66 -4 9.32 -4 10 C-4.99 10.33 -5.98 10.66 -7 11 C-6.34 8.69 -5.68 6.38 -5 4 C-4.34 4 -3.68 4 -3 4 C-3 3.34 -3 2.68 -3 2 C-2.01 2 -1.02 2 0 2 C0 1.34 0 0.68 0 0 Z "
        fill="#25AF99"
        transform="translate(150,100)"
    />
    <path
        d="M0 0 C-5.5540573 3.70270486 -9.45504337 4.22186294 -16 4 C-11.51179636 -0.48820364 -5.94325078 -0.20493968 0 0 Z "
        fill="#1B7D6B"
        transform="translate(179,85)"
    />
    <path
        d="M0 0 C3.98175544 2.10148204 6.35039045 4.36905358 9 8 C8.67 8.66 8.34 9.32 8 10 C5.5 8.625 5.5 8.625 3 7 C3 6.34 3 5.68 3 5 C2.34 5 1.68 5 1 5 C0.67 3.35 0.34 1.7 0 0 Z "
        fill="#1A5468"
        transform="translate(266,234)"
    />
    <path
        d="M0 0 C-1.50139512 4.20390632 -4.17275043 5.89110738 -8 8 C-8.99 7.67 -9.98 7.34 -11 7 C-9.87720538 6.01830524 -8.75168527 5.03972702 -7.625 4.0625 C-6.68527344 3.24458984 -6.68527344 3.24458984 -5.7265625 2.41015625 C-3.71547429 0.76761588 -2.62199195 0 0 0 Z "
        fill="#1B8188"
        transform="translate(162,205)"
    />
    <path
        d="M0 0 C1 2 1 2 0.22265625 4.3828125 C-0.16019531 5.28773438 -0.54304687 6.19265625 -0.9375 7.125 C-1.31777344 8.03507813 -1.69804687 8.94515625 -2.08984375 9.8828125 C-2.39019531 10.58148438 -2.69054687 11.28015625 -3 12 C-4.04296875 10.125 -4.04296875 10.125 -5 8 C-3.94423208 4.92867513 -1.99508001 2.53919275 0 0 Z "
        fill="#1D6E7C"
        transform="translate(142,221)"
    />
    <path
        d="M0 0 C1 3 1 3 -0.125 5.6875 C-2 8 -2 8 -4.6875 8.3125 C-5.450625 8.209375 -6.21375 8.10625 -7 8 C-6.02133662 6.85373678 -5.04205413 5.70800212 -4.0625 4.5625 C-3.51722656 3.92441406 -2.97195312 3.28632813 -2.41015625 2.62890625 C-1.63204305 1.73008851 -0.84063472 0.84063472 0 0 Z "
        fill="#208794"
        transform="translate(150,213)"
    />
    <path
        d="M0 0 C2.31 0 4.62 0 7 0 C4.48169253 3.12270126 3.2738451 3.94523098 -0.75 4.75 C-2.35875 4.87375 -2.35875 4.87375 -4 5 C-3.34 4.01 -2.68 3.02 -2 2 C-1.34 2 -0.68 2 0 2 C0 1.34 0 0.68 0 0 Z "
        fill="#25BA9E"
        transform="translate(163,89)"
    />
    <path
        d="M0 0 C1.98 0.66 3.96 1.32 6 2 C6 2.66 6 3.32 6 4 C7.32 4.33 8.64 4.66 10 5 C8.4375 5.75 8.4375 5.75 6 6 C3.49713591 4.86915563 1.32992278 3.47860484 -1 2 C-0.67 1.34 -0.34 0.68 0 0 Z "
        fill="#22ACB3"
        transform="translate(226,217)"
    />
    <path
        d="M0 0 C0.66 0.99 1.32 1.98 2 3 C-0.31 5.31 -2.62 7.62 -5 10 C-5.33 9.34 -5.66 8.68 -6 8 C-4.02 5.36 -2.04 2.72 0 0 Z "
        fill="#28C3E5"
        transform="translate(154,215)"
    />
    <path
        d="M0 0 C1.58409994 0.11487748 3.16728963 0.24234508 4.75 0.375 C6.07257813 0.47941406 6.07257813 0.47941406 7.421875 0.5859375 C9.99066382 0.99850055 11.75841015 1.71160957 14 3 C14 3.33 14 3.66 14 4 C9.02906176 3.58846263 4.55491614 3.20399168 0 1 C0 0.67 0 0.34 0 0 Z "
        fill="#1D92A0"
        transform="translate(176,182)"
    />
    <path
        d="M0 0 C0.99 0.495 0.99 0.495 2 1 C2 1.66 2 2.32 2 3 C2.66 3 3.32 3 4 3 C4.99 5.97 5.98 8.94 7 12 C5.68 11.34 4.36 10.68 3 10 C3 8.68 3 7.36 3 6 C2.34 6 1.68 6 1 6 C0.67 4.02 0.34 2.04 0 0 Z "
        fill="#2599A1"
        transform="translate(143,148)"
    />
    <path
        d="M0 0 C4.99275057 1.27721526 7.57611908 3.17330957 11 7 C10.01 7 9.02 7 8 7 C8 6.34 8 5.68 8 5 C6.8553125 4.814375 6.8553125 4.814375 5.6875 4.625 C3 4 3 4 0 2 C0 1.34 0 0.68 0 0 Z "
        fill="#175862"
        transform="translate(255,227)"
    />
    <path
        d="M0 0 C5.42283298 2.04862579 5.42283298 2.04862579 7.06640625 4.7578125 C7.78619798 6.47557634 8.4010608 8.23645681 9 10 C5.75161077 8.91720359 4.95717417 8.10963155 2.8125 5.5625 C2.01779297 4.63630859 2.01779297 4.63630859 1.20703125 3.69140625 C0 2 0 2 0 0 Z "
        fill="#186066"
        transform="translate(146,158)"
    />
    <path
        d="M0 0 C5.625 -0.25 5.625 -0.25 9 2 C9 2.99 9 3.98 9 5 C5.22454612 3.90931332 2.52956528 3.0916909 0 0 Z "
        fill="#1D8796"
        transform="translate(167,177)"
    />
    <path
        d="M0 0 C0.66 0 1.32 0 2 0 C1.34 1.98 0.68 3.96 0 6 C-0.66 6 -1.32 6 -2 6 C-2.33 7.65 -2.66 9.3 -3 11 C-4.0326802 8.21176345 -4.04509293 7.1322726 -3.0625 4.25 C-2.711875 3.5075 -2.36125 2.765 -2 2 C-1.34 2 -0.68 2 0 2 C0 1.34 0 0.68 0 0 Z "
        fill="#26BAA4"
        transform="translate(146,108)"
    />
    <path
        d="M0 0 C0.33 0.99 0.66 1.98 1 3 C-1.15859924 6.83750975 -3.28595371 9.61239881 -7 12 C-4.97435578 7.79289278 -2.5887676 3.8831514 0 0 Z "
        fill="#28C7CD"
        transform="translate(250,155)"
    />
    <path
        d="M0 0 C3.57416264 0.49641148 6.69252492 1.58251068 10 3 C10 3.33 10 3.66 10 4 C8.741875 3.87625 7.48375 3.7525 6.1875 3.625 C5.12595703 3.52058594 5.12595703 3.52058594 4.04296875 3.4140625 C2 3 2 3 -1 1 C-0.67 0.67 -0.34 0.34 0 0 Z "
        fill="#19706F"
        transform="translate(245,223)"
    />
    <path
        d="M0 0 C0.66 0.33 1.32 0.66 2 1 C2 1.99 2 2.98 2 4 C0.35 4 -1.3 4 -3 4 C-3 4.66 -3 5.32 -3 6 C-3.99 5.67 -4.98 5.34 -6 5 C-4.02 3.35 -2.04 1.7 0 0 Z "
        fill="#26B1BA"
        transform="translate(237,173)"
    />
    <path
        d="M0 0 C0.66 0.66 1.32 1.32 2 2 C0.02 4.31 -1.96 6.62 -4 9 C-4.66 8.67 -5.32 8.34 -6 8 C-4.02 5.36 -2.04 2.72 0 0 Z "
        fill="#27ACD5"
        transform="translate(146,225)"
    />
</svg>
