<svg width="48" height="48" viewBox="0 0 48 48" fill="none" xmlns="http://www.w3.org/2000/svg">
    <path
        d="M24.0032 4.00045C20.0478 3.99965 16.1808 5.17206 12.8905 7.36967C9.60204 9.56601 7.0382 12.6895 5.52331 16.3449C4.00904 19.9991 3.61252 24.0211 4.38403 27.9012C5.15612 31.7818 7.06107 35.3458 9.85766 38.1419C12.6559 40.9397 16.2196 42.8445 20.0986 43.6158C23.9785 44.3875 27.9999 43.9912 31.6551 42.477C35.3086 40.9635 38.4319 38.3995 40.6302 35.1093C43.2003 31.2628 44.3573 26.6426 43.9036 22.0372C43.45 17.4319 41.4139 13.1269 38.1428 9.8571C34.3909 6.10628 29.3054 4.00013 24.0032 4.00045ZM24.0032 39.6321C20.0494 39.6359 16.2412 38.1392 13.346 35.4436C10.4525 32.7504 8.68848 29.0577 8.41055 25.1122C8.13261 21.1666 9.36152 17.2627 11.8488 14.1895C14.3378 11.1147 17.8987 9.09898 21.8136 8.54869V18.1089C20.4293 18.6222 19.2693 19.6062 18.5363 20.8891C17.8034 22.1713 17.5448 23.6709 17.8057 25.125C18.0667 26.579 18.8306 27.8947 19.9635 28.8413C21.0967 29.7892 22.5265 30.3085 24.0032 30.3085C25.4799 30.3085 26.9096 29.7892 28.0429 28.8413C29.1756 27.8947 29.9395 26.5791 30.2004 25.1252C30.4613 23.6712 30.2028 22.1717 29.47 20.8895C28.7369 19.6066 27.5767 18.6226 26.1923 18.1094V8.53421C30.1071 9.0845 33.6681 11.1002 36.1571 14.1751C38.6444 17.2482 39.8733 21.1522 39.5953 25.0977C39.3174 29.0432 37.5534 32.7359 34.6599 35.4291C31.7646 38.1245 27.9564 39.6211 24.0027 39.6172V39.6317L24.0032 39.6321Z"
        fill="#4BFF00" />
</svg>