<svg
    width="20"
    height="21"
    viewBox="0 0 20 21"
    fill="none"
    xmlns="http://www.w3.org/2000/svg"
>
    <g clipPath="#fbtc-clip-path">
        <circle cx="10" cy="10.96" r="10" fill="white" />
        <path
            fillRule="evenodd"
            clipRule="evenodd"
            d="M13.5499 9.86849C13.5499 11.8778 11.953 13.5067 9.98273 13.5067C8.01249 13.5067 6.41602 11.8778 6.41602 9.86849C6.41602 6.78629 9.89474 2.95996 9.98273 2.95996C10.0707 2.95996 13.5499 6.78629 13.5499 9.86849ZM12.1068 9.86897C12.1068 11.0653 11.1559 12.0354 9.98273 12.0354C8.80957 12.0354 7.85873 11.0653 7.85873 9.86897C7.85873 8.67257 8.79197 7.72047 9.94984 7.70255V9.93546C9.94984 9.93546 11.2958 9.38559 11.953 9.05691C12.0526 9.30779 12.1072 9.58177 12.1072 9.86849L12.1068 9.86897Z"
            fill="currentcolor"
        />
        <path
            d="M9.18191 15.6546L14.9593 15.0237C15.0264 15.6674 15.0107 16.3196 14.9111 16.96L9.15784 16.5964C9.20646 16.2842 9.2148 15.9678 9.18146 15.6546H9.18191Z"
            fill="currentcolor"
        />
        <path
            d="M10.6967 13.9344L5 15.1006C5.12503 15.7354 5.33207 16.3527 5.61506 16.9327L10.9964 14.8252C10.8584 14.5423 10.7574 14.2428 10.6967 13.934V13.9344Z"
            fill="currentcolor"
        />
    </g>
    <defs>
        <clipPath id="fbtc-clip-path">
            <rect
                width="20"
                height="20"
                fill="white"
                transform="translate(0 0.959961)"
            />
        </clipPath>
    </defs>
</svg>
