<svg width="28" height="28" viewBox="0 0 28 28" fill="none" xmlns="http://www.w3.org/2000/svg">
<rect x="0.5" y="0.5" width="27" height="27" rx="13.5" stroke="#718096"/>
<path d="M9.03999 14.0241C9.11999 14.0717 9.16999 14.1289 9.17999 14.1384V14.8146L9.14999 20.0908C8.53999 19.767 7.90999 19.4622 7.31999 19.1289C6.14999 18.4717 6.40999 18.8337 6.38999 17.1479C6.36999 15.6622 6.39999 14.1765 6.38999 12.6908C7.25999 13.1575 8.16999 13.567 9.04999 14.0241H9.03999Z" fill="#448BAD"/>
<path d="M21.86 13.6813V18.5194C21.8 18.6622 21.71 18.7098 21.6 18.786C21.41 18.9098 19.67 19.7956 19.18 20.0622C19.13 19.4051 19.15 18.7384 19.15 18.0813C19.15 16.9765 19.12 15.8813 19.12 14.7575C19.12 14.7575 19.11 14.7575 19.15 14.7289C20.02 14.2717 20.9 13.8051 21.77 13.3384C21.88 13.4146 21.8 13.567 21.87 13.6813H21.86Z" fill="url(#paint0_linear_1207_1721)"/>
<path d="M19.11 14.7765L19.14 17.4337V18.0813C19.14 18.7384 19.12 19.4051 19.17 20.0622C18.65 20.348 18.08 20.6908 17.55 20.9575C17.52 20.2051 17.52 19.4432 17.52 18.6908C17.52 17.6527 17.52 16.6241 17.52 15.5765C17.6 15.4432 18.89 14.8622 19.11 14.748V14.7861V14.7765Z" fill="url(#paint1_linear_1207_1721)"/>
<path d="M21.86 12.7099V13.6718C21.79 13.567 21.87 13.4051 21.76 13.3289C20.89 13.7956 20.02 14.2623 19.14 14.7194L19.11 14.0908C19.33 13.9765 19.37 13.9289 19.38 13.9194C20.19 13.5003 21.02 13.1003 21.84 12.7003L21.86 12.7099Z" fill="#645DC2"/>
<path d="M17.56 15.5765C17.52 16.6051 17.53 17.6337 17.53 18.6717C17.53 19.4241 17.58 20.1956 17.56 20.9575C17.52 21.0146 17.48 20.9956 17.48 21.0051C17.48 19.2146 17.45 17.4337 17.45 15.6432C17.45 15.567 17.48 15.586 17.48 15.586H17.56V15.5765Z" fill="#A45FF2"/>
<path d="M17.61 18.6718H17.53C17.53 17.6432 17.52 16.6051 17.56 15.5765L17.59 15.5479C17.64 16.586 17.61 17.6337 17.62 18.6718H17.61Z" fill="#F1E5FA"/>
<path d="M10.71 14.9289V15.5575C10.51 15.4432 9.41 14.9289 9.35 14.8813C9.3 14.8241 9.35 14.4051 9.28 14.786L9.17 14.8337V14.1575C9.68 14.4241 10.19 14.6908 10.7 14.9479L10.71 14.9289Z" fill="#9F51D9"/>
<path d="M19.15 14.7289L19.12 14.7575C19.08 14.7765 19.05 14.7956 19.01 14.8146C18.79 14.9289 17.67 15.4146 17.59 15.548L17.56 15.5765H17.48C17.48 15.3765 17.42 15.1575 17.45 14.948C17.53 14.9099 17.61 14.8527 17.7 14.8051C17.71 14.8051 17.79 14.8051 17.89 14.748L17.94 14.6908C18.33 14.4908 18.73 14.3003 19.12 14.0908L19.15 14.7194V14.7289Z" fill="#B38BD6"/>
<path d="M10.71 15.548C10.76 15.5765 10.79 15.6527 10.87 15.6337C10.93 17.4241 10.82 19.2337 10.87 21.0241C10.84 20.9956 10.78 20.9956 10.76 20.9575L10.69 20.9384C10.17 20.6527 9.66 20.367 9.14 20.0908L9.17 14.8146L9.28 14.767C9.34 14.3861 9.29 14.8146 9.35 14.8622C9.4 14.9194 10.51 15.4337 10.71 15.5384V15.548Z" fill="#A45FF2"/>
<path d="M10.75 15.6908C10.82 16.4813 10.8 17.567 10.79 18.4813C10.79 19.7289 10.75 19.8813 10.74 18.5384C10.74 17.5956 10.74 16.6432 10.74 15.7003V15.6813H10.75V15.6908Z" fill="#E4CAFA"/>
<path d="M10.77 14.9289C10.94 15.0337 10.87 15.2813 10.88 15.6337C10.8 15.6527 10.77 15.5765 10.72 15.5479V14.9194C10.72 14.9194 10.76 14.9194 10.77 14.9194V14.9289Z" fill="#A775D1"/>
<path d="M16.98 6.1289C16.88 6.10032 16.81 6.06223 16.71 6.04318C16.69 5.90985 16.27 6.02413 16.09 6.10032C15.88 6.18604 15.55 6.47175 15.42 6.67175C15.02 6.7289 14.86 6.8908 14.83 6.90032C14.57 6.98604 14.25 7.00509 14.01 7.10032L13.93 6.90032C13.67 6.90032 13.21 6.54794 13.07 6.7289C12.98 6.59556 12.65 6.27175 12.51 6.18604C12.27 6.04318 11.7 5.8908 11.76 6.04318C11.65 6.0527 11.58 6.10032 11.49 6.1289C12.01 5.62413 13.13 5.5289 13.78 5.16699C13.98 5.11937 14.23 5.08128 14.44 5.10985C14.56 5.1289 16.67 5.86223 16.82 5.95747C16.91 6.01461 16.94 6.07175 17 6.1289H16.98Z" fill="#D4A4F7"/>
<path d="M16.71 6.04318C16.82 6.06223 16.89 6.10033 16.98 6.1289C17.17 6.30985 17.25 6.38604 17.25 6.70033C17.1 6.70033 16.88 6.76699 16.73 6.81461C16.49 6.8908 16.34 6.96699 16.13 7.10033C15.85 7.28128 15.62 7.4908 15.45 7.77652C15.41 7.84318 15.41 7.86223 15.4 7.8908C15.29 8.10033 15.19 8.28128 15.21 8.54794C15.21 8.54794 15.14 8.54794 15.07 8.54794C15.07 8.38604 15.05 8.20509 15.07 8.03366C15.16 7.14794 15.84 5.9289 16.71 6.05271V6.04318Z" fill="#6A1DD4"/>
<path d="M17.26 6.70032C17.26 6.70032 17.28 6.75746 17.3 6.75746C17.48 6.75746 17.63 6.73841 17.81 6.78603C17.75 6.89079 17.6 6.8146 17.59 6.83365C17.58 6.8527 17.65 7.20508 17.64 7.26222C17.64 7.43365 17.48 7.6527 17.64 7.74794C17.5 8.10984 17.66 7.94794 17.67 8.17651C17.67 8.44317 17.25 8.4527 17.78 8.6146C17.78 8.68127 17.8 8.75746 17.75 8.75746C17.33 8.50032 16.92 8.49079 16.46 8.55746L16.41 8.4146C16.53 8.39556 16.66 8.39556 16.78 8.38603C16.88 8.02413 16.75 7.6146 16.79 7.14794C16.79 7.04317 17.02 6.86222 16.74 6.82413C16.89 6.77651 17.11 6.70984 17.26 6.70984V6.70032Z" fill="#D3B8F6"/>
<path d="M13.09 7.04319C13.24 7.49081 13.13 7.3289 12.93 7.67176C12.85 7.55747 12.66 7.39557 12.55 7.30033C12.39 7.15747 12.22 7.02414 12.03 6.9289C11.98 6.90033 11.92 6.89081 11.87 6.87176C11.82 6.85271 11.78 6.83366 11.73 6.81462C11.58 6.767 11.37 6.70985 11.21 6.70033C11.21 6.37652 11.3 6.31938 11.48 6.1289C11.58 6.10033 11.65 6.05271 11.75 6.04319C12.34 5.967 12.84 6.54795 13.09 7.03366V7.04319Z" fill="#6A1DD4"/>
<path d="M10.63 8.59559C10.63 8.64321 10.62 8.69083 10.68 8.70988C10.52 8.79559 10.38 8.90988 10.3 9.08131C10.14 9.38607 10.11 9.70035 10.44 9.89083C10.25 9.97654 10.7 10.0527 10.8 10.1861C9.86 9.77654 9.98 9.52892 9.95 8.25273C9.95 8.10035 9.92 8.01464 9.92 7.96702C9.92 7.47178 9.87 7.04321 10.52 6.80511C10.52 6.84321 10.57 6.82416 10.57 6.85273C10.59 6.93845 10.59 8.07178 10.62 8.59559H10.63Z" fill="#A45FF2"/>
<path d="M18.49 8.06226C18.48 8.43369 18.36 9.06226 18.38 9.49083C18.31 9.7194 18.23 9.77654 18.22 9.78607C18.13 9.73845 18.25 9.66226 18.22 9.41464C18.19 9.12892 17.98 8.87178 17.75 8.73845C17.8 8.73845 17.77 8.66226 17.78 8.59559C17.86 8.00511 17.78 7.36702 17.89 6.80511C18.54 7.02416 18.51 7.45273 18.49 8.05273V8.06226Z" fill="#A45FF2"/>
<path d="M11.72 6.8146C11.5 6.95746 11.66 6.79556 11.49 6.8146C11.3 6.83365 11.49 7.34794 11.34 7.8527C11.47 7.83365 11.39 8.2527 11.34 8.30984C11.28 8.38603 10.97 8.4527 10.87 8.49079C11.02 7.82413 10.9 7.70032 10.9 7.6527C10.92 7.26222 11.19 6.71937 10.63 6.78603C10.74 6.75746 11.11 6.70032 11.2 6.70032C11.36 6.70032 11.57 6.76698 11.72 6.8146Z" fill="#DECEF7"/>
<path d="M10.63 6.78606C11.2 6.71939 10.92 7.26225 10.9 7.65272C10.9 7.70034 11.02 7.82415 10.87 8.49082C10.79 8.51939 10.71 8.59558 10.62 8.6051C10.58 8.08129 10.58 6.94796 10.57 6.86225C10.57 6.8432 10.51 6.86225 10.52 6.81463C10.55 6.8051 10.6 6.79558 10.63 6.78606Z" fill="#C59CF6"/>
<path d="M17.89 6.81461C17.78 7.37652 17.86 8.01462 17.78 8.60509C17.25 8.43366 17.68 8.43366 17.67 8.167C17.67 7.94795 17.5 8.10985 17.64 7.73842C17.48 7.64319 17.64 7.42414 17.64 7.25271C17.64 7.19557 17.57 6.84319 17.59 6.82414C17.59 6.81461 17.75 6.88128 17.81 6.77652C17.85 6.78604 17.86 6.79557 17.89 6.80509V6.81461Z" fill="#C59CF6"/>
<path d="M18.21 9.42413C18.24 9.67175 18.12 9.74794 18.21 9.79556C18 10.1098 17.66 10.2718 17.33 10.4241H17.3C17.09 10.2051 16.82 10.3384 16.83 10.2241C17.04 10.2337 17.59 10.2146 17.75 10.1098C17.93 9.99556 17.23 10.186 17.18 10.1956C16.82 10.2241 16.54 10.1289 16.21 10.0527C15.95 9.99556 15.98 9.96699 15.96 9.96699C16.5 9.30985 17.46 9.57651 18.21 9.42413Z" fill="#A056E8"/>
<path d="M15.42 6.67175C15.35 6.77651 15.15 7.17651 15.12 7.30032C14.97 7.3289 14.94 7.24318 14.83 7.15747C13.74 7.73842 14.04 6.83366 13.23 7.07175C13.2 6.99556 13.1 6.78604 13.07 6.7289C13.21 6.53842 13.67 6.90032 13.93 6.90032L14.01 7.10032C14.25 7.00509 14.57 6.98604 14.83 6.90032C14.86 6.8908 15.02 6.7289 15.42 6.67175Z" fill="#D4A4F7"/>
<path d="M16.71 6.04319C15.84 5.91938 15.15 7.13843 15.07 8.02414C14.99 8.08129 15.02 7.99557 15.02 7.99557C15.05 7.83367 15.07 7.67176 15.1 7.50986C15.11 7.45272 15.11 7.32891 15.13 7.28129C15.16 7.15748 15.36 6.767 15.43 6.65272C15.56 6.46224 15.89 6.17653 16.1 6.08129C16.28 6.0051 16.7 5.89081 16.72 6.02414L16.71 6.04319Z" fill="#E8BEF9"/>
<path d="M13.07 6.7289C13.11 6.78604 13.2 6.98604 13.23 7.07175C13.31 7.27175 13.38 7.45271 13.39 7.67175C13.39 7.70985 13.39 7.75747 13.36 7.75747C13.31 7.51937 13.19 7.26223 13.09 7.05271C12.84 6.56699 12.33 5.98604 11.75 6.06223C11.69 5.90985 12.26 6.06223 12.5 6.20509C12.64 6.28128 12.97 6.60509 13.06 6.74795L13.07 6.7289Z" fill="#E8BEF9"/>
<path d="M15.2 8.54794C15.66 8.63366 15.54 9.56699 15.53 9.93842C15.53 10.0241 15.51 10.1098 15.5 10.1956C14.65 10.2527 13.77 10.1384 12.9 10.2527C12.88 10.1575 12.88 10.0622 12.87 9.96699C12.86 9.76699 12.86 9.00509 12.9 8.86223C12.96 8.66223 13.08 8.60509 13.26 8.57651C13.31 8.57651 13.37 8.57651 13.42 8.57651C13.55 8.56699 14.98 8.54794 15.06 8.54794C15.13 8.54794 15.19 8.54794 15.2 8.54794Z" fill="#BD91E8"/>
<path d="M15.61 8.65272C15.3 8.92891 15.86 8.67176 15.92 8.65272C16.09 8.6051 16.28 8.567 16.45 8.53843C16.91 8.47176 17.32 8.48129 17.74 8.73843C17.97 8.88129 18.18 9.13843 18.21 9.41462C17.46 9.55748 16.5 9.29081 15.96 9.95748C15.71 9.90986 15.97 10.1384 15.52 9.92891C15.53 9.55748 15.65 8.62414 15.19 8.53843C15.17 8.27176 15.28 8.10033 15.38 7.88129C15.5 8.15748 15.52 8.37652 15.6 8.64319L15.61 8.65272Z" fill="#9F51D9"/>
<path d="M15.07 8.03367C15.05 8.19557 15.07 8.37653 15.07 8.54795C14.99 8.54795 13.56 8.567 13.43 8.57653V8.34795C13.55 8.30986 13.44 8.08129 13.47 8.06224C13.98 8.08129 14.51 7.98605 15.02 8.0051C15.02 8.0051 15 8.09081 15.07 8.03367Z" fill="#9F51D9"/>
<path d="M16.74 6.81461C17.02 6.86222 16.8 7.03365 16.79 7.13842C16.75 7.59556 16.88 8.00508 16.78 8.37651C16.66 8.37651 16.53 8.39556 16.41 8.40508C16.37 8.40508 16.23 8.48127 16.22 8.4527C16.38 8.03365 16.18 7.56699 16.36 7.14794C16.29 7.03365 16.19 7.24318 16.14 7.10032C16.35 6.96699 16.51 6.8908 16.74 6.81461Z" fill="#C59CF6"/>
<path d="M16.41 8.40507L16.46 8.54793C16.29 8.5765 16.09 8.61459 15.93 8.66221C15.87 8.68126 15.3 8.9384 15.62 8.66221C15.63 8.65269 15.82 8.64317 15.92 8.45269C15.82 7.5384 16.14 7.14793 15.45 7.78602C15.63 7.49079 15.86 7.28126 16.13 7.10983C16.18 7.25269 16.28 7.04317 16.35 7.15745C16.17 7.5765 16.37 8.04317 16.21 8.46221C16.22 8.49079 16.36 8.42412 16.4 8.41459L16.41 8.40507Z" fill="#A45FF2"/>
<path d="M15.61 8.65271C15.53 8.38604 15.51 8.167 15.39 7.89081C15.4 7.86223 15.41 7.84319 15.44 7.77652C16.12 7.13842 15.81 7.5289 15.91 8.44319C15.81 8.63366 15.62 8.64319 15.61 8.65271Z" fill="#A056E8"/>
<path d="M12.93 7.66223C13.02 7.78604 12.95 7.81461 12.96 7.81461C12.98 7.84318 13.03 7.81461 13.04 7.84318C13.16 8.07175 13.22 8.30985 13.26 8.56699C13.08 8.59556 12.96 8.65271 12.9 8.85271C12.7 8.74794 12.49 8.68128 12.27 8.62414C12.34 8.48128 12.3 8.4908 12.3 8.48128C12.32 8.31937 12.3 8.22414 12.3 8.07175C12.51 7.87175 12.35 7.50985 12.55 7.2908C12.66 7.38604 12.85 7.54794 12.93 7.66223Z" fill="#A056E8"/>
<path d="M11.72 6.81463C11.77 6.83368 11.81 6.85273 11.86 6.87178C11.62 6.94797 11.76 7.26225 11.75 7.4813C11.75 7.4813 11.7 7.4813 11.7 7.65273C11.7 7.66225 11.76 7.76701 11.75 7.85273C11.75 7.87178 11.69 7.8432 11.7 8.10987C11.7 8.12892 11.75 8.10035 11.75 8.16701C11.75 8.17654 11.66 8.21463 11.7 8.36701C11.7 8.37654 11.81 8.40511 11.75 8.51939C11.38 8.49082 11.01 8.53844 10.68 8.71939C10.61 8.70035 10.63 8.66225 10.63 8.60511C10.72 8.59559 10.79 8.51939 10.88 8.49082C10.98 8.45273 11.28 8.38606 11.35 8.30987C11.4 8.25273 11.48 7.83368 11.35 7.85273C11.51 7.35749 11.31 6.8432 11.5 6.81463C11.67 6.79559 11.5 6.95749 11.73 6.81463H11.72Z" fill="#D3B8F6"/>
<path d="M12.55 7.29083C12.36 7.50988 12.51 7.87178 12.3 8.07178C12.3 8.23369 12.32 8.3194 12.3 8.48131L11.89 8.38607C12 7.97654 11.91 7.5575 11.89 7.13845L12.03 6.92892C12.22 7.02416 12.39 7.1575 12.55 7.30035V7.29083Z" fill="#BD91E8"/>
<path d="M12.03 6.92891L11.89 7.13843C11.91 7.55748 12 7.97653 11.89 8.38605L12.3 8.48129C12.3 8.48129 12.34 8.48129 12.27 8.62415C12.09 8.57653 11.94 8.52891 11.75 8.50986C11.8 8.38605 11.7 8.36701 11.7 8.35748C11.67 8.2051 11.76 8.16701 11.75 8.15748C11.75 8.09082 11.7 8.12891 11.7 8.10034C11.7 7.83367 11.75 7.86224 11.75 7.8432C11.75 7.75748 11.69 7.65272 11.7 7.6432C11.7 7.47177 11.75 7.48129 11.75 7.47177C11.76 7.25272 11.62 6.93843 11.86 6.86224C11.91 6.88129 11.97 6.89082 12.02 6.91939L12.03 6.92891Z" fill="#D4A4F7"/>
<path d="M13.37 7.74794C13.4 7.90033 13.42 8.18604 13.42 8.34794V8.57652C13.37 8.57652 13.31 8.57652 13.26 8.57652C13.22 8.31937 13.16 8.08128 13.04 7.85271C13.03 7.82413 12.98 7.85271 12.96 7.82413C12.96 7.82413 13.02 7.79556 12.93 7.67175C13.14 7.3289 13.25 7.50033 13.09 7.04318C13.2 7.25271 13.32 7.51937 13.36 7.74794H13.37Z" fill="#6A1DD4"/>
<path d="M11.75 8.51938C11.94 8.53843 12.09 8.58605 12.27 8.63367C12.49 8.69081 12.7 8.75748 12.9 8.86224C12.86 9.0051 12.86 9.77653 12.87 9.967C12.46 10.1289 12.69 9.567 12.77 9.93843C12.99 9.367 12.72 9.59557 12.66 9.53843C12.52 9.4051 12.6 9.03367 11.67 9.28129C11.87 8.71938 10.83 9.51938 10.29 9.08129C10.38 8.91938 10.52 8.79558 10.67 8.70986C11 8.52891 11.37 8.48129 11.74 8.50986L11.75 8.51938Z" fill="#9F51D9"/>
<path d="M16.85 10.2146C16.6 10.1956 16.16 10.1479 16.22 10.0432C16.55 10.1194 16.84 10.2146 17.19 10.186C17.25 10.186 17.95 9.98604 17.76 10.1003C17.6 10.2051 17.05 10.2241 16.84 10.2146H16.85Z" fill="#BD91E8"/>
<path d="M15.12 7.29079C15.11 7.33841 15.1 7.46222 15.09 7.51936C14.96 7.44317 14.74 7.50031 14.67 7.63365C14.5 7.6146 14.38 7.66222 14.23 7.74793C14.14 7.75746 13.67 7.49079 13.39 7.66222C13.37 7.44317 13.31 7.26222 13.23 7.06222C14.04 6.82412 13.74 7.72889 14.83 7.14793C14.94 7.23365 14.96 7.31936 15.12 7.29079Z" fill="#BD91E8"/>
<path d="M15.09 7.51939C15.06 7.68129 15.04 7.8432 15.01 8.0051C14.51 7.98605 13.97 8.08129 13.46 8.06224C13.43 8.08129 13.54 8.30986 13.42 8.34796C13.42 8.19558 13.39 7.90034 13.37 7.74796C13.41 7.74796 13.4 7.70034 13.4 7.66224C13.68 7.49081 14.15 7.75748 14.24 7.74796C14.39 7.66224 14.5 7.61462 14.68 7.63367C14.76 7.50034 14.98 7.4432 15.1 7.51939H15.09Z" fill="#AF6AE0"/>
<path d="M15.5 10.186C15.5 10.186 15.56 10.2051 15.55 10.2527C15.41 10.7003 15.03 10.5956 15.13 10.7765L14.98 10.8051C14.91 10.767 14.79 10.8051 14.83 10.6622C14.42 10.9194 14.72 10.6051 14.71 10.5956C14.69 10.567 14.63 10.586 14.6 10.5765C14.23 10.5384 13.55 10.6051 13.12 10.5765C13.1 10.5575 13.04 10.5289 13.04 10.5194C12.88 10.3289 12.92 10.3289 12.9 10.2337C13.77 10.1194 14.65 10.2337 15.5 10.1765V10.186Z" fill="#9F51D9"/>
<path d="M12.87 9.95746C12.87 10.0527 12.87 10.1479 12.9 10.2432C12.92 10.3384 12.88 10.3384 13.04 10.5289C12.94 10.6527 12.91 10.6908 12.79 10.5479C12.66 10.3765 12.77 10.2051 12.6 10.0241C12.58 10.0051 12.57 9.93842 12.56 9.93842C12.52 9.93842 12.09 10.1194 11.82 10.167C11.55 10.2146 10.86 10.186 11.25 10.2527C11.3 10.2622 11.42 10.2527 11.48 10.2527C11.41 10.3289 11.3 10.3575 11.21 10.3956C11.2 10.3956 11.17 10.3956 11.16 10.3956C11.18 10.2813 10.9 10.2432 10.8 10.1956C10.71 10.0622 10.26 9.98604 10.44 9.90032C10.12 9.70985 10.14 9.39556 10.3 9.0908C10.84 9.52889 11.88 8.72889 11.68 9.2908C12.61 9.04318 12.53 9.41461 12.67 9.54794C12.73 9.60508 13 9.37651 12.78 9.94794C12.7 9.57651 12.46 10.1384 12.88 9.97651L12.87 9.95746Z" fill="#A056E8"/>
<path d="M12.6 10.0146C12.22 10.0718 11.87 10.2337 11.48 10.2432C11.41 10.2432 11.3 10.2527 11.25 10.2432C10.87 10.1765 11.55 10.2051 11.82 10.1575C12.09 10.1098 12.52 9.92889 12.56 9.92889C12.57 9.92889 12.58 9.99556 12.6 10.0146Z" fill="#BD91E8"/>
<path d="M10.86 10.1289C10.86 10.1289 11.04 10.148 11.05 10.1575C11.14 10.2622 10.8 10.1575 10.86 10.1289Z" fill="#BD91E8"/>
<path d="M17.17 15.748L17.2 21.1384C16.88 21.3384 14.45 22.6718 14.3 22.7289C14.31 20.9003 14.26 19.0622 14.27 17.2241V17.1956C15.26 16.7765 16.2 16.2241 17.17 15.748Z" fill="url(#paint2_linear_1207_1721)"/>
<path d="M14.11 17.1098C14.11 17.1956 14.14 17.2051 14.14 17.2241C14.09 19.0813 14.12 20.9289 14.11 22.786H14.08C13.29 22.3098 12.45 21.9098 11.64 21.4527C11.67 21.3289 11.3 21.2146 11.28 21.186C11.18 20.9479 11.38 16.5956 11.28 15.9384L11.4 15.9194C12.24 16.367 13.09 16.7956 13.95 17.1956L14.1 17.1098H14.11Z" fill="#448BAD"/>
<path d="M17.45 15.6337C17.45 17.4242 17.48 19.2051 17.48 20.9956C17.38 21.0908 17.23 21.1194 17.21 21.1384L17.18 15.748C17.18 15.748 17.17 15.7384 17.21 15.7194C17.29 15.6813 17.36 15.6242 17.46 15.6337H17.45Z" fill="#4B4EAE"/>
<path d="M14.27 17.2242C14.25 19.0622 14.31 20.8908 14.3 22.7289C14.24 22.748 14.18 22.7956 14.11 22.7861C14.11 20.9289 14.09 19.0813 14.14 17.2242H14.28H14.27Z" fill="#8288CE"/>
<path d="M17.2 15.7194L17.17 15.7479C16.2 16.2241 15.26 16.7765 14.27 17.1956C14.27 17.0432 14.26 16.6908 14.27 16.6241C14.28 16.5765 14.34 16.6146 14.32 16.5384C14.4 16.5194 14.37 16.5098 14.37 16.5098C14.63 16.4337 16.66 15.3289 17.19 15.0622V15.7194H17.2Z" fill="#4B4EAE"/>
<path d="M14.27 16.6337C14.26 16.7003 14.27 17.0432 14.27 17.2051V17.2337H14.13C14.13 17.2337 14.1 17.2051 14.1 17.1194C14.11 16.7194 14.03 16.586 14.26 16.6337H14.27Z" fill="#696FB8"/>
<path d="M14.13 16.5765C14.28 16.586 14.3 16.5575 14.32 16.5479C14.34 16.6241 14.28 16.586 14.27 16.6337C14.03 16.586 14.12 16.7098 14.11 17.1194L13.96 17.2051C13.11 16.8051 12.25 16.3765 11.41 15.9289L11.29 15.9479C11.39 16.6146 11.19 20.9575 11.29 21.1956C11.3 21.2337 11.68 21.3384 11.65 21.4622C11.47 21.367 10.97 21.1098 10.88 21.0337C10.83 19.2432 10.94 17.4337 10.88 15.6432C10.87 15.2908 10.95 15.0432 10.77 14.9384C11.2 15.1575 13.84 16.5479 14.02 16.586C14.05 16.586 14.1 16.586 14.14 16.586L14.13 16.5765Z" fill="#448BAD"/>
<path d="M17.45 14.9575C17.42 15.167 17.48 15.3765 17.48 15.5861C17.48 15.5861 17.45 15.567 17.45 15.6432C17.35 15.6242 17.28 15.6908 17.2 15.7289V15.0718C17.28 15.0337 17.37 14.9956 17.45 14.9575Z" fill="#4B4EAE"/>
<path d="M10.85 12.4337L14.11 14.0337L14.14 16.5765C14.14 16.5765 14.05 16.5765 14.02 16.5765C13.84 16.5384 11.21 15.148 10.77 14.9289C10.81 14.386 10.72 12.8146 10.77 12.5289C10.79 12.4051 10.85 12.4337 10.85 12.4337Z" fill="#5053BF"/>
<path d="M14.98 10.8146C15.1 10.8813 15.22 10.9289 15.34 10.986C15.7 11.167 16.07 11.367 16.44 11.5575C16.66 11.6717 17.73 12.1765 17.81 12.3003C17.66 12.2813 17.71 12.3289 17.7 12.4432C17.66 12.4432 17.68 12.3956 17.67 12.386C17.6 12.2432 17.51 12.2813 17.51 12.2717C17.25 12.1098 15.22 11.0622 15.09 11.0527C14.56 11.1479 14.01 11.1194 13.47 11.0813L11.05 12.3289C11.05 12.3289 10.99 12.3289 10.97 12.3289L10.89 12.2432C11.61 11.8908 12.35 11.5479 13.05 11.167C13.1 11.1384 13.2 11.1194 13.19 11.0527C13.23 11.0527 13.21 11.0908 13.23 11.1098C13.38 11.0051 13.56 10.9479 13.71 10.8527C13.69 11.0813 14.06 10.7575 14.13 10.7384C14.26 10.7003 14.65 10.8146 14.61 10.5956C14.64 10.5956 14.7 10.586 14.72 10.6051C14.73 10.6241 14.43 10.9384 14.84 10.6717C14.8 10.8146 14.92 10.7765 14.99 10.8146H14.98Z" fill="#6F57C9"/>
<path d="M11.04 12.3194C11.11 12.3289 11.58 12.6527 11.66 12.6908C11.75 12.7384 12.02 12.7384 12.18 12.9479C12.57 13.1098 12.96 13.2717 13.36 13.4622C13.39 13.4717 13.36 13.5384 13.39 13.5479C13.43 13.567 13.65 13.5956 13.66 13.6051C13.7 13.6241 13.99 13.8432 14.22 13.8908C14.24 13.9384 14.27 14.0051 14.27 14.0622C14.31 14.4527 14.21 16.4051 14.27 16.5194C14.29 16.5479 14.4 16.4241 14.38 16.5384C14.38 16.5384 14.4 16.5479 14.33 16.567C14.31 16.567 14.29 16.6051 14.14 16.5956L14.11 14.0527L10.85 12.4527C10.85 12.4527 10.82 12.3575 10.96 12.3384C10.98 12.3384 11.02 12.3384 11.04 12.3384V12.3194Z" fill="#A89FD9"/>
<path d="M17.69 12.4337C17.64 12.9003 17.73 14.1861 17.69 14.8146C17.61 14.8622 17.52 14.9194 17.44 14.9575C17.36 14.9956 17.27 15.0337 17.19 15.0718C16.66 15.3384 14.63 16.4337 14.37 16.5194C14.39 16.4051 14.28 16.5384 14.26 16.5003C14.2 16.3956 14.3 14.4337 14.26 14.0432L17.66 12.367C17.66 12.367 17.64 12.4241 17.69 12.4241V12.4337Z" fill="url(#paint3_linear_1207_1721)"/>
<path d="M17.5 12.2622L14.21 13.8813C13.98 13.8337 13.68 13.6146 13.65 13.5956C13.64 13.5956 13.42 13.5575 13.38 13.5384C13.35 13.5289 13.38 13.4622 13.35 13.4527C12.95 13.2718 12.56 13.1003 12.17 12.9384C12.01 12.7289 11.74 12.7289 11.65 12.6813C11.57 12.6432 11.1 12.3289 11.03 12.3099L13.45 11.0622C13.99 11.1003 14.54 11.1289 15.07 11.0337C15.21 11.0337 17.23 12.0908 17.49 12.2527L17.5 12.2622Z" fill="url(#paint4_linear_1207_1721)"/>
<path d="M17.67 12.3765L14.27 14.0527C14.27 13.9956 14.24 13.9289 14.22 13.8813L17.51 12.2622C17.51 12.2622 17.6 12.2336 17.67 12.3765Z" fill="#CEC1ED"/>
<path d="M9.07 11.5194C9.08 11.5861 9.05 11.6051 9.04 11.6337C8.99 11.948 9.08 13.4527 9.04 14.0146C8.16 13.5575 7.26 13.148 6.38 12.6813C6.25 12.6146 6.09 12.6051 6 12.4718L6.03 9.98605L9.07 11.5194Z" fill="#5053BF"/>
<path d="M22.16 9.90032L19.28 11.3479C19.28 11.3479 18.85 11.167 18.76 11.1194C18.29 10.8717 17.82 10.6146 17.34 10.4146C17.67 10.2717 18.01 10.1098 18.22 9.78604C18.22 9.76699 18.32 9.70984 18.38 9.4908C18.36 9.06223 18.48 8.42413 18.49 8.06223C19.02 8.33842 21.99 9.74794 22.16 9.90984V9.90032Z" fill="#D188F5"/>
<path d="M21.86 12.7098C21.04 13.1098 20.21 13.5098 19.4 13.9289C19.4 13.4908 19.4 13.0622 19.4 12.6241C19.4 12.3956 19.43 11.6241 19.37 11.4908L22.25 10.0432C22.29 10.1956 22.31 12.3575 22.28 12.4718C22.17 12.5956 22.01 12.6432 21.87 12.7098H21.86Z" fill="url(#paint5_linear_1207_1721)"/>
<path d="M9.92 7.97653C9.92 7.97653 9.94 8.10034 9.95 8.26225C9.77 8.37653 8.95 9.69082 8.94 9.77653C8.85 10.3956 10.15 10.5575 10.56 10.7003C10.49 10.7384 10.41 10.8051 10.34 10.8432C10.11 10.9575 9.16 11.3384 9.08 11.5194L6.03 9.98606C6.03 9.98606 6.12 9.87177 6.15 9.8432C6.32 9.70987 9.37 8.27177 9.92 7.96701V7.97653Z" fill="url(#paint6_linear_1207_1721)"/>
<path d="M22.24 10.0432L19.36 11.4908L19.33 11.4622L19.28 11.3479L22.16 9.90033C22.26 9.99557 22.22 9.95747 22.24 10.0432Z" fill="#E8BEF9"/>
<path d="M10.66 12.3194C10.66 12.3194 10.64 12.3956 10.7 12.3765C10.73 12.2813 10.81 12.2718 10.88 12.2337L10.96 12.3194C10.82 12.3384 10.86 12.4241 10.85 12.4337C10.85 12.4337 10.79 12.4146 10.77 12.5289C10.72 12.8146 10.81 14.3765 10.77 14.9289C10.76 14.9289 10.73 14.9289 10.72 14.9289C10.21 14.6718 9.70001 14.3956 9.19001 14.1384C9.19001 14.1384 9.14001 14.0718 9.05001 14.0241C9.09001 13.4622 9.00001 11.9575 9.05001 11.6432C9.14001 11.7098 9.23001 11.6241 9.28001 11.6432C9.45001 11.6908 10.36 12.2241 10.66 12.3194Z" fill="#A45FF2"/>
<path d="M10.33 10.8432C10.33 11.0051 9.31 11.3861 9.32 11.4527L10.74 12.148C10.74 12.148 10.64 12.2813 10.66 12.3194C10.36 12.2242 9.44 11.6813 9.28 11.6432C9.22 11.6242 9.14 11.7099 9.05 11.6432C9.05 11.6146 9.09 11.5956 9.08 11.5289C9.16 11.348 10.11 10.967 10.34 10.8527L10.33 10.8432Z" fill="#EADCFB"/>
<path d="M17.31 10.4146H17.34C17.83 10.6146 18.3 10.8718 18.76 11.1194L18.69 11.1765C18.82 11.2622 19.1 11.3003 19.11 11.4337C18.84 11.5099 17.88 12.1003 17.73 12.0908L16.32 11.4146C16.1 11.2337 15.73 11.1384 15.47 10.986C15.8 10.9575 16.84 10.5098 17.3 10.4146H17.31Z" fill="#E4CAFA"/>
<path d="M18.76 11.1289C18.85 11.1765 19.25 11.3289 19.28 11.3574L19.33 11.4717C19.23 11.3574 19.21 11.4146 19.11 11.4432C19.09 11.3194 18.81 11.2717 18.69 11.186L18.76 11.1289Z" fill="#F1E5FA"/>
<path d="M19.39 12.6241C19.39 13.0622 19.39 13.4908 19.39 13.9289C19.38 13.9289 19.34 13.986 19.12 14.1003C18.73 14.3003 18.33 14.5003 17.94 14.7003L17.91 12.3289L19.28 11.6336C19.29 12.0527 19.28 12.7194 19.39 12.6241Z" fill="#D4A4F7"/>
<path d="M19.37 11.4908C19.43 11.6241 19.4 12.3956 19.4 12.6241C19.3 12.7099 19.3 12.0527 19.29 11.6337C19.29 11.5575 19.37 11.5956 19.34 11.4622C19.34 11.4622 19.35 11.4527 19.37 11.4908Z" fill="#F1E5FA"/>
<path d="M11.2 10.386C11.63 10.6146 12.74 11.0146 13.17 11.0432C13.18 11.1099 13.08 11.1289 13.03 11.1575C13.03 11.1194 13.03 11.1003 12.99 11.1003C12.87 11.1003 10.83 12.0718 10.73 12.148L9.31 11.4527C9.31 11.386 10.32 11.0051 10.32 10.8432C10.39 10.8051 10.47 10.7384 10.54 10.7003C10.55 10.7003 10.61 10.7003 10.81 10.586C10.87 10.548 11.13 10.4432 11.14 10.386C11.15 10.386 11.18 10.386 11.19 10.386H11.2Z" fill="#DECEF7"/>
<path d="M10.79 10.186C10.88 10.2241 11.17 10.2718 11.15 10.386C11.02 10.4337 10.82 10.5099 10.82 10.586C10.62 10.7003 10.56 10.6908 10.55 10.7003C10.15 10.5575 8.84 10.3956 8.93 9.77652C8.94 9.68129 9.76 8.367 9.94 8.26224C9.97 9.5289 9.85 9.77652 10.79 10.1956V10.186Z" fill="#6E6BC6"/>
<path d="M13.04 11.1575C12.33 11.5384 11.59 11.8813 10.88 12.2336C10.81 12.2717 10.73 12.2813 10.7 12.3765C10.64 12.3955 10.66 12.3194 10.66 12.3194C10.64 12.2813 10.73 12.1575 10.74 12.1479C10.84 12.0717 12.88 11.1003 13 11.1003C13.05 11.1003 13.05 11.1194 13.04 11.1575Z" fill="#F1E5FA"/>
<path d="M19.34 11.4622C19.36 11.5956 19.28 11.5575 19.29 11.6337L17.92 12.3289L17.95 14.7003L17.9 14.7575L17.87 12.3575L17.82 12.2908C17.74 12.167 16.67 11.6718 16.45 11.5479C16.46 11.5099 16.36 11.4241 16.34 11.4051L17.75 12.0813C17.9 12.1003 18.87 11.5003 19.13 11.4241C19.23 11.3956 19.25 11.3384 19.35 11.4527L19.34 11.4622Z" fill="#FFFEFE"/>
<path d="M17.8 12.2908L17.85 12.3575L17.88 14.7575C17.78 14.8051 17.7 14.8051 17.69 14.8146C17.73 14.186 17.64 12.9003 17.69 12.4337C17.7 12.3194 17.64 12.2717 17.8 12.2908Z" fill="#A056E8"/>
<path d="M15.97 9.95746C15.97 9.95746 15.96 9.98603 16.22 10.0432C16.16 10.1479 16.6 10.1956 16.85 10.2146C16.83 10.3289 17.1 10.1956 17.32 10.4146C16.85 10.5003 15.81 10.9575 15.49 10.986C15.38 10.9956 15.35 10.9384 15.35 10.986C15.23 10.9289 15.11 10.8813 14.99 10.8146L15.14 10.786C15.04 10.6051 15.42 10.7098 15.56 10.2622C15.56 10.2051 15.5 10.1956 15.51 10.1956C15.51 10.1098 15.53 10.0337 15.54 9.93842C15.99 10.1479 15.73 9.91937 15.98 9.96699L15.97 9.95746Z" fill="#BD91E8"/>
<path d="M15.48 10.9861C15.73 11.1289 16.11 11.2337 16.33 11.4146C16.35 11.4337 16.45 11.5194 16.44 11.5575C16.08 11.367 15.71 11.1765 15.34 10.9861C15.34 10.9384 15.37 10.9956 15.48 10.9861Z" fill="#E4CAFA"/>
<path d="M12.6 10.0146C12.77 10.1956 12.66 10.367 12.79 10.5384C12.91 10.6813 12.94 10.6432 13.04 10.5194C13.04 10.5194 13.11 10.5575 13.12 10.5765C13.43 10.8527 13.48 10.6622 13.86 10.7289C13.82 10.7765 13.75 10.7956 13.7 10.8241C13.55 10.9194 13.37 10.9765 13.22 11.0813C13.2 11.0622 13.22 11.0241 13.18 11.0241C12.75 10.9956 11.64 10.5956 11.21 10.367C11.3 10.3384 11.41 10.3003 11.48 10.2241C11.87 10.2146 12.23 10.0527 12.6 9.99557V10.0146Z" fill="#B47CE3"/>
<path d="M11.15 10.386C11.15 10.4432 10.89 10.548 10.82 10.586C10.82 10.5099 11.02 10.4337 11.15 10.386Z" fill="#A056E8"/>
<path d="M14.6 10.586C14.64 10.8051 14.25 10.6908 14.12 10.7289C14.05 10.7479 13.68 11.0718 13.7 10.8432C13.75 10.8146 13.82 10.7956 13.86 10.7479C13.48 10.6813 13.44 10.8718 13.12 10.5956C13.55 10.6241 14.23 10.5575 14.6 10.5956V10.586Z" fill="#693DB8"/>
<defs>
<linearGradient id="paint0_linear_1207_1721" x1="19.54" y1="14.586" x2="21.2235" y2="18.7782" gradientUnits="userSpaceOnUse">
<stop stop-color="#776FC7"/>
<stop offset="1" stop-color="#595DC2"/>
</linearGradient>
<linearGradient id="paint1_linear_1207_1721" x1="17.68" y1="15.5194" x2="18.8574" y2="20.1291" gradientUnits="userSpaceOnUse">
<stop stop-color="#D8B2F8"/>
<stop offset="1" stop-color="#AE74F3"/>
</linearGradient>
<linearGradient id="paint2_linear_1207_1721" x1="14.84" y1="16.9003" x2="16.4357" y2="21.4933" gradientUnits="userSpaceOnUse">
<stop stop-color="#6D6FC7"/>
<stop offset="1" stop-color="#5762C1"/>
</linearGradient>
<linearGradient id="paint3_linear_1207_1721" x1="17.75" y1="13.4718" x2="14.2002" y2="15.6119" gradientUnits="userSpaceOnUse">
<stop stop-color="#A685E2"/>
<stop offset="1" stop-color="#918CD0"/>
</linearGradient>
<linearGradient id="paint4_linear_1207_1721" x1="13.61" y1="11.2146" x2="14.7899" y2="13.3315" gradientUnits="userSpaceOnUse">
<stop stop-color="#897ECC"/>
<stop offset="1" stop-color="#A388DF"/>
</linearGradient>
<linearGradient id="paint5_linear_1207_1721" x1="22.31" y1="11.1098" x2="19.3747" y2="13.0387" gradientUnits="userSpaceOnUse">
<stop stop-color="#C270F3"/>
<stop offset="1" stop-color="#B175F3"/>
</linearGradient>
<linearGradient id="paint6_linear_1207_1721" x1="8.99" y1="8.63368" x2="8.23689" y2="10.6491" gradientUnits="userSpaceOnUse">
<stop stop-color="#646DC5"/>
<stop offset="1" stop-color="#8B83CD"/>
</linearGradient>
</defs>
</svg>
