<?xml version="1.0" standalone="no"?>
<!DOCTYPE svg PUBLIC "-//W3C//DTD SVG 20010904//EN" "http://www.w3.org/TR/2001/REC-SVG-20010904/DTD/svg10.dtd">
<svg
    version="1.0"
    xmlns="http://www.w3.org/2000/svg"
    width="4500.000000pt"
    height="4500.000000pt"
    viewBox="0 0 4500.000000 4500.000000"
    preserveAspectRatio="xMidYMid meet"
>
    <g
        transform="translate(0.000000,4500.000000) scale(0.100000,-0.100000)"
        fill="#000000"
        stroke="none"
    >
        <path
            d="M15810 40253 c-671 -47 -1289 -217 -1904 -525 -921 -461 -1649 -1148
-2131 -2013 -324 -581 -519 -1228 -575 -1910 -13 -157 -13 -587 0 -740 44
-515 165 -1032 354 -1508 26 -66 45 -124 43 -131 -3 -7 -123 -174 -268 -372
-911 -1246 -1023 -1404 -1266 -1794 -600 -964 -1112 -1939 -1470 -2800 -786
-1888 -1344 -4212 -1498 -6245 -62 -826 -59 -1879 11 -2995 135 -2183 551
-4051 1299 -5839 212 -507 521 -1156 770 -1616 1115 -2061 2835 -3846 4913
-5094 564 -339 1223 -672 1814 -915 1432 -589 2836 -890 4643 -996 503 -30
1426 -23 2020 16 2640 170 5056 925 7025 2197 1546 998 2823 2354 3570 3791
666 1281 1089 2840 1171 4316 13 238 7 966 -11 1165 -89 1033 -305 1871 -706
2737 -204 442 -546 988 -987 1578 -80 107 -144 196 -143 198 2 2 55 16 117 33
483 126 985 368 1395 671 374 278 703 624 959 1008 65 97 646 1114 1551 2715
1350 2389 1445 2560 1428 2572 -11 7 -1214 910 -2674 2005 l-2655 1993 -3
1032 -2 1031 -2711 2027 c-1491 1114 -2718 2029 -2726 2032 -8 3 -1693 175
-3744 382 l-3728 376 -88 105 c-257 306 -568 580 -905 796 -178 114 -492 268
-713 350 -601 223 -1032 324 -1554 364 -122 9 -508 11 -621 3z m1245 -2994
c219 -23 512 -99 730 -190 485 -201 930 -560 1242 -999 307 -432 571 -1084
663 -1636 16 -101 149 -1047 231 -1645 l12 -86 -105 -189 c-275 -495 -540
-1005 -932 -1794 -470 -943 -636 -1298 -806 -1720 -341 -846 -582 -1663 -764
-2585 -173 -884 -243 -1472 -277 -2330 -14 -351 -5 -2691 11 -3019 27 -545 75
-931 180 -1460 94 -467 202 -867 370 -1360 314 -921 697 -1751 1166 -2527 384
-635 700 -1072 1204 -1664 114 -134 160 -198 276 -390 359 -589 650 -1117 782
-1419 112 -257 232 -683 382 -1366 58 -265 170 -804 167 -807 -1 -1 -153 128
-338 285 -184 158 -551 470 -816 694 -857 727 -926 792 -1349 1265 l-109 121
-7 -1335 c-4 -734 -8 -1337 -10 -1339 -2 -2 -350 -15 -774 -28 -423 -14 -814
-27 -870 -30 l-100 -6 -12 1363 c-26 2879 -34 3470 -47 3502 -7 17 -43 68 -80
115 -373 469 -742 1132 -968 1740 -194 520 -478 1433 -618 1985 l-43 170 38
2340 c36 2280 37 2389 34 4243 l-3 1903 -145 -117 c-766 -619 -1955 -1405
-3655 -2419 -632 -377 -710 -423 -711 -421 0 0 -141 258 -313 572 l-312 572
61 258 c303 1292 682 2359 1222 3439 414 827 810 1451 1422 2240 190 246 798
1018 915 1164 91 113 133 140 190 122 46 -13 70 -32 255 -192 80 -70 270 -227
422 -350 152 -123 288 -234 303 -246 l26 -22 -187 -373 c-173 -344 -235 -462
-483 -913 -406 -741 -802 -1322 -1224 -1799 -263 -298 -918 -934 -1304 -1266
-59 -51 -106 -95 -104 -97 10 -10 1002 403 1335 556 111 51 1233 627 2152
1106 129 67 391 202 582 301 l347 178 333 746 c182 410 353 795 379 855 26 61
88 198 138 305 51 107 137 305 193 440 143 348 384 912 425 995 226 453 309
660 413 1026 135 477 145 913 30 1253 -145 431 -565 828 -1087 1027 -134 51
-226 68 -369 69 -241 0 -432 -60 -649 -204 -184 -123 -349 -292 -439 -450
-128 -225 -225 -602 -256 -996 -25 -323 54 -581 264 -864 70 -95 198 -224 279
-281 31 -22 56 -43 57 -46 0 -9 -127 -58 -210 -80 -110 -29 -304 -36 -455 -15
-231 32 -471 96 -653 173 l-83 36 -56 94 c-171 292 -273 588 -324 943 -16 112
-16 470 -1 590 66 503 247 919 582 1340 350 439 826 753 1344 885 309 78 568
97 891 64z m3245 -1064 c371 -26 607 -52 1430 -155 305 -38 1001 -124 1545
-190 1976 -241 2889 -363 2991 -401 83 -31 -47 70 1599 -1238 1325 -1053 2294
-1832 2338 -1881 108 -120 114 -143 317 -1145 157 -776 192 -932 225 -997 63
-126 76 -137 588 -501 805 -574 1197 -851 2302 -1631 583 -412 1072 -761 1088
-777 30 -33 34 -66 12 -108 -18 -36 -46 -46 -170 -65 -124 -19 -861 -108
-1125 -136 -225 -24 -258 -31 -299 -66 -52 -44 -65 -97 -58 -242 27 -546 243
-969 651 -1272 113 -84 136 -111 136 -159 0 -89 -166 -285 -317 -377 -144 -87
-285 -98 -588 -46 -237 41 -417 63 -965 117 -512 51 -561 58 -628 84 -54 21
41 -131 -779 1248 l-453 760 0 170 0 170 -157 102 c-87 56 -165 108 -174 114
-9 7 -243 396 -520 865 -277 468 -506 852 -509 852 -9 0 -47 -116 -365 -1110
-168 -525 -313 -978 -323 -1007 l-17 -52 -1295 839 c-1168 758 -1296 843
-1309 875 -17 43 -1 89 38 109 14 8 319 100 676 204 358 105 967 284 1355 398
388 113 781 228 874 256 669 194 642 187 835 213 190 26 436 73 526 102 76 24
166 72 197 105 24 26 28 38 28 92 0 33 -7 84 -15 111 -9 28 -45 160 -80 295
-94 358 -183 666 -204 708 -11 20 -39 56 -63 78 -34 33 -537 417 -584 447 -7
4 -419 95 -916 202 -1161 249 -2487 535 -2883 620 -170 37 -312 69 -314 71 -2
2 67 184 153 405 87 220 156 402 154 404 -2 1 -552 -76 -1223 -171 -671 -96
-1234 -173 -1251 -172 -26 3 -181 145 -935 853 -497 468 -969 911 -1049 985
-79 74 -205 194 -280 266 -408 393 -501 481 -672 632 -104 90 -188 167 -188
170 0 8 409 -7 650 -23z m1076 -4089 c481 -119 831 -261 1184 -481 197 -123
349 -246 520 -421 206 -211 336 -389 464 -635 185 -354 295 -741 351 -1229 29
-252 63 -326 400 -855 362 -568 415 -668 479 -888 50 -173 56 -239 54 -573 -3
-289 -2 -316 20 -411 60 -275 198 -540 414 -798 114 -137 664 -701 835 -858
77 -70 187 -165 246 -212 131 -106 156 -137 166 -209 9 -63 17 -56 -134 -111
-138 -50 -377 -151 -468 -197 -201 -101 -296 -201 -297 -313 0 -22 -7 -60 -16
-85 -19 -53 -14 -135 12 -202 54 -138 214 -324 364 -423 52 -34 103 -72 113
-82 17 -19 16 -20 -25 -33 -235 -70 -652 -371 -838 -605 -47 -60 -240 -332
-240 -340 0 -10 122 -27 199 -26 106 0 195 19 362 77 162 56 216 67 279 53
125 -27 236 -216 201 -345 -13 -47 -34 -77 -149 -206 -160 -180 -191 -247
-157 -351 9 -28 52 -124 95 -212 43 -88 90 -197 104 -242 106 -342 1 -671
-255 -797 -107 -53 -182 -65 -439 -72 l-225 -6 -175 132 c-820 621 -1485 1278
-1845 1825 -80 121 -488 796 -635 1050 -110 191 -247 451 -290 553 -30 70 -30
75 -14 93 9 10 22 19 28 19 6 0 495 -310 1086 -689 591 -378 1077 -687 1079
-685 2 2 -154 261 -347 576 -743 1217 -1039 1704 -1050 1725 -11 19 -3 34 67
135 133 190 260 402 374 628 60 118 116 223 125 234 49 53 79 55 425 25 398
-34 536 -20 587 63 30 49 26 88 -15 142 -20 25 -40 46 -45 46 -17 0 -162 174
-188 225 -38 76 -41 170 -7 317 43 192 90 321 201 546 114 231 138 306 114
349 -31 54 -255 153 -425 188 -178 37 -521 36 -586 -1 -43 -25 -85 -107 -209
-417 -97 -240 -270 -594 -379 -777 -342 -569 -855 -1195 -1426 -1742 -99 -94
-340 -319 -535 -498 -195 -180 -387 -357 -427 -394 l-72 -67 5 33 c2 18 18
157 35 308 98 892 258 1872 420 2578 22 97 88 364 146 592 358 1417 395 1574
548 2300 122 580 290 1449 281 1457 -2 2 -10 -13 -16 -34 -31 -93 -144 -384
-218 -558 -220 -520 -417 -901 -769 -1486 -207 -345 -176 -270 -393 -939 -341
-1054 -603 -1994 -739 -2663 -142 -692 -262 -1659 -315 -2539 l-14 -228 -94
-127 c-52 -71 -116 -159 -143 -198 -27 -38 -81 -108 -121 -155 -169 -202 -388
-513 -509 -725 -31 -55 -64 -106 -73 -113 -28 -21 -92 -11 -113 18 -21 28 -37
174 -64 550 -69 997 -65 1925 10 2705 8 83 17 184 20 225 24 309 131 1008 236
1540 227 1145 558 2253 933 3116 264 610 631 1285 1102 2031 127 201 512 758
546 790 55 52 85 53 264 9z m7909 -7711 c123 -7 1064 -79 1310 -100 99 -9 187
-20 196 -25 9 -5 25 -7 35 -4 52 14 1838 -176 1874 -198 25 -16 40 -59 33 -90
-14 -53 -331 -363 -578 -565 -309 -252 -632 -422 -834 -439 l-79 -7 -373 255
c-206 140 -677 460 -1046 712 -370 252 -675 462 -679 467 -3 6 4 8 18 5 12 -3
68 -8 123 -11z m-741 -2521 c9 -3 39 -38 68 -77 29 -40 55 -74 58 -77 15 -13
442 -607 720 -1001 726 -1027 1150 -1663 1350 -2022 455 -819 712 -1655 802
-2612 20 -210 16 -836 -5 -1040 -49 -456 -121 -795 -252 -1190 -89 -270 -176
-478 -306 -740 -96 -192 -125 -244 -132 -234 -2 2 -240 447 -528 989 l-525
985 8 265 c9 270 -2 852 -22 1165 -59 924 -193 1704 -400 2327 -89 268 -285
738 -394 943 l-26 50 6 -150 c7 -163 -10 -814 -26 -1015 -91 -1139 -633 -2366
-1545 -3499 -119 -148 -120 -149 -138 -119 -8 13 -93 145 -189 293 -273 420
-300 476 -300 600 0 33 34 263 75 510 301 1788 568 2931 938 4020 104 308 231
628 430 1093 190 441 227 518 252 530 25 12 58 15 81 6z m-8741 -256 c10 -7
46 -94 81 -193 392 -1111 1087 -2088 2136 -3006 376 -328 790 -671 1520 -1260
1349 -1088 1419 -1148 1790 -1525 607 -618 1003 -1213 1285 -1929 90 -228 89
-212 13 -171 -35 19 -504 264 -1043 546 -539 282 -1031 539 -1094 572 -63 34
-112 57 -109 52 27 -44 148 -348 141 -354 -4 -4 -335 -177 -735 -385 l-728
-377 -600 599 c-1019 1015 -1852 1868 -2094 2143 -337 383 -705 888 -996 1365
l-73 120 6 235 c12 461 72 831 185 1145 76 209 206 522 276 665 l28 55 -87
285 c-47 157 -133 430 -191 608 l-105 324 22 36 c12 20 76 129 142 242 65 113
124 208 131 212 18 12 81 9 99 -4z"
        />
    </g>
</svg>
