<svg width="40" height="40" viewBox="0 0 40 40" fill="none" xmlns="http://www.w3.org/2000/svg">
<g id="Karak Twitter Profile - Icon">
<rect width="40" height="40" rx="20" fill="url(#paint0_linear_3318_1643)"/>
<g id="Group 929">
<path id="Vector" d="M20.6076 8.98055C21.0631 9.42629 21.0966 10.1683 20.8044 10.7055C20.7982 10.7174 20.7978 10.7294 20.8032 10.7415C21.2486 11.7553 21.6246 12.6413 22.1458 13.3761C22.7965 14.2939 23.4646 15.1557 24.0307 16.1767C24.1315 16.3587 24.1327 16.5073 24.1099 16.7041C24.1085 16.718 24.112 16.7301 24.1205 16.7406C24.4164 17.1059 24.7678 17.1016 25.2179 17.0635C25.8894 17.0062 26.3579 16.9823 26.6235 16.9916C28.3425 17.0508 29.7681 18.242 29.8629 20.0063C29.9112 20.9008 29.782 21.7309 29.3138 22.4814C28.8136 23.2826 28.1349 23.9038 27.2777 24.3452C27.0889 24.4426 26.8993 24.5389 26.7091 24.6343C25.9029 25.039 25.5257 26.2391 25.7344 27.0679C25.7926 27.2976 25.9657 27.8064 26.2539 28.5943C26.2943 28.7041 26.3108 28.79 26.3035 28.8521C26.2679 29.1544 25.8017 29.2911 25.5426 29.3148C25.5361 29.3154 25.5299 29.3182 25.525 29.3227C25.5201 29.3272 25.5168 29.3332 25.5155 29.3398C25.3906 30.0513 25.0235 30.812 24.4185 31.234C24.2452 31.3548 23.9954 31.4677 23.6691 31.5727C22.7896 31.8554 21.891 32.0098 20.9734 32.0358C19.4902 32.0781 18.0808 31.9799 16.6971 31.4897C16.0116 31.2467 15.5264 30.6486 15.2821 29.9815C14.8431 28.7823 14.9997 27.5009 15.5413 26.3661C15.7297 25.9715 15.9528 25.5347 16.0955 25.1694C16.6285 23.8051 16.7234 22.3277 16.4549 20.891C16.1429 19.2211 14.8007 17.9292 13.1986 17.4496C11.981 17.0855 10.6803 17.1626 9.44315 17.2841C8.99012 17.3285 8.98334 17.0898 9.26532 16.8455C10.019 16.1928 11.0072 15.8711 11.9949 15.7661C13.1952 15.6378 14.3232 15.7881 15.3757 16.3744C15.7995 16.6106 16.0493 16.8862 16.4105 17.276C16.4686 17.3387 16.5256 17.3792 16.5815 17.3975C16.5855 17.3988 16.5897 17.399 16.5938 17.3983C16.5978 17.3976 16.6017 17.3959 16.6049 17.3934C16.6082 17.3909 16.6108 17.3877 16.6124 17.384C16.6141 17.3803 16.6148 17.3762 16.6146 17.3721C16.5959 17.0817 16.5585 16.7969 16.5024 16.5175C16.4698 16.3545 16.5815 16.2034 16.6582 16.0611C17.2192 15.0211 18.0007 14.075 18.7226 13.0256C18.7692 12.9579 18.8094 12.8899 18.8433 12.8216C19.1826 12.1373 19.5075 11.446 19.8179 10.7478C19.8236 10.7346 19.823 10.7217 19.8162 10.7093C19.5216 10.1662 19.5482 9.4301 20.0165 8.98309C20.0211 8.97876 20.0242 8.97302 20.0252 8.96681C20.0262 8.96059 20.0251 8.95425 20.022 8.9488C19.893 8.71683 19.8601 8.47075 19.9234 8.21056C19.9742 8.0006 20.2032 7.65011 20.4463 7.82536C20.7972 8.07807 20.7926 8.60085 20.6025 8.94669C20.5954 8.9591 20.5971 8.97039 20.6076 8.98055ZM29.0699 20.6121C28.9971 19.5928 28.3607 18.6361 27.367 18.3055C26.1455 17.8991 24.5955 18.6941 23.7407 19.5339C23.7305 19.5438 23.725 19.5558 23.7242 19.5699C23.6866 20.171 23.6748 20.7727 23.6886 21.3749C23.7229 22.8607 24.1412 24.3846 24.7712 25.7277C24.7783 25.7427 24.7857 25.7429 24.7936 25.7286C25.234 24.9387 25.8809 24.3333 26.6379 23.855C26.9521 23.6569 27.4153 23.4613 27.7015 23.2891C27.9942 23.1124 28.2684 22.8464 28.5241 22.4911C28.9365 21.9177 29.1184 21.2913 29.0699 20.6121Z" fill="white"/>
</g>
</g>
<defs>
<linearGradient id="paint0_linear_3318_1643" x1="0" y1="20" x2="40" y2="20" gradientUnits="userSpaceOnUse">
<stop stop-color="#DF5E00"/>
<stop offset="1" stop-color="#FF9C54"/>
</linearGradient>
</defs>
</svg>
