<?xml version="1.0" encoding="UTF-8"?>
<svg version="1.1" xmlns="http://www.w3.org/2000/svg" width="952" height="952">
    <path
        d="M0 0 C1.59687653 0.00090637 1.59687653 0.00090637 3.22601318 0.00183105 C19.1203984 0.02630738 34.82182091 0.34809699 50.625 2.1875 C51.75260742 2.31108887 52.88021484 2.43467773 54.04199219 2.56201172 C139.19009545 12.07286809 221.89212534 44.45330139 289.625 97.1875 C290.72512261 98.03142967 291.82539056 98.87516991 292.92578125 99.71875 C310.54660932 113.30955846 326.86359421 128.37325238 342.625 144.0625 C343.31899902 144.75182617 344.01299805 145.44115234 344.72802734 146.15136719 C349.23033309 150.66780719 353.46791503 155.35356723 357.625 160.1875 C358.68223061 161.39052223 359.74079419 162.59237453 360.80078125 163.79296875 C367.73664034 171.69395917 374.37174923 179.73356391 380.625 188.1875 C381.35904053 189.17459961 381.35904053 189.17459961 382.10791016 190.18164062 C432.25924592 257.84143088 463.96077856 336.25739825 473.875 419.875 C473.95826538 420.5749408 474.04153076 421.27488159 474.12731934 421.99603271 C476.22460636 439.87569457 476.83137768 457.57451953 476.8125 475.5625 C476.81159363 477.15937653 476.81159363 477.15937653 476.81066895 478.78851318 C476.78619262 494.6828984 476.46440301 510.38432091 474.625 526.1875 C474.50141113 527.31510742 474.37782227 528.44271484 474.25048828 529.60449219 C464.73963191 614.75259545 432.35919861 697.45462534 379.625 765.1875 C378.78107033 766.28762261 377.93733009 767.38789056 377.09375 768.48828125 C363.50294154 786.10910932 348.43924762 802.42609421 332.75 818.1875 C332.06067383 818.88149902 331.37134766 819.57549805 330.66113281 820.29052734 C326.14469281 824.79283309 321.45893277 829.03041503 316.625 833.1875 C315.42197777 834.24473061 314.22012547 835.30329419 313.01953125 836.36328125 C305.11854083 843.29914034 297.07893609 849.93424923 288.625 856.1875 C287.63790039 856.92154053 287.63790039 856.92154053 286.63085938 857.67041016 C218.97106912 907.82174592 140.55510175 939.52327856 56.9375 949.4375 C56.2375592 949.52076538 55.53761841 949.60403076 54.81646729 949.68981934 C36.93680543 951.78710636 19.23798047 952.39387768 1.25 952.375 C-0.34687653 952.37409363 -0.34687653 952.37409363 -1.97601318 952.37316895 C-17.8703984 952.34869262 -33.57182091 952.02690301 -49.375 950.1875 C-50.50260742 950.06391113 -51.63021484 949.94032227 -52.79199219 949.81298828 C-137.94009545 940.30213191 -220.64212534 907.92169861 -288.375 855.1875 C-289.47512261 854.34357033 -290.57539056 853.49983009 -291.67578125 852.65625 C-309.29660932 839.06544154 -325.61359421 824.00174762 -341.375 808.3125 C-342.06899902 807.62317383 -342.76299805 806.93384766 -343.47802734 806.22363281 C-347.98033309 801.70719281 -352.21791503 797.02143277 -356.375 792.1875 C-357.43223061 790.98447777 -358.49079419 789.78262547 -359.55078125 788.58203125 C-366.48664034 780.68104083 -373.12174923 772.64143609 -379.375 764.1875 C-380.10904053 763.20040039 -380.10904053 763.20040039 -380.85791016 762.19335938 C-431.00924592 694.53356912 -462.71077856 616.11760175 -472.625 532.5 C-472.70826538 531.8000592 -472.79153076 531.10011841 -472.87731934 530.37896729 C-474.97460636 512.49930543 -475.58137768 494.80048047 -475.5625 476.8125 C-475.56189575 475.74791565 -475.5612915 474.6833313 -475.56066895 473.58648682 C-475.53619262 457.6921016 -475.21440301 441.99067909 -473.375 426.1875 C-473.25141113 425.05989258 -473.12782227 423.93228516 -473.00048828 422.77050781 C-463.48963191 337.62240455 -431.10919861 254.92037466 -378.375 187.1875 C-377.53107033 186.08737739 -376.68733009 184.98710944 -375.84375 183.88671875 C-362.25294154 166.26589068 -347.18924762 149.94890579 -331.5 134.1875 C-330.81067383 133.49350098 -330.12134766 132.79950195 -329.41113281 132.08447266 C-324.89469281 127.58216691 -320.20893277 123.34458497 -315.375 119.1875 C-314.17197777 118.13026939 -312.97012547 117.07170581 -311.76953125 116.01171875 C-303.86854083 109.07585966 -295.82893609 102.44075077 -287.375 96.1875 C-286.71693359 95.69813965 -286.05886719 95.2087793 -285.38085938 94.70458984 C-217.72106912 44.55325408 -139.30510175 12.85172144 -55.6875 2.9375 C-54.9875592 2.85423462 -54.28761841 2.77096924 -53.56646729 2.68518066 C-35.68680543 0.58789364 -17.98798047 -0.01887768 0 0 Z "
        fill="#53429B"
        transform="translate(475.375,-0.1875)"
    />
    <path
        d="M0 0 C11.46439955 10.87835996 18.69852647 22.12131215 22.6875 37.5625 C22.95228149 38.47370605 22.95228149 38.47370605 23.22241211 39.40332031 C24.20115541 43.94715535 23.87222513 48.68401609 23.875 53.3125 C23.88724609 54.37210937 23.89949219 55.43171875 23.91210938 56.5234375 C23.94402091 73.67057164 16.94721412 90.20475214 5.37890625 102.890625 C-8.31308892 116.42451399 -26.92484573 124.79898453 -46.25 125.0625 C-65.79301384 124.79624074 -83.2368407 117.11683859 -97.3125 103.5625 C-111.36061194 88.69387887 -117.45363642 70.4296081 -117.29443359 50.27539062 C-116.43902807 30.53526305 -107.5174463 13.70279991 -93.2890625 0.1015625 C-66.50478101 -22.74592171 -26.599551 -23.20471341 0 0 Z "
        fill="#FEFEFE"
        transform="translate(752.3125,370.4375)"
    />
    <path
        d="M0 0 C14.1082966 12.01519696 25.55762335 27.63240608 28.73828125 46.33203125 C30.06927625 65.61585403 28.64934885 81.22488012 15.89453125 96.546875 C5.35173348 107.80260787 -8.53269749 113.66908657 -23.85546875 114.53515625 C-46.03615061 114.80132443 -65.55648786 107.99631435 -81.85546875 92.703125 C-96.45922431 78.31273599 -107.1829606 61.35921219 -107.50317383 40.33935547 C-107.53049636 31.9224534 -107.46789129 24.24931446 -104.26171875 16.33203125 C-103.80345703 15.11580078 -103.80345703 15.11580078 -103.3359375 13.875 C-97.79520171 1.08093736 -85.97078949 -9.49496882 -73.32421875 -14.98046875 C-47.54479661 -24.3074957 -20.81756368 -16.53573732 0 0 Z "
        fill="#FDFDFE"
        transform="translate(695.26171875,577.66796875)"
    />
    <path
        d="M0 0 C15.59263586 10.51238356 22.41522501 26.52838987 27.4375 43.9375 C27.6953125 44.83082031 27.953125 45.72414063 28.21875 46.64453125 C33.83627059 70.22985668 29.98456184 97.30510165 17.4375 117.9375 C10.86554023 126.64970861 3.39339925 133.77951984 -7.5625 135.9375 C-18.36730982 137.06185838 -27.44023708 135.22555223 -36.25 128.75 C-50.11450209 117.03178204 -57.10783631 102.19706743 -61.5625 84.9375 C-61.93181641 83.53564453 -61.93181641 83.53564453 -62.30859375 82.10546875 C-66.82122107 60.84943799 -64.58541269 33.59151603 -52.6875 15.0625 C-51.67120134 13.6686451 -50.62952777 12.29291366 -49.5625 10.9375 C-49.02753906 10.24011719 -48.49257813 9.54273438 -47.94140625 8.82421875 C-35.19861874 -6.80261767 -17.26014944 -10.22109408 0 0 Z "
        fill="#FDFCFE"
        transform="translate(484.5625,647.0625)"
    />
    <path
        d="M0 0 C6.78769254 4.72527827 10.05064358 12.2697614 12.34375 19.9765625 C12.77262318 24.21916336 12.72463779 28.46409905 12.71875 32.7265625 C12.71713867 33.92853271 12.71552734 35.13050293 12.71386719 36.36889648 C12.52763445 50.01957365 10.08928724 62.52789848 4.34375 74.9765625 C4.06015625 75.65976562 3.7765625 76.34296875 3.484375 77.046875 C1.04874458 82.83683854 -1.92126779 88.32773408 -4.92675781 93.83666992 C-6.38978414 96.52971432 -7.68467502 99.06183756 -8.65625 101.9765625 C-9.31625 101.9765625 -9.97625 101.9765625 -10.65625 101.9765625 C-10.90503906 102.69585938 -11.15382813 103.41515625 -11.41015625 104.15625 C-17.40268384 117.71927482 -33.00534289 131.73997154 -46.40625 137.9140625 C-53.24752985 140.1479498 -61.59638285 140.34257462 -68.15625 137.4140625 C-74.97783903 130.7630132 -80.21608027 124.42097937 -80.80151367 114.51977539 C-80.98835551 93.36646637 -79.09721038 75.25916062 -69.65625 55.9765625 C-69.05063929 54.70319251 -68.44518046 53.42975027 -67.83984375 52.15625 C-57.48596284 30.63955098 -43.43214721 10.96532544 -21.65625 -0.0234375 C-15.30432474 -2.14074592 -6.27912762 -2.41931094 0 0 Z "
        fill="#FDFDFE"
        transform="translate(316.65625,550.0234375)"
    />
    <path
        d="M0 0 C0.71692017 0.00215515 1.43384033 0.0043103 2.17248535 0.00653076 C12.90469748 0.05841922 23.1491741 0.49154872 33.5625 3.3125 C34.3551123 3.52181152 35.14772461 3.73112305 35.96435547 3.94677734 C56.54437811 9.48679868 75.66249968 16.80937461 89.5625 33.75 C91.54688892 38.83499661 91.28997535 43.45743786 89.3125 48.5 C79.44291863 58.59389003 64.20774225 60.54368184 50.6875 60.75 C23.59525395 60.59628909 -5.21494975 53.17480311 -27.4375 37.3125 C-28.04078125 36.88195312 -28.6440625 36.45140625 -29.265625 36.0078125 C-33.91510272 32.41503426 -37.57815689 27.89052932 -39.4375 22.3125 C-39.79631012 17.93501651 -39.81858461 15.26521153 -38.1875 11.1875 C-28.00188314 0.53890055 -13.75949619 -0.07372989 0 0 Z "
        fill="#FDFDFE"
        transform="translate(214.4375,385.6875)"
    />
    <path
        d="M0 0 C9.2717661 1.45439468 16.9670037 11.38906847 22.546875 18.51171875 C24.86319291 21.78495523 27.05353077 25.10644128 29.1875 28.5 C29.56696777 29.09425781 29.94643555 29.68851563 30.33740234 30.30078125 C46.3151846 55.54634158 66.02694409 90.55005938 63.1875 121.5 C62.23460125 124.76708143 61.58133994 126.10616006 59.1875 128.5 C53.41672766 128.61777086 50.00219763 126.53774734 45.6328125 122.88671875 C19.25527223 97.14122817 -5.69398438 49.15363957 -6.1875 11.9375 C-6.20143799 11.25824463 -6.21537598 10.57898926 -6.22973633 9.87915039 C-6.20031788 6.83453222 -5.94995497 4.74821579 -4.46484375 2.06640625 C-2.8125 0.5 -2.8125 0.5 0 0 Z "
        fill="#FDFDFE"
        transform="translate(343.8125,191.5)"
    />
    <path
        d="M0 0 C1.9375 1.5 1.9375 1.5 3 4 C3 26.20713374 -17.98410126 49.2548351 -32 65 C-32.70310303 65.8036499 -32.70310303 65.8036499 -33.42041016 66.62353516 C-57.78931331 94.42305208 -57.78931331 94.42305208 -73.5625 97 C-74.696875 97 -75.83125 97 -77 97 C-79.39717862 94.60282138 -79.3468288 93.92116497 -79.4375 90.625 C-78.90407184 68.72306722 -56.93961355 44.63534228 -42.546875 29.6640625 C-40.51555274 27.5392745 -38.61090591 25.3961056 -36.75 23.125 C-29.12265922 14.13091029 -12.68381436 -2.35977942 0 0 Z "
        fill="#FDFDFD"
        transform="translate(618,211)"
    />
</svg>
