<svg width="40" height="38" viewBox="0 0 40 38" fill="none" xmlns="http://www.w3.org/2000/svg">
<g id="Frame 1616">
<path id="Vector" d="M17.405 12.1922L7.99954 18.5953C7.72708 18.7862 7.72708 19.2019 7.99954 19.3928L17.4922 25.8521C17.9717 26.1779 18.266 26.7396 18.266 27.3349V37.4788C18.266 37.8832 17.8191 38.1303 17.4922 37.8944L0.697507 25.8184C0.261565 25.5039 0 24.9984 0 24.4479V13.5514C0 13.001 0.261565 12.4955 0.697507 12.1809L17.4922 0.0936578C17.8191 -0.142246 18.266 0.0936578 18.266 0.509298V10.5521C18.266 11.2148 17.939 11.8327 17.405 12.2034V12.1922Z" fill="#D18741"/>
<path id="Vector_2" d="M39.9995 13.552V24.4486C39.9995 24.999 39.738 25.5045 39.302 25.819L22.4965 37.9063C22.1695 38.1422 21.7227 37.9063 21.7227 37.4907V27.3468C21.7227 26.7514 22.0169 26.1898 22.4965 25.864L31.9891 19.4047C32.2616 19.2137 32.2616 18.7981 31.9891 18.6071L22.5836 12.204C22.0496 11.8333 21.7227 11.2155 21.7227 10.5527V0.509937C21.7227 0.105531 22.1695 -0.141607 22.4965 0.0942972L39.302 12.1816C39.738 12.4961 39.9995 13.0016 39.9995 13.552Z" fill="#D18741"/>
</g>
</svg>
