<?xml version="1.0" encoding="UTF-8"?>
<!DOCTYPE svg PUBLIC "-//W3C//DTD SVG 1.1//EN" "http://www.w3.org/Graphics/SVG/1.1/DTD/svg11.dtd">
<svg xmlns="http://www.w3.org/2000/svg" version="1.1" width="512px" height="512px" style="shape-rendering:geometricPrecision; text-rendering:geometricPrecision; image-rendering:optimizeQuality; fill-rule:evenodd; clip-rule:evenodd" xmlns:xlink="http://www.w3.org/1999/xlink">
<g><path style="opacity:0.996" fill="#d2eefe" d="M 233.5,-0.5 C 248.167,-0.5 262.833,-0.5 277.5,-0.5C 377.769,12.0418 449.269,64.0418 492,155.5C 502.296,180.684 508.796,206.684 511.5,233.5C 511.5,248.167 511.5,262.833 511.5,277.5C 498.958,377.769 446.958,449.269 355.5,492C 330.316,502.296 304.316,508.796 277.5,511.5C 262.833,511.5 248.167,511.5 233.5,511.5C 133.231,498.958 61.7312,446.958 19,355.5C 8.70393,330.316 2.20393,304.316 -0.5,277.5C -0.5,262.833 -0.5,248.167 -0.5,233.5C 12.0418,133.231 64.0418,61.7312 155.5,19C 180.684,8.70393 206.684,2.20393 233.5,-0.5 Z"/></g>
<g><path style="opacity:1" fill="#1bdaf5" d="M 351.5,161.5 C 344.099,158.237 336.766,154.571 329.5,150.5C 328.893,150.624 328.56,150.957 328.5,151.5C 306.68,123.345 281.013,99.3449 251.5,79.5C 243.127,84.3474 235.127,89.6807 227.5,95.5C 224.554,92.6869 221.221,90.3535 217.5,88.5C 227.867,78.4708 239.534,70.1375 252.5,63.5C 292.144,89.4772 325.144,122.144 351.5,161.5 Z"/></g>
<g><path style="opacity:1" fill="#fdfefe" d="M 328.5,151.5 C 339.509,166.187 349.509,181.52 358.5,197.5C 364.421,209.333 369.754,221.333 374.5,233.5C 378.475,244.756 381.808,256.09 384.5,267.5C 385.647,277.194 386.98,286.861 388.5,296.5C 388.755,306.206 388.421,315.873 387.5,325.5C 385.271,340.523 380.271,354.523 372.5,367.5C 367.598,375.404 361.932,382.738 355.5,389.5C 351.86,392.473 348.527,395.806 345.5,399.5C 338.635,404.428 331.635,409.095 324.5,413.5C 314.067,418.639 303.4,422.972 292.5,426.5C 277.472,430.754 262.138,432.421 246.5,431.5C 203.373,429.767 167.707,412.767 139.5,380.5C 127.778,365.386 120.112,348.386 116.5,329.5C 115.019,321.913 114.352,314.247 114.5,306.5C 113.859,291.636 115.192,276.969 118.5,262.5C 120.994,253.542 123.66,244.542 126.5,235.5C 130.07,228.018 133.403,220.352 136.5,212.5C 140.195,206.103 143.528,199.436 146.5,192.5C 151.527,185.457 156.194,178.124 160.5,170.5C 165.217,164.446 169.55,158.113 173.5,151.5C 179.539,144.795 185.206,137.795 190.5,130.5C 196.527,125.14 202.194,119.473 207.5,113.5C 213.868,107.13 220.535,101.13 227.5,95.5C 235.127,89.6807 243.127,84.3474 251.5,79.5C 281.013,99.3449 306.68,123.345 328.5,151.5 Z"/></g>
<g><path style="opacity:1" fill="#1cc8ec" d="M 217.5,88.5 C 221.221,90.3535 224.554,92.6869 227.5,95.5C 220.535,101.13 213.868,107.13 207.5,113.5C 204.794,110.479 201.461,108.479 197.5,107.5C 203.535,100.464 210.202,94.1305 217.5,88.5 Z"/></g>
<g><path style="opacity:1" fill="#15cfef" d="M 268.5,124.5 C 257.593,118.79 246.76,112.79 236,106.5C 235.5,113.826 235.334,121.159 235.5,128.5C 235.806,131.385 235.473,134.052 234.5,136.5C 234.333,125.828 234.5,115.161 235,104.5C 239.907,100.629 245.074,97.1288 250.5,94C 252.289,93.4795 253.956,93.8129 255.5,95C 259.951,97.7829 264.117,100.95 268,104.5C 268.5,111.158 268.666,117.825 268.5,124.5 Z"/></g>
<g><path style="opacity:1" fill="#04c5eb" d="M 268.5,124.5 C 268.5,131.5 268.5,138.5 268.5,145.5C 258.146,140.154 247.146,134.488 235.5,128.5C 235.334,121.159 235.5,113.826 236,106.5C 246.76,112.79 257.593,118.79 268.5,124.5 Z"/></g>
<g><path style="opacity:1" fill="#19bce6" d="M 197.5,107.5 C 201.461,108.479 204.794,110.479 207.5,113.5C 202.194,119.473 196.527,125.14 190.5,130.5C 187.875,129.834 185.375,128.167 183,125.5C 182.23,126.598 181.397,126.598 180.5,125.5C 185.463,118.869 191.13,112.869 197.5,107.5 Z"/></g>
<g><path style="opacity:1" fill="#13bce6" d="M 235.5,128.5 C 247.146,134.488 258.146,140.154 268.5,145.5C 268.5,154.5 268.5,163.5 268.5,172.5C 263.767,171.127 259.1,168.627 254.5,165C 249.257,162.921 244.757,160.421 241,157.5C 240.667,157.833 240.333,158.167 240,158.5C 238.981,157.313 237.814,156.313 236.5,155.5C 235.506,160.456 235.173,165.456 235.5,170.5C 235.5,179.167 235.5,187.833 235.5,196.5C 235.821,201.695 235.487,206.695 234.5,211.5C 234.5,186.5 234.5,161.5 234.5,136.5C 235.473,134.052 235.806,131.385 235.5,128.5 Z"/></g>
<g><path style="opacity:1" fill="#18b0e0" d="M 180.5,125.5 C 181.397,126.598 182.23,126.598 183,125.5C 185.375,128.167 187.875,129.834 190.5,130.5C 185.206,137.795 179.539,144.795 173.5,151.5C 173.5,150.5 173.5,149.5 173.5,148.5C 170.366,147.759 167.366,146.759 164.5,145.5C 169.484,138.52 174.817,131.854 180.5,125.5 Z"/></g>
<g><path style="opacity:1" fill="#39bbe5" d="M 227.5,252.5 C 226.549,251.081 226.216,249.415 226.5,247.5C 226.5,238.5 226.5,229.5 226.5,220.5C 226.5,210.833 226.5,201.167 226.5,191.5C 226.5,182.5 226.5,173.5 226.5,164.5C 216.859,159.928 207.359,154.928 198,149.5C 197.5,158.494 197.334,167.494 197.5,176.5C 197.5,186.167 197.5,195.833 197.5,205.5C 197.821,211.026 197.488,216.36 196.5,221.5C 196.333,194.498 196.5,167.498 197,140.5C 206.017,129.983 215.85,120.316 226.5,111.5C 227.5,158.495 227.833,205.495 227.5,252.5 Z"/></g>
<g><path style="opacity:1" fill="#0ac8ec" d="M 307.5,167.5 C 297.149,160.981 286.816,155.314 276.5,150.5C 276.333,137.496 276.5,124.496 277,111.5C 287.965,120.131 297.965,129.797 307,140.5C 307.5,149.494 307.666,158.494 307.5,167.5 Z"/></g>
<g><path style="opacity:1" fill="#17a3db" d="M 164.5,145.5 C 167.366,146.759 170.366,147.759 173.5,148.5C 173.5,149.5 173.5,150.5 173.5,151.5C 169.55,158.113 165.217,164.446 160.5,170.5C 157.102,168.691 153.769,166.691 150.5,164.5C 154.934,157.951 159.601,151.617 164.5,145.5 Z"/></g>
<g><path style="opacity:1" fill="#05b2e1" d="M 268.5,172.5 C 268.5,177.833 268.5,183.167 268.5,188.5C 257.992,182.397 246.992,176.397 235.5,170.5C 235.173,165.456 235.506,160.456 236.5,155.5C 237.814,156.313 238.981,157.313 240,158.5C 240.333,158.167 240.667,157.833 241,157.5C 244.757,160.421 249.257,162.921 254.5,165C 259.1,168.627 263.767,171.127 268.5,172.5 Z"/></g>
<g><path style="opacity:1" fill="#05a7dc" d="M 226.5,191.5 C 216.917,186.308 207.25,181.308 197.5,176.5C 197.334,167.494 197.5,158.494 198,149.5C 207.359,154.928 216.859,159.928 226.5,164.5C 226.5,173.5 226.5,182.5 226.5,191.5 Z"/></g>
<g><path style="opacity:1" fill="#04bae5" d="M 276.5,150.5 C 286.816,155.314 297.149,160.981 307.5,167.5C 307.5,176.5 307.5,185.5 307.5,194.5C 305.418,194.376 303.918,193.376 303,191.5C 301.984,192.634 301.317,192.301 301,190.5C 300.667,190.833 300.333,191.167 300,191.5C 298.333,190.167 296.667,188.833 295,187.5C 294.667,187.833 294.333,188.167 294,188.5C 291.347,186.845 289.014,184.845 287,182.5C 286.667,182.833 286.333,183.167 286,183.5C 282.974,181.477 279.807,179.811 276.5,178.5C 276.5,169.167 276.5,159.833 276.5,150.5 Z"/></g>
<g><path style="opacity:1" fill="#0c9cd7" d="M 187.5,151.5 C 188.496,166.991 188.83,182.658 188.5,198.5C 181.162,197.247 174.662,194.247 169,189.5C 167.984,190.634 167.317,190.301 167,188.5C 165.984,189.634 165.317,189.301 165,187.5C 164.23,188.598 163.397,188.598 162.5,187.5C 169.847,174.802 178.181,162.802 187.5,151.5 Z"/></g>
<g><path style="opacity:1" fill="#1597d4" d="M 150.5,164.5 C 153.769,166.691 157.102,168.691 160.5,170.5C 156.194,178.124 151.527,185.457 146.5,192.5C 146.459,190.255 145.625,189.588 144,190.5C 142.362,188.266 140.195,186.933 137.5,186.5C 141.318,178.865 145.651,171.531 150.5,164.5 Z"/></g>
<g><path style="opacity:1" fill="#18c8ec" d="M 351.5,161.5 C 360.727,174.745 368.727,188.745 375.5,203.5C 374.153,202.829 372.986,202.829 372,203.5C 367.717,201.667 363.55,199 359.5,195.5C 358.702,195.957 358.369,196.624 358.5,197.5C 349.509,181.52 339.509,166.187 328.5,151.5C 328.56,150.957 328.893,150.624 329.5,150.5C 336.766,154.571 344.099,158.237 351.5,161.5 Z"/></g>
<g><path style="opacity:1" fill="#11c0e8" d="M 351.5,204.5 C 350.05,205.658 349.05,205.158 348.5,203C 338.949,198.545 329.283,193.378 319.5,187.5C 318.575,188.641 317.741,188.641 317,187.5C 316.802,189.382 316.302,191.048 315.5,192.5C 315.333,178.829 315.5,165.163 316,151.5C 329.827,167.817 341.66,185.484 351.5,204.5 Z"/></g>
<g><path style="opacity:1" fill="#05a7dc" d="M 235.5,170.5 C 246.992,176.397 257.992,182.397 268.5,188.5C 268.5,197.167 268.5,205.833 268.5,214.5C 257.387,208.775 246.387,202.775 235.5,196.5C 235.5,187.833 235.5,179.167 235.5,170.5 Z"/></g>
<g><path style="opacity:1" fill="#63bfe5" d="M 189.5,221.5 C 188.508,214.018 188.175,206.352 188.5,198.5C 188.83,182.658 188.496,166.991 187.5,151.5C 187.783,150.711 188.283,150.044 189,149.5C 189.5,173.498 189.667,197.498 189.5,221.5 Z"/></g>
<g><path style="opacity:1" fill="#16b6e3" d="M 351.5,204.5 C 365.001,228.501 373.168,254.168 376,281.5C 370.086,258.425 361.419,236.425 350,215.5C 346.617,214.481 344.283,215.815 343,219.5C 341.691,224.066 341.191,228.733 341.5,233.5C 340.784,231.444 340.117,229.277 339.5,227C 334.357,224.702 329.857,222.202 326,219.5C 325.667,219.833 325.333,220.167 325,220.5C 322.551,218.268 319.884,216.268 317,214.5C 316.809,216.708 316.309,218.708 315.5,220.5C 315.5,211.167 315.5,201.833 315.5,192.5C 316.302,191.048 316.802,189.382 317,187.5C 317.741,188.641 318.575,188.641 319.5,187.5C 329.283,193.378 338.949,198.545 348.5,203C 349.05,205.158 350.05,205.658 351.5,204.5 Z"/></g>
<g><path style="opacity:1" fill="#059bd6" d="M 197.5,176.5 C 207.25,181.308 216.917,186.308 226.5,191.5C 226.5,201.167 226.5,210.833 226.5,220.5C 225.127,220.657 223.793,220.49 222.5,220C 216.022,215.97 209.522,212.136 203,208.5C 201.984,209.634 201.317,209.301 201,207.5C 200.667,207.833 200.333,208.167 200,208.5C 199.148,207.429 198.315,206.429 197.5,205.5C 197.5,195.833 197.5,186.167 197.5,176.5 Z"/></g>
<g><path style="opacity:1" fill="#118acf" d="M 137.5,186.5 C 140.195,186.933 142.362,188.266 144,190.5C 145.625,189.588 146.459,190.255 146.5,192.5C 143.528,199.436 140.195,206.103 136.5,212.5C 133.575,209.954 130.241,207.954 126.5,206.5C 129.675,199.477 133.341,192.811 137.5,186.5 Z"/></g>
<g><path style="opacity:1" fill="#088fd1" d="M 162.5,187.5 C 163.397,188.598 164.23,188.598 165,187.5C 165.317,189.301 165.984,189.634 167,188.5C 167.317,190.301 167.984,190.634 169,189.5C 174.662,194.247 181.162,197.247 188.5,198.5C 188.175,206.352 188.508,214.018 189.5,221.5C 191.833,225.5 194.167,225.5 196.5,221.5C 197.488,216.36 197.821,211.026 197.5,205.5C 198.315,206.429 199.148,207.429 200,208.5C 200.333,208.167 200.667,207.833 201,207.5C 201.317,209.301 201.984,209.634 203,208.5C 209.522,212.136 216.022,215.97 222.5,220C 223.793,220.49 225.127,220.657 226.5,220.5C 226.5,229.5 226.5,238.5 226.5,247.5C 214.804,241.568 203.304,235.234 192,228.5C 186.666,226.319 181.333,223.319 176,219.5C 175.667,219.833 175.333,220.167 175,220.5C 167.28,214.992 159.447,210.326 151.5,206.5C 154.929,199.968 158.596,193.634 162.5,187.5 Z"/></g>
<g><path style="opacity:1" fill="#18bee7" d="M 375.5,203.5 C 381.546,214.943 386.546,226.943 390.5,239.5C 385.049,237.867 380.216,235.2 376,231.5C 375.283,232.044 374.783,232.711 374.5,233.5C 369.754,221.333 364.421,209.333 358.5,197.5C 358.369,196.624 358.702,195.957 359.5,195.5C 363.55,199 367.717,201.667 372,203.5C 372.986,202.829 374.153,202.829 375.5,203.5 Z"/></g>
<g><path style="opacity:1" fill="#0f87cd" d="M 151.5,206.5 C 159.447,210.326 167.28,214.992 175,220.5C 175.333,220.167 175.667,219.833 176,219.5C 181.333,223.319 186.666,226.319 192,228.5C 203.304,235.234 214.804,241.568 226.5,247.5C 226.216,249.415 226.549,251.081 227.5,252.5C 227.484,254.484 228.484,255.484 230.5,255.5C 232.417,255.246 233.751,254.246 234.5,252.5C 234.833,252.5 235.167,252.5 235.5,252.5C 251.648,261.83 268.148,270.83 285,279.5C 288.213,281.929 291.379,284.263 294.5,286.5C 292.646,290.221 290.313,293.554 287.5,296.5C 287.586,295.504 287.252,294.671 286.5,294C 253.105,275.672 220.439,257.672 188.5,240C 183.288,237.811 178.455,234.977 174,231.5C 173.586,231.957 173.086,232.291 172.5,232.5C 169.136,229.971 165.636,227.637 162,225.5C 161.722,226.416 161.222,227.082 160.5,227.5C 162.036,220.897 159.703,216.563 153.5,214.5C 146.542,222.334 141.375,231.334 138,241.5C 134.464,252.44 131.131,263.44 128,274.5C 131.734,250.467 139.567,227.801 151.5,206.5 Z"/></g>
<g><path style="opacity:1" fill="#09a9dd" d="M 276.5,178.5 C 279.807,179.811 282.974,181.477 286,183.5C 286.333,183.167 286.667,182.833 287,182.5C 289.014,184.845 291.347,186.845 294,188.5C 294.333,188.167 294.667,187.833 295,187.5C 296.667,188.833 298.333,190.167 300,191.5C 300.333,191.167 300.667,190.833 301,190.5C 301.317,192.301 301.984,192.634 303,191.5C 303.918,193.376 305.418,194.376 307.5,194.5C 307.334,203.506 307.5,212.506 308,221.5C 311.179,225.713 313.679,225.38 315.5,220.5C 316.309,218.708 316.809,216.708 317,214.5C 319.884,216.268 322.551,218.268 325,220.5C 325.333,220.167 325.667,219.833 326,219.5C 329.857,222.202 334.357,224.702 339.5,227C 340.117,229.277 340.784,231.444 341.5,233.5C 343.482,242.075 344.815,250.742 345.5,259.5C 344.751,258.469 344.085,257.302 343.5,256C 321.266,243.543 298.933,231.376 276.5,219.5C 276.5,205.833 276.5,192.167 276.5,178.5 Z"/></g>
<g><path style="opacity:1" fill="#0d9bd7" d="M 235.5,196.5 C 246.387,202.775 257.387,208.775 268.5,214.5C 268.5,224.5 268.5,234.5 268.5,244.5C 266.12,244.746 264.12,243.579 262.5,241C 254.746,237.405 247.246,233.238 240,228.5C 239.667,228.833 239.333,229.167 239,229.5C 238.581,228.328 237.915,227.328 237,226.5C 235.531,234.997 235.031,243.664 235.5,252.5C 235.167,252.5 234.833,252.5 234.5,252.5C 234.5,238.833 234.5,225.167 234.5,211.5C 235.487,206.695 235.821,201.695 235.5,196.5 Z"/></g>
<g><path style="opacity:1" fill="#0b9ed8" d="M 276.5,219.5 C 298.933,231.376 321.266,243.543 343.5,256C 344.085,257.302 344.751,258.469 345.5,259.5C 345.946,269.46 344.946,279.126 342.5,288.5C 342.707,285.255 341.207,283.255 338,282.5C 337.449,279.443 335.783,279.11 333,281.5C 332.583,280.244 331.75,279.577 330.5,279.5C 331.988,273.585 332.488,267.585 332,261.5C 330.878,259.376 329.378,257.543 327.5,256C 317.595,253.677 310.261,256.844 305.5,265.5C 296.279,258.093 286.612,252.093 276.5,247.5C 276.5,238.167 276.5,228.833 276.5,219.5 Z"/></g>
<g><path style="opacity:1" fill="#107dc8" d="M 126.5,206.5 C 130.241,207.954 133.575,209.954 136.5,212.5C 133.403,220.352 130.07,228.018 126.5,235.5C 123.442,233.304 120.109,231.638 116.5,230.5C 118.867,222.055 122.201,214.055 126.5,206.5 Z"/></g>
<g><path style="opacity:1" fill="#0a7fc9" d="M 287.5,296.5 C 284.27,302.727 280.27,308.393 275.5,313.5C 274.377,311.482 274.377,309.482 275.5,307.5C 273.518,306.784 271.851,305.617 270.5,304C 271.167,303.333 271.833,302.667 272.5,302C 269.243,301.251 266.576,299.584 264.5,297C 259.687,294.466 255.021,292.633 250.5,291.5C 250.587,288.402 250.087,288.068 249,290.5C 247.38,288.759 245.88,286.925 244.5,285C 243.451,284.508 242.451,284.674 241.5,285.5C 239.318,283.24 236.651,281.74 233.5,281C 232.382,279.926 231.382,278.76 230.5,277.5C 229.833,277.833 229.167,278.167 228.5,278.5C 223.423,276.994 219.589,273.994 217,269.5C 216.667,270.5 216.333,271.5 216,272.5C 211.147,269.409 206.481,266.076 202,262.5C 200.32,263.603 198.82,263.27 197.5,261.5C 197.599,263.15 196.599,264.483 194.5,265.5C 192.858,262.898 191.192,260.231 189.5,257.5C 182.028,254.041 175.361,255.041 169.5,260.5C 167.895,258.39 166.062,256.39 164,254.5C 163.667,254.833 163.333,255.167 163,255.5C 160.861,253.965 158.861,252.299 157,250.5C 156.148,251.571 155.315,252.571 154.5,253.5C 156.299,244.774 158.299,236.107 160.5,227.5C 161.222,227.082 161.722,226.416 162,225.5C 165.636,227.637 169.136,229.971 172.5,232.5C 173.086,232.291 173.586,231.957 174,231.5C 178.455,234.977 183.288,237.811 188.5,240C 220.439,257.672 253.105,275.672 286.5,294C 287.252,294.671 287.586,295.504 287.5,296.5 Z"/></g>
<g><path style="opacity:1" fill="#078fd1" d="M 268.5,244.5 C 268.334,249.179 268.501,253.845 269,258.5C 271.333,261.167 273.667,261.167 276,258.5C 276.499,254.848 276.665,251.182 276.5,247.5C 286.612,252.093 296.279,258.093 305.5,265.5C 303.08,273.226 299.413,280.226 294.5,286.5C 291.379,284.263 288.213,281.929 285,279.5C 268.148,270.83 251.648,261.83 235.5,252.5C 235.031,243.664 235.531,234.997 237,226.5C 237.915,227.328 238.581,228.328 239,229.5C 239.333,229.167 239.667,228.833 240,228.5C 247.246,233.238 254.746,237.405 262.5,241C 264.12,243.579 266.12,244.746 268.5,244.5 Z"/></g>
<g><path style="opacity:1" fill="#1673c3" d="M 116.5,230.5 C 120.109,231.638 123.442,233.304 126.5,235.5C 123.66,244.542 120.994,253.542 118.5,262.5C 118.5,260.833 118.5,259.167 118.5,257.5C 117.5,257.5 116.5,257.5 115.5,257.5C 115.5,256.167 115.5,254.833 115.5,253.5C 113.8,253.374 112.3,252.707 111,251.5C 110.098,251.743 109.265,252.077 108.5,252.5C 110.599,244.862 113.266,237.529 116.5,230.5 Z"/></g>
<g><path style="opacity:1" fill="#1bb0e0" d="M 390.5,239.5 C 394.571,250.781 397.571,262.447 399.5,274.5C 394.808,271.516 389.974,268.516 385,265.5C 384.536,266.094 384.369,266.761 384.5,267.5C 381.808,256.09 378.475,244.756 374.5,233.5C 374.783,232.711 375.283,232.044 376,231.5C 380.216,235.2 385.049,237.867 390.5,239.5 Z"/></g>
<g><path style="opacity:1" fill="#0d70c2" d="M 169.5,260.5 C 168.473,264.446 168.306,268.446 169,272.5C 170.535,278.273 172.369,283.939 174.5,289.5C 171.755,289.055 169.255,288.055 167,286.5C 166.667,287.167 166.333,287.833 166,288.5C 164.667,287.167 163.333,287.167 162,288.5C 161.493,287.004 161.993,285.837 163.5,285C 162.109,283.98 160.609,283.147 159,282.5C 157.961,283.244 157.461,284.244 157.5,285.5C 156.023,281.767 155.189,277.767 155,273.5C 154.5,266.842 154.334,260.175 154.5,253.5C 155.315,252.571 156.148,251.571 157,250.5C 158.861,252.299 160.861,253.965 163,255.5C 163.333,255.167 163.667,254.833 164,254.5C 166.062,256.39 167.895,258.39 169.5,260.5 Z"/></g>
<g><path style="opacity:1" fill="#0f62bc" d="M 118.5,262.5 C 115.192,276.969 113.859,291.636 114.5,306.5C 113.681,303.695 113.181,300.695 113,297.5C 109.474,295.816 106.141,293.816 103,291.5C 102.617,292.056 102.117,292.389 101.5,292.5C 102.547,278.931 104.881,265.598 108.5,252.5C 109.265,252.077 110.098,251.743 111,251.5C 112.3,252.707 113.8,253.374 115.5,253.5C 115.5,254.833 115.5,256.167 115.5,257.5C 116.5,257.5 117.5,257.5 118.5,257.5C 118.5,259.167 118.5,260.833 118.5,262.5 Z"/></g>
<g><path style="opacity:1" fill="#0878c6" d="M 275.5,313.5 C 271.252,320.418 265.919,326.418 259.5,331.5C 262.478,325.643 260.811,321.476 254.5,319C 253.809,317.933 253.309,316.766 253,315.5C 252,315.833 251,316.167 250,316.5C 247.092,314.565 243.592,312.731 239.5,311C 239.888,309.192 239.888,307.525 239.5,306C 238.584,305.626 237.75,305.126 237,304.5C 236.712,308.174 235.212,309.007 232.5,307C 235.167,306.333 235.167,305.667 232.5,305C 233.448,304.517 234.448,304.351 235.5,304.5C 234.931,300.786 233.431,300.119 231,302.5C 228.98,301.968 228.147,300.635 228.5,298.5C 226.801,298.34 225.134,298.506 223.5,299C 225.595,299.556 225.762,300.056 224,300.5C 222.351,299.102 221.018,299.436 220,301.5C 219.691,302.766 219.191,303.933 218.5,305C 219.938,305.219 221.271,305.719 222.5,306.5C 221.388,307.265 220.721,308.265 220.5,309.5C 214.425,303.246 209.258,296.246 205,288.5C 201.472,280.781 197.972,273.114 194.5,265.5C 196.599,264.483 197.599,263.15 197.5,261.5C 198.82,263.27 200.32,263.603 202,262.5C 206.481,266.076 211.147,269.409 216,272.5C 216.333,271.5 216.667,270.5 217,269.5C 219.589,273.994 223.423,276.994 228.5,278.5C 229.167,278.167 229.833,277.833 230.5,277.5C 231.382,278.76 232.382,279.926 233.5,281C 236.651,281.74 239.318,283.24 241.5,285.5C 242.451,284.674 243.451,284.508 244.5,285C 245.88,286.925 247.38,288.759 249,290.5C 250.087,288.068 250.587,288.402 250.5,291.5C 255.021,292.633 259.687,294.466 264.5,297C 266.576,299.584 269.243,301.251 272.5,302C 271.833,302.667 271.167,303.333 270.5,304C 271.851,305.617 273.518,306.784 275.5,307.5C 274.377,309.482 274.377,311.482 275.5,313.5 Z"/></g>
<g><path style="opacity:1" fill="#22a5db" d="M 399.5,274.5 C 402.703,289.484 403.703,304.484 402.5,319.5C 402.829,313.794 402.495,308.128 401.5,302.5C 397.503,300.025 393.169,298.025 388.5,296.5C 386.98,286.861 385.647,277.194 384.5,267.5C 384.369,266.761 384.536,266.094 385,265.5C 389.974,268.516 394.808,271.516 399.5,274.5 Z"/></g>
<g><path style="opacity:1" fill="#1090d1" d="M 330.5,279.5 C 331.75,279.577 332.583,280.244 333,281.5C 335.783,279.11 337.449,279.443 338,282.5C 341.207,283.255 342.707,285.255 342.5,288.5C 341.333,295.671 339,302.338 335.5,308.5C 334.357,306.5 332.857,305.833 331,306.5C 330.626,305.584 330.126,304.75 329.5,304C 326.47,302.716 323.47,301.549 320.5,300.5C 324.745,293.925 328.078,286.925 330.5,279.5 Z"/></g>
<g><path style="opacity:1" fill="#1152b4" d="M 114.5,306.5 C 114.352,314.247 115.019,321.913 116.5,329.5C 112.683,326.635 108.183,323.968 103,321.5C 102.536,322.094 102.369,322.761 102.5,323.5C 101.506,313.347 101.172,303.014 101.5,292.5C 102.117,292.389 102.617,292.056 103,291.5C 106.141,293.816 109.474,295.816 113,297.5C 113.181,300.695 113.681,303.695 114.5,306.5 Z"/></g>
<g><path style="opacity:1" fill="#0e6dc1" d="M 259.5,331.5 C 265.859,340.214 271.192,349.547 275.5,359.5C 274.883,359.611 274.383,359.944 274,360.5C 271.908,358.654 270.574,356.321 270,353.5C 269.667,354.5 269.333,355.5 269,356.5C 265.71,354.519 262.71,352.186 260,349.5C 258.395,349.562 256.895,349.562 255.5,349.5C 247.84,335.74 237.506,324.24 224.5,315C 223.335,313.008 222.002,311.175 220.5,309.5C 220.721,308.265 221.388,307.265 222.5,306.5C 221.271,305.719 219.938,305.219 218.5,305C 219.191,303.933 219.691,302.766 220,301.5C 221.018,299.436 222.351,299.102 224,300.5C 225.762,300.056 225.595,299.556 223.5,299C 225.134,298.506 226.801,298.34 228.5,298.5C 228.147,300.635 228.98,301.968 231,302.5C 233.431,300.119 234.931,300.786 235.5,304.5C 234.448,304.351 233.448,304.517 232.5,305C 235.167,305.667 235.167,306.333 232.5,307C 235.212,309.007 236.712,308.174 237,304.5C 237.75,305.126 238.584,305.626 239.5,306C 239.888,307.525 239.888,309.192 239.5,311C 243.592,312.731 247.092,314.565 250,316.5C 251,316.167 252,315.833 253,315.5C 253.309,316.766 253.809,317.933 254.5,319C 260.811,321.476 262.478,325.643 259.5,331.5 Z"/></g>
<g><path style="opacity:1" fill="#1583cb" d="M 320.5,300.5 C 323.47,301.549 326.47,302.716 329.5,304C 330.126,304.75 330.626,305.584 331,306.5C 332.857,305.833 334.357,306.5 335.5,308.5C 332.991,314.516 329.824,320.182 326,325.5C 319,331.833 312,338.167 305,344.5C 308.06,329.157 313.227,314.49 320.5,300.5 Z"/></g>
<g><path style="opacity:1" fill="#0895d4" d="M 388.5,296.5 C 393.169,298.025 397.503,300.025 401.5,302.5C 402.495,308.128 402.829,313.794 402.5,319.5C 402.577,323.215 402.244,326.881 401.5,330.5C 399.417,329.971 397.583,328.971 396,327.5C 395.667,327.833 395.333,328.167 395,328.5C 393.667,327.167 392.333,325.833 391,324.5C 389.989,325.337 388.822,325.67 387.5,325.5C 388.421,315.873 388.755,306.206 388.5,296.5 Z"/></g>
<g><path style="opacity:1" fill="#1864bc" d="M 174.5,289.5 C 184.987,305.652 192.654,323.152 197.5,342C 197.167,342.5 196.833,343 196.5,343.5C 181.422,331.934 169.922,317.601 162,300.5C 159.789,295.702 158.289,290.702 157.5,285.5C 157.461,284.244 157.961,283.244 159,282.5C 160.609,283.147 162.109,283.98 163.5,285C 161.993,285.837 161.493,287.004 162,288.5C 163.333,287.167 164.667,287.167 166,288.5C 166.333,287.833 166.667,287.167 167,286.5C 169.255,288.055 171.755,289.055 174.5,289.5 Z"/></g>
<g><path style="opacity:1" fill="#1084cb" d="M 401.5,330.5 C 399.99,345.366 395.323,359.032 387.5,371.5C 387.297,369.956 386.63,368.622 385.5,367.5C 384.726,366.289 383.893,366.289 383,367.5C 382.632,366.09 381.799,365.09 380.5,364.5C 379.5,365.833 378.5,365.833 377.5,364.5C 376.614,365.325 376.281,366.325 376.5,367.5C 375.167,367.5 373.833,367.5 372.5,367.5C 380.271,354.523 385.271,340.523 387.5,325.5C 388.822,325.67 389.989,325.337 391,324.5C 392.333,325.833 393.667,327.167 395,328.5C 395.333,328.167 395.667,327.833 396,327.5C 397.583,328.971 399.417,329.971 401.5,330.5 Z"/></g>
<g><path style="opacity:1" fill="#0f40ab" d="M 116.5,329.5 C 120.112,348.386 127.778,365.386 139.5,380.5C 136.731,379.563 134.064,378.396 131.5,377C 130.663,375.989 130.33,374.822 130.5,373.5C 129.448,373.649 128.448,373.483 127.5,373C 127.833,372.667 128.167,372.333 128.5,372C 127.24,370.887 126.073,370.72 125,371.5C 124.085,370.672 123.419,369.672 123,368.5C 122.586,368.957 122.086,369.291 121.5,369.5C 119.476,367.642 117.309,365.975 115,364.5C 114.536,365.094 114.369,365.761 114.5,366.5C 107.28,353.161 103.28,338.827 102.5,323.5C 102.369,322.761 102.536,322.094 103,321.5C 108.183,323.968 112.683,326.635 116.5,329.5 Z"/></g>
<g><path style="opacity:1" fill="#1363bc" d="M 275.5,359.5 C 277.967,364.57 279.634,369.903 280.5,375.5C 276.59,374.611 272.757,372.611 269,369.5C 268.667,369.833 268.333,370.167 268,370.5C 267.333,369.167 266.333,368.167 265,367.5C 264.601,367.728 264.435,368.062 264.5,368.5C 261.263,362.357 258.263,356.024 255.5,349.5C 256.895,349.562 258.395,349.562 260,349.5C 262.71,352.186 265.71,354.519 269,356.5C 269.333,355.5 269.667,354.5 270,353.5C 270.574,356.321 271.908,358.654 274,360.5C 274.383,359.944 274.883,359.611 275.5,359.5 Z"/></g>
<g><path style="opacity:1" fill="#185ab8" d="M 280.5,375.5 C 284.916,387.695 286.416,400.362 285,413.5C 281.255,414.488 277.422,415.155 273.5,415.5C 273.404,399.255 270.404,383.588 264.5,368.5C 264.435,368.062 264.601,367.728 265,367.5C 266.333,368.167 267.333,369.167 268,370.5C 268.333,370.167 268.667,369.833 269,369.5C 272.757,372.611 276.59,374.611 280.5,375.5 Z"/></g>
<g><path style="opacity:1" fill="#0e38a7" d="M 139.5,380.5 C 167.707,412.767 203.373,429.767 246.5,431.5C 249.977,432.323 253.644,432.823 257.5,433C 258.667,433.5 259.5,434.333 260,435.5C 261.749,434.701 263.082,435.368 264,437.5C 266.399,437.028 268.399,438.028 270,440.5C 271.558,439.655 272.558,440.321 273,442.5C 273.333,442.167 273.667,441.833 274,441.5C 275.667,442.733 277.167,444.067 278.5,445.5C 217.422,454.023 166.922,435.023 127,388.5C 122.05,381.599 117.884,374.266 114.5,366.5C 114.369,365.761 114.536,365.094 115,364.5C 117.309,365.975 119.476,367.642 121.5,369.5C 122.086,369.291 122.586,368.957 123,368.5C 123.419,369.672 124.085,370.672 125,371.5C 126.073,370.72 127.24,370.887 128.5,372C 128.167,372.333 127.833,372.667 127.5,373C 128.448,373.483 129.448,373.649 130.5,373.5C 130.33,374.822 130.663,375.989 131.5,377C 134.064,378.396 136.731,379.563 139.5,380.5 Z"/></g>
<g><path style="opacity:1" fill="#0f75c4" d="M 387.5,371.5 C 382.766,382.231 376.099,391.564 367.5,399.5C 368.707,395.749 368.373,392.082 366.5,388.5C 364.632,388.054 362.799,387.721 361,387.5C 360.544,388.744 361.044,389.577 362.5,390C 360.567,390.783 359.067,390.283 358,388.5C 357.329,389.252 356.496,389.586 355.5,389.5C 361.932,382.738 367.598,375.404 372.5,367.5C 373.833,367.5 375.167,367.5 376.5,367.5C 376.281,366.325 376.614,365.325 377.5,364.5C 378.5,365.833 379.5,365.833 380.5,364.5C 381.799,365.09 382.632,366.09 383,367.5C 383.893,366.289 384.726,366.289 385.5,367.5C 386.63,368.622 387.297,369.956 387.5,371.5 Z"/></g>
<g><path style="opacity:1" fill="#0c68be" d="M 367.5,399.5 C 365.167,402.5 362.5,405.167 359.5,407.5C 359.586,406.504 359.252,405.671 358.5,405C 355.751,403.877 353.251,402.377 351,400.5C 350.667,400.833 350.333,401.167 350,401.5C 348.89,399.963 347.39,399.297 345.5,399.5C 348.527,395.806 351.86,392.473 355.5,389.5C 356.496,389.586 357.329,389.252 358,388.5C 359.067,390.283 360.567,390.783 362.5,390C 361.044,389.577 360.544,388.744 361,387.5C 362.799,387.721 364.632,388.054 366.5,388.5C 368.373,392.082 368.707,395.749 367.5,399.5 Z"/></g>
<g><path style="opacity:1" fill="#105eba" d="M 345.5,399.5 C 347.39,399.297 348.89,399.963 350,401.5C 350.333,401.167 350.667,400.833 351,400.5C 353.251,402.377 355.751,403.877 358.5,405C 359.252,405.671 359.586,406.504 359.5,407.5C 353.093,413.569 346.093,418.903 338.5,423.5C 338.489,421.983 337.823,420.816 336.5,420C 332.377,418.039 328.377,415.873 324.5,413.5C 331.635,409.095 338.635,404.428 345.5,399.5 Z"/></g>
<g><path style="opacity:1" fill="#1052b4" d="M 324.5,413.5 C 328.377,415.873 332.377,418.039 336.5,420C 337.823,420.816 338.489,421.983 338.5,423.5C 330.112,428.361 321.446,432.694 312.5,436.5C 311.745,434.534 310.579,434.2 309,435.5C 308.626,434.584 308.126,433.75 307.5,433C 303.352,431.022 299.685,429.022 296.5,427C 295.207,426.51 293.873,426.343 292.5,426.5C 303.4,422.972 314.067,418.639 324.5,413.5 Z"/></g>
<g><path style="opacity:1" fill="#1045ae" d="M 292.5,426.5 C 293.873,426.343 295.207,426.51 296.5,427C 299.685,429.022 303.352,431.022 307.5,433C 308.126,433.75 308.626,434.584 309,435.5C 310.579,434.2 311.745,434.534 312.5,436.5C 301.407,440.44 290.074,443.44 278.5,445.5C 277.167,444.067 275.667,442.733 274,441.5C 273.667,441.833 273.333,442.167 273,442.5C 272.558,440.321 271.558,439.655 270,440.5C 268.399,438.028 266.399,437.028 264,437.5C 263.082,435.368 261.749,434.701 260,435.5C 259.5,434.333 258.667,433.5 257.5,433C 253.644,432.823 249.977,432.323 246.5,431.5C 262.138,432.421 277.472,430.754 292.5,426.5 Z"/></g>
</svg>
