<svg
    width="40"
    height="40"
    viewBox="0 0 40 40"
    fill="none"
    xmlns="http://www.w3.org/2000/svg"
>
    <circle cx="20" cy="20" r="20" fill="#111D3C" />
    <path
        d="M11.7625 15.82L7.51676 13.6582C7.18466 14.3107 6.90182 14.9948 6.67676 15.6917L11.2103 17.1576C11.3585 16.6993 11.5438 16.2492 11.7625 15.82Z"
        fill="white"
    />
    <path
        d="M15.3695 12.0094L17.7211 16.0615C18.0646 15.8623 18.4322 15.7091 18.8145 15.6063L17.5975 11.0819C17.9072 10.9986 18.222 10.9298 18.5385 10.8798L17.7906 6.17383C17.0672 6.28866 16.3484 6.46199 15.6537 6.68848L17.108 11.1457C16.6454 11.2967 16.195 11.4842 15.7611 11.706L13.6235 7.53349C12.9735 7.86666 12.3448 8.25372 11.7539 8.68509L14.5628 12.5337C14.8215 12.3451 15.0923 12.1707 15.3695 12.0094Z"
        fill="white"
    />
    <path
        d="M27.989 15.3655L23.9385 17.7194C24.138 18.0625 24.2911 18.4304 24.3943 18.8122L28.9182 17.5928C29.0016 17.9026 29.0703 18.217 29.1206 18.5332L33.8257 17.7839C33.7106 17.0609 33.5369 16.3417 33.3097 15.6466L28.8534 17.1037C28.7021 16.6412 28.5145 16.191 28.2923 15.7572L32.4633 13.6167C32.1301 12.9674 31.7424 12.3386 31.3111 11.748L27.4637 14.5589C27.6526 14.8176 27.8277 15.088 27.989 15.3655Z"
        fill="white"
    />
    <path
        d="M26.3367 7.51281C25.6834 7.18105 24.9994 6.89855 24.3033 6.67383L22.8398 11.2083C23.2977 11.3561 23.7479 11.5418 24.1778 11.7601L26.3367 7.51281Z"
        fill="white"
    />
    <path
        d="M24.6457 11.9264L22.2671 16.0547C22.6116 16.2531 22.9291 16.4963 23.2116 16.7777L29.8828 10.0836C29.3653 9.56789 28.8032 9.08904 28.2119 8.66016L25.4605 12.4549C25.1982 12.2649 24.9263 12.0884 24.6457 11.9264Z"
        fill="white"
    />
    <path
        d="M11.9285 15.3509L16.0555 17.7321C16.254 17.388 16.4979 17.07 16.7797 16.7871L10.0887 10.1133C9.57261 10.6308 9.09342 11.1926 8.66455 11.7834L12.4577 14.5368C12.2677 14.7987 12.0905 15.0702 11.9285 15.3509Z"
        fill="white"
    />
    <path
        d="M21.4445 10.7989L22.1644 6.16659C21.453 6.056 20.7251 6 20.0002 6H19.9893V15.451H20.0002C20.3986 15.451 20.7927 15.502 21.172 15.6027L22.394 10.9974C22.0814 10.9144 21.7646 10.8488 21.4445 10.7989Z"
        fill="white"
    />
    <path
        d="M15.6027 18.8249L10.9982 17.5996C10.9149 17.9122 10.849 18.2291 10.799 18.5492L6.16765 17.8272C6.05635 18.541 6 19.2719 6 19.9989H15.4506C15.4506 19.5998 15.5017 19.2046 15.6027 18.8249Z"
        fill="white"
    />
    <path
        d="M28.2372 24.1834L32.4829 26.3452C32.815 25.6926 33.0978 25.0086 33.3229 24.3118L28.7894 22.8457C28.6412 23.304 28.4559 23.7542 28.2372 24.1834Z"
        fill="white"
    />
    <path
        d="M24.6306 27.9915L22.279 23.9395C21.9355 24.1386 21.568 24.2917 21.1855 24.3945L22.4027 28.919C22.0925 29.0024 21.7781 29.0711 21.4617 29.1211L22.2091 33.8267C22.9326 33.7119 23.6514 33.5385 24.3461 33.3121L22.8918 28.8549C23.3547 28.7039 23.8048 28.5164 24.2387 28.2945L26.3762 32.4671C27.0262 32.1339 27.655 31.7468 28.2458 31.3155L25.437 27.4669C25.1782 27.6555 24.9078 27.8302 24.6306 27.9915Z"
        fill="white"
    />
    <path
        d="M12.0116 24.6361L16.0624 22.2822C15.8629 21.9391 15.7097 21.5712 15.6066 21.1895L11.0826 22.4087C10.9993 22.0989 10.9306 21.7845 10.8803 21.4684L6.1748 22.2177C6.29 22.9408 6.46367 23.66 6.69086 24.355L11.1471 22.8978C11.2985 23.3604 11.486 23.8106 11.7082 24.2445L7.53725 26.3849C7.87041 27.0343 8.25816 27.6631 8.68951 28.2535L12.5369 25.4428C12.348 25.1841 12.1729 24.9136 12.0116 24.6361Z"
        fill="white"
    />
    <path
        d="M13.6631 32.4876C14.3163 32.8194 15.0003 33.1018 15.6965 33.3266L17.16 28.7921C16.702 28.6443 16.2519 28.4586 15.8219 28.2402L13.6631 32.4876Z"
        fill="white"
    />
    <path
        d="M15.3543 28.0778L17.7329 23.9496C17.3884 23.7511 17.0708 23.5079 16.7883 23.2266L10.1172 29.9206C10.6347 30.4363 11.1968 30.9152 11.788 31.3441L14.5394 27.5494C14.8018 27.7393 15.0735 27.9158 15.3543 28.0778Z"
        fill="white"
    />
    <path
        d="M28.0723 24.6507L23.9453 22.2695C23.7468 22.6137 23.5029 22.9316 23.2212 23.2144L29.9118 29.8887C30.4279 29.3712 30.907 28.8094 31.3359 28.2185L27.5427 25.4652C27.7328 25.2033 27.9103 24.9314 28.0723 24.6507Z"
        fill="white"
    />
    <path
        d="M18.828 24.3965L17.606 29.0019C17.9186 29.0847 18.2354 29.1504 18.5555 29.2004L17.836 33.8326C18.5474 33.9432 19.2753 33.9992 20.0002 33.9992H20.0111V24.5482H20.0002C19.6018 24.5482 19.2073 24.4971 18.828 24.3965Z"
        fill="white"
    />
    <path
        d="M24.5494 20.002C24.5494 20.4011 24.498 20.7959 24.397 21.1758L29.0014 22.4012C29.0847 22.0885 29.1507 21.7717 29.2006 21.4516L33.8324 22.174C33.9436 21.4601 34 20.7293 34 20.0023L24.5494 20.002Z"
        fill="white"
    />
</svg>
