<svg width="16" height="17" viewBox="0 0 16 17" fill="none" xmlns="http://www.w3.org/2000/svg">
    <g id="Logo_tiny-merlinchain1" clip-path="url(#clip0_497_190562)">
        <path id="Vector1"
            d="M7.98524 0.13501C3.57196 0.13501 0 3.71688 0 8.14241C0 10.1554 0.752768 11.9907 1.97786 13.3968C1.97786 13.3968 1.99262 13.3968 2.00738 13.3968C2.22878 13.1896 2.45018 12.9824 2.67159 12.7752C2.95203 12.5235 3.23247 12.2719 3.49815 12.0055C3.7048 11.8279 3.89668 11.6355 4.08856 11.4579C4.39852 11.2062 4.66421 10.9102 4.95941 10.6438C4.95941 10.6438 4.95941 10.6438 4.97417 10.6438C5.35793 10.2886 5.7417 9.91854 6.14022 9.56332C6.22878 9.47451 6.30258 9.3709 6.3321 9.25249C6.36162 9.16369 6.37638 9.07488 6.4059 8.98607C6.4059 8.94167 6.4059 8.92687 6.36162 8.92687C6.16974 8.89727 5.97786 8.86767 5.78598 8.83806C5.69742 8.83806 5.60886 8.80846 5.5203 8.80846C5.40221 8.79366 5.26937 8.76406 5.15129 8.74926C5.03321 8.73446 4.92989 8.70485 4.81181 8.70485C4.78229 8.70485 4.76753 8.70485 4.73801 8.70485C4.63469 8.70485 4.54613 8.66045 4.45756 8.67525C4.35424 8.63085 4.23616 8.63085 4.13284 8.61605C4.02952 8.61605 3.97048 8.54204 3.9262 8.46803C3.88192 8.26082 3.95572 8.15721 4.16236 8.12761C4.25092 8.12761 4.33948 8.09801 4.42804 8.08321C4.56089 8.0684 4.69373 8.0388 4.84133 8.024C4.91513 8.024 4.97417 8.0092 5.04797 7.9944C5.43173 7.93519 5.80074 7.89079 6.19926 7.83159C6.00738 7.56517 5.8155 7.32835 5.63838 7.07673C5.5941 7.00273 5.53506 6.92872 5.47601 6.85471C5.40221 6.75111 5.32841 6.6475 5.23985 6.54389C5.15129 6.42548 5.06273 6.29227 4.97417 6.17386C4.91513 6.09986 4.87085 6.02585 4.81181 5.96665C4.75277 5.87784 4.69373 5.78903 4.61993 5.71503C4.54613 5.62622 4.48708 5.53742 4.41328 5.43381C4.35424 5.3598 4.30996 5.271 4.23616 5.19699C4.17712 5.12298 4.1476 5.04898 4.0738 4.97497C4.01476 4.88617 3.95572 4.79736 3.88192 4.72335C3.8524 4.67895 3.82288 4.61975 3.7786 4.57534C3.74908 4.51614 3.71956 4.45693 3.73432 4.38293C3.76384 4.23492 3.89668 4.16091 4.0738 4.20532C4.17712 4.27932 4.26568 4.35333 4.369 4.42733C4.51661 4.54574 4.66421 4.64935 4.81181 4.75296C4.92989 4.85656 5.06273 4.96017 5.19557 5.03418C5.25461 5.09338 5.32841 5.13778 5.40221 5.18219C5.49078 5.25619 5.56458 5.3154 5.65314 5.3746C5.72694 5.44861 5.8155 5.50781 5.90406 5.56702C6.0369 5.67063 6.16974 5.75943 6.30258 5.86304C6.37638 5.92224 6.45018 5.98145 6.52399 6.02585C6.55351 6.05545 6.56827 6.07025 6.59779 6.08506C6.68635 6.15906 6.77491 6.23307 6.87823 6.29227C7.02583 6.41068 7.17343 6.51429 7.33579 6.6475C7.33579 6.6179 7.33579 6.6179 7.33579 6.60309C7.36531 6.35148 7.40959 6.11466 7.43911 5.86304C7.46863 5.62622 7.51292 5.3894 7.54244 5.15259C7.57196 4.97497 7.60148 4.78256 7.631 4.60495C7.66052 4.45693 7.7048 4.39773 7.8524 4.36813C7.94096 4.36813 8.01476 4.39773 8.0738 4.47174C8.10332 4.53094 8.11808 4.59014 8.11808 4.66415C8.13284 4.76776 8.1476 4.87137 8.16236 4.97497C8.16236 4.98977 8.16236 5.01938 8.16236 5.03418C8.19188 5.24139 8.2214 5.44861 8.25092 5.64102C8.26568 5.77423 8.2952 5.90744 8.30996 6.02585C8.30996 6.08506 8.32472 6.14426 8.33948 6.21827C8.33948 6.27747 8.33948 6.33667 8.369 6.39588C8.369 6.46988 8.38376 6.55869 8.41328 6.6475C8.53136 6.55869 8.63469 6.48469 8.73801 6.39588C8.84133 6.32187 8.94465 6.23307 9.04797 6.15906C9.22509 6.05545 9.40221 5.90744 9.56458 5.78903C9.78598 5.62622 10.0074 5.46341 10.214 5.3006C10.3173 5.24139 10.4059 5.15259 10.5092 5.07858C10.5387 5.06378 10.5683 5.04898 10.583 5.01938C10.583 5.01938 10.6125 5.01938 10.6125 5.00457L10.9373 4.75296C11.0996 4.63455 11.262 4.51614 11.4244 4.39773C11.4539 4.36813 11.4982 4.35333 11.5277 4.32372C11.6015 4.27932 11.6605 4.20532 11.7491 4.20532C11.7934 4.20532 11.8376 4.22012 11.8819 4.23492C11.9557 4.30892 12.0148 4.38293 12 4.50134C11.9705 4.59014 11.8967 4.66415 11.8376 4.73815C11.69 4.93057 11.5424 5.13778 11.3948 5.3302C11.203 5.59662 11.0111 5.84824 10.8192 6.11466C10.8192 6.11466 10.8044 6.11466 10.7897 6.12946C10.5387 6.46989 10.2878 6.81031 10.0369 7.15074C9.87454 7.37275 9.71218 7.59477 9.54982 7.81679C9.6679 7.84639 9.78598 7.86119 9.8893 7.86119C9.97786 7.89079 10.0664 7.89079 10.155 7.90559C10.1993 7.90559 10.2435 7.93519 10.3026 7.92039C10.3026 7.92039 10.3173 7.92039 10.3321 7.92039C10.4059 7.93519 10.4649 7.95 10.5387 7.95C10.6716 7.9796 10.8044 7.9944 10.952 8.0092C11.0258 8.0388 11.0996 8.0388 11.1882 8.0388C11.1882 8.0388 11.2472 8.0388 11.2768 8.0536C11.3506 8.0684 11.4244 8.08321 11.4982 8.08321C11.5424 8.08321 11.5867 8.11281 11.6458 8.11281C11.7048 8.11281 11.7491 8.15721 11.7786 8.20161C11.7934 8.23122 11.8081 8.26082 11.8229 8.29042C11.8376 8.40883 11.7934 8.49764 11.7048 8.57164C11.7048 8.57164 11.6458 8.57164 11.6162 8.60124C11.4982 8.60124 11.3801 8.61605 11.2472 8.64565C11.2472 8.64565 11.1734 8.64565 11.1292 8.66045C10.9963 8.66045 10.8635 8.69005 10.7306 8.71965C10.5535 8.73446 10.3764 8.76406 10.1993 8.79366C9.99262 8.82326 9.77122 8.85286 9.54982 8.88247C9.68266 9.06008 9.80074 9.20809 9.91882 9.3709C10.0221 9.51891 10.1107 9.65212 10.2288 9.78533C10.3173 9.90374 10.4059 10.037 10.4945 10.1406C10.5387 10.2146 10.5978 10.2886 10.6568 10.3626C10.6716 10.3922 10.7011 10.4218 10.7306 10.4514C10.7454 10.481 10.7749 10.5106 10.7897 10.5254C10.8192 10.5846 10.8635 10.6438 10.9077 10.6882C10.9373 10.7474 10.9815 10.7918 11.0258 10.8362C11.0701 10.9102 11.1144 10.9694 11.1587 11.0286C11.2177 11.1026 11.2768 11.1914 11.3358 11.2654C11.3801 11.3394 11.4244 11.3987 11.4834 11.4579C11.4834 11.5023 11.5277 11.5171 11.5572 11.5467C11.5867 11.5763 11.6162 11.6207 11.631 11.6503C11.631 11.6503 11.631 11.6503 11.631 11.6651C11.631 11.6799 11.6605 11.7095 11.6753 11.7243C11.7196 11.7835 11.7638 11.8427 11.8081 11.9019C11.8376 11.9463 11.8819 11.9907 11.9114 12.0499C11.9557 12.1239 12 12.1831 12.0148 12.2719C11.9705 12.4347 11.9114 12.4939 11.7491 12.5087C11.69 12.5087 11.6605 12.4791 11.6162 12.4495C11.5572 12.4051 11.4982 12.3459 11.4391 12.3311C11.4096 12.3015 11.3653 12.2719 11.3358 12.2423C11.2915 12.2423 11.2915 12.1831 11.2472 12.1831C11.2177 12.1239 11.1587 12.1091 11.1144 12.0795C11.0849 12.0647 11.0554 12.0499 11.0406 12.0203L10.893 11.9167C10.893 11.9167 10.8192 11.8427 10.7749 11.8279C10.7454 11.7835 10.7011 11.7539 10.6568 11.7243C10.6273 11.6947 10.5978 11.6799 10.5683 11.6503C10.5535 11.6503 10.5387 11.6355 10.524 11.6207C10.4945 11.5763 10.4502 11.5467 10.4059 11.5319L10.1697 11.3543C10.0812 11.295 10.0074 11.2358 9.91882 11.1618C9.85978 11.1322 9.83026 11.073 9.75646 11.0582C9.69742 11.0138 9.63838 10.9546 9.57934 10.925C9.50553 10.8362 9.41697 10.7918 9.32841 10.7178C9.28413 10.6882 9.23985 10.6586 9.21033 10.629C9.13653 10.5698 9.06273 10.4958 8.97417 10.4366C8.88561 10.3774 8.79705 10.3034 8.70849 10.2442C8.61993 10.185 8.53136 10.111 8.4428 10.037C8.4428 10.1258 8.41328 10.2146 8.39852 10.2886C8.369 10.5402 8.30996 10.777 8.2952 11.0286C8.25092 11.3098 8.20664 11.5911 8.17712 11.8575C8.16236 11.9167 8.1476 11.9759 8.1476 12.0499C8.1476 12.1831 8.0738 12.2719 7.94096 12.3163C7.9262 12.3163 7.89668 12.3163 7.88192 12.3163C7.80812 12.3015 7.73432 12.2719 7.69004 12.2127C7.69004 12.1683 7.66052 12.1387 7.66052 12.0943C7.631 11.9315 7.61624 11.7687 7.58672 11.6059C7.58672 11.5467 7.57196 11.4875 7.5572 11.4283C7.5572 11.3246 7.52768 11.221 7.51292 11.1174C7.51292 11.0286 7.49816 10.9546 7.4834 10.8658C7.4834 10.7918 7.46863 10.7326 7.45387 10.6586C7.45387 10.555 7.43911 10.4662 7.40959 10.3774C7.40959 10.2886 7.38007 10.2146 7.38007 10.1258C7.38007 10.037 7.35055 9.94815 7.33579 9.84454C7.33579 9.80013 7.32103 9.78533 7.27675 9.80013C7.26199 9.80013 7.23247 9.80013 7.21771 9.81494C7.14391 9.82974 7.05535 9.85934 6.98155 9.87414C6.93727 9.87414 6.89299 9.90374 6.84871 9.94815C6.68635 10.1258 6.52398 10.3034 6.36162 10.481C6.06642 10.7918 5.78598 11.1026 5.49077 11.4283C5.28413 11.6503 5.07749 11.8723 4.88561 12.0795C4.85609 12.0943 4.84133 12.1239 4.82657 12.1535C4.79705 12.1831 4.75277 12.2127 4.73801 12.2571C4.53137 12.4791 4.32472 12.716 4.10332 12.938C3.97048 13.086 3.83764 13.2192 3.7048 13.3672C3.43911 13.6484 3.17343 13.9444 2.90775 14.2257C2.89299 14.2405 2.87823 14.2553 2.89299 14.2701C4.28044 15.4394 6.06642 16.135 8.01476 16.135C12.428 16.135 16 12.5531 16 8.12761C16 3.70208 12.3985 0.13501 7.98524 0.13501Z"
            fill="url(#paint0_linear_497_190563)" />
    </g>
    <defs>
        <linearGradient id="paint0_linear_497_190563" x1="13.7565" y1="2.39958" x2="2.197" y2="13.868"
            gradientUnits="userSpaceOnUse">
            <stop stop-color="#AC66FF" />
            <stop offset="0.05" stop-color="#A260FB" />
            <stop offset="0.22" stop-color="#824FF1" />
            <stop offset="0.39" stop-color="#6941E9" />
            <stop offset="0.57" stop-color="#5737E3" />
            <stop offset="0.76" stop-color="#4D31E0" />
            <stop offset="0.99" stop-color="#4A30DF" />
        </linearGradient>
        <clipPath id="clip0_497_190562">
            <rect width="16" height="16" fill="white" transform="translate(0 0.13501)" />
        </clipPath>
    </defs>
</svg>