<svg width="48" height="48" viewBox="0 0 48 48" fill="none" xmlns="http://www.w3.org/2000/svg">
<path d="M15.9024 46.8001C21.3714 46.8001 25.8048 42.5439 25.8048 37.2935C25.8048 32.0431 21.3714 27.7869 15.9024 27.7869C10.4335 27.7869 6 32.0431 6 37.2935C6 42.5439 10.4335 46.8001 15.9024 46.8001Z" fill="#4F4F4F"/>
<mask id="mask0_2947_32108" style="mask-type:alpha" maskUnits="userSpaceOnUse" x="14" y="4" width="4" height="27">
<path fill-rule="evenodd" clip-rule="evenodd" d="M14.8125 30.058V4.58008H17.0199V30.058H14.8125Z" fill="white"/>
</mask>
<g mask="url(#mask0_2947_32108)">
<path d="M41.9999 20.8807C41.9999 30.4244 33.9411 38.1612 23.9999 38.1612C14.0588 38.1612 6 30.4244 6 20.8807C6 11.3369 14.0588 3.6001 23.9999 3.6001C33.9411 3.6001 41.9999 11.3369 41.9999 20.8807Z" fill="white"/>
</g>
<path d="M24 38.1612C33.9411 38.1612 42 30.4244 42 20.8807C42 11.3369 33.9411 3.6001 24 3.6001C14.0589 3.6001 6 11.3369 6 20.8807C6 30.4244 14.0589 38.1612 24 38.1612Z" fill="#DEDEDE"/>
<mask id="mask1_2947_32108" style="mask-type:alpha" maskUnits="userSpaceOnUse" x="6" y="3" width="36" height="36">
<path d="M24 38.1612C33.9411 38.1612 42 30.4244 42 20.8807C42 11.3369 33.9411 3.6001 24 3.6001C14.0589 3.6001 6 11.3369 6 20.8807C6 30.4244 14.0589 38.1612 24 38.1612Z" fill="#DEDEDE"/>
</mask>
<g mask="url(#mask1_2947_32108)">
<path d="M15.9024 46.7999C21.3714 46.7999 25.8048 42.5436 25.8048 37.2933C25.8048 32.0429 21.3714 27.7866 15.9024 27.7866C10.4335 27.7866 6 32.0429 6 37.2933C6 42.5436 10.4335 46.7999 15.9024 46.7999Z" fill="#333333"/>
<mask id="mask2_2947_32108" style="mask-type:alpha" maskUnits="userSpaceOnUse" x="14" y="4" width="4" height="27">
<path fill-rule="evenodd" clip-rule="evenodd" d="M14.8125 30.058V4.58008H17.0199V30.058H14.8125Z" fill="#152E51"/>
</mask>
<g mask="url(#mask2_2947_32108)">
<path d="M41.9999 20.8807C41.9999 30.4244 33.9411 38.1612 23.9999 38.1612C14.0588 38.1612 6 30.4244 6 20.8807C6 11.3369 14.0588 3.6001 23.9999 3.6001C33.9411 3.6001 41.9999 11.3369 41.9999 20.8807Z" fill="#333333"/>
</g>
</g>
</svg>
