<svg width="48" height="48" viewBox="0 0 48 48" fill="none" xmlns="http://www.w3.org/2000/svg">
<g id="Logo_tiny/Poolside_light">
<path id="Vector" fill-rule="evenodd" clip-rule="evenodd" d="M9 40H16.438V31.1641L16.4385 24.7164L16.438 14.4478H25.562C27.6777 14.4478 29.2148 14.8298 30.1735 15.594C31.1323 16.3263 31.6117 17.6477 31.6117 19.5582C31.6117 21.5004 31.1323 22.8537 30.1735 23.6178C29.2479 24.3501 27.7106 24.7164 25.562 24.7164H21.6556V31.1641H26.3554C30.2231 31.1641 33.2976 30.1452 35.5785 28.1073C37.8595 26.0377 39 23.188 39 19.5582C39 15.9283 37.8595 13.0945 35.5785 11.0567C33.3307 9.0189 30.2562 8 26.3554 8H9V40Z" fill="black"/>
</g>
</svg>
