<svg width="40" height="26" viewBox="0 0 40 26" fill="none" xmlns="http://www.w3.org/2000/svg">
<g id="Frame 1619">
<path id="Vector" fill-rule="evenodd" clip-rule="evenodd" d="M6.99343 3.2395L7.3407 2.21973L8.13341 3.2395H6.99343ZM10.661 6.49101L9.71317 5.27169H6.30136L5.88612 6.49101H10.661ZM12.605 9.74252L12.5219 8.88493L12.2407 8.5232H5.19407L4.77883 9.74252H12.605ZM12.9203 12.994L12.802 11.7747H4.08677L3.67153 12.994H12.9203ZM13.2356 16.2455L13.1173 15.0262H2.97947L2.56424 16.2455H13.2356ZM13.5509 19.497L13.4327 18.2777H1.87217L1.45694 19.497H13.5509ZM13.8661 22.7486L13.7479 21.5292H0.764876L0.5 22.307L0.951535 22.7486H13.8661ZM3.02991 24.7808L4.27664 25.9999H14.1814L14.0632 24.7808H3.02991Z" fill="#DDB557"/>
<path id="Vector_2" fill-rule="evenodd" clip-rule="evenodd" d="M33.0083 3.2395L32.661 2.21973L31.8683 3.2395H33.0083ZM29.3408 6.49101L30.2886 5.27169H33.7004L34.1156 6.49101H29.3408ZM27.3967 9.74252L27.4799 8.88493L27.7611 8.5232H34.8076L35.2229 9.74252H27.3967ZM27.0815 12.994L27.1996 11.7747H35.9149L36.3302 12.994H27.0815ZM26.7661 16.2455L26.8844 15.0262H37.0222L37.4375 16.2455H26.7661ZM26.4508 19.497L26.5691 18.2777H38.1296L38.5448 19.497H26.4508ZM26.1356 22.7486L26.2538 21.5292H39.2369L39.5017 22.307L39.0502 22.7486H26.1356ZM36.9718 24.7808L35.7251 25.9999H25.8203L25.9385 24.7808H36.9718Z" fill="#DDB557"/>
<path id="Vector_3" d="M9.4375 1.4234C9.7965 1.30051 10.1984 1.17466 10.6439 1.05103L15.5729 9.09768H14.1383L9.4375 1.4234Z" fill="#DDB557"/>
<path id="Vector_4" d="M16.4608 9.09752L13.2852 0.467744C13.6777 0.400878 14.0898 0.338787 14.5216 0.282959L17.7653 9.09752H16.4608Z" fill="#DDB557"/>
<path id="Vector_5" d="M18.3305 9.09754L17.0859 0.0485869C17.4833 0.0265752 17.8932 0.0101373 18.3156 0L19.5669 9.09754H18.3305Z" fill="#DDB557"/>
<path id="Vector_6" d="M20.1523 9.09787L21.3982 0.0400391C21.8169 0.060889 22.2255 0.0876425 22.6236 0.119529L21.3887 9.09787H20.1523Z" fill="#DDB557"/>
<path id="Vector_7" d="M23.2381 9.0974H21.9336L25.1339 0.400635C25.5606 0.462723 25.9711 0.529877 26.3647 0.600701L23.2381 9.0974Z" fill="#DDB557"/>
<path id="Vector_8" d="M25.5009 9.09762H24.0664L28.9271 1.16235C29.3726 1.27831 29.7807 1.39484 30.1501 1.50776L25.5009 9.09762Z" fill="#DDB557"/>
</g>
</svg>
