<svg width="48" height="48" viewBox="0 0 48 48" fill="none" xmlns="http://www.w3.org/2000/svg">
<path d="M38.527 29.7709V9.9755C38.4857 8.32245 37.167 7 35.5185 7H14.9951C10.5442 7.08265 7 10.7194 7 15.1826C7 16.6704 7.41212 17.9928 8.03029 19.1087C8.56604 20.0592 9.39028 20.927 10.1733 21.5882C10.4206 21.7949 10.2969 21.7122 10.9975 22.1255C11.9454 22.7041 13.0581 22.9933 13.0581 22.9933V34.8127C13.0993 35.3913 13.1405 35.9285 13.3054 36.4244C13.7587 38.0775 14.9126 39.3586 16.4787 39.9785C17.1381 40.2265 17.8799 40.3918 18.6629 40.4331L35.024 40.5158C38.2797 40.5158 40.9584 37.8709 40.9584 34.5647C40.9584 32.6224 40.0106 30.8454 38.527 29.7709Z" fill="#FFEEDA"/>
<path d="M38.9376 34.6887C38.8552 36.7963 37.1243 38.4907 35.0225 38.4907L23.7305 38.4494C24.6371 37.4162 25.1729 36.0524 25.1729 34.5647C25.1729 32.2504 23.8129 30.6387 23.8129 30.6387H35.0637C37.2067 30.6387 38.9788 32.4157 38.9788 34.5647L38.9376 34.6887Z" fill="#EBC28E"/>
<path d="M11.2448 19.9352C9.92603 18.6954 9.01937 17.0837 9.01937 15.1826V14.976C9.14301 11.7525 11.7806 9.10765 14.9951 9.025H35.5597C36.0955 9.06632 36.5076 9.43826 36.5076 9.9755V27.4566C36.9609 27.5392 37.2082 27.6219 37.6615 27.7459C38.0324 27.8699 38.527 28.1591 38.527 28.1591V9.9755C38.4857 8.32245 37.167 7 35.5185 7H14.9951C10.5442 7.08265 7 10.7194 7 15.1826C7 17.7862 8.19514 20.0178 10.0909 21.5469C10.2145 21.6709 10.3381 21.7949 10.7091 21.7949C11.3272 21.7949 11.7393 21.299 11.6981 20.803C11.6981 20.3484 11.5333 20.1831 11.2448 19.9352Z" fill="#101010"/>
<path d="M35.0243 28.6139H18.9105C17.839 28.6139 16.9735 29.4818 16.9735 30.5976V32.9119C17.0147 33.9864 17.9214 34.8955 18.9929 34.8955H20.188V32.9119H18.9929V30.6389C18.9929 30.6389 19.2814 30.6389 19.6523 30.6389C21.6717 30.6389 23.1965 32.5399 23.1965 34.5649C23.1965 36.3833 21.548 38.6562 18.8281 38.4909C16.3966 38.3256 15.0778 36.1767 15.0778 34.5649V14.8522C15.0778 13.9844 14.336 13.2405 13.4705 13.2405H11.8633V15.2655H13.0584V34.6063C12.976 38.5323 15.8608 40.5159 18.8281 40.5159L35.0655 40.5573C38.3212 40.5573 41 37.9124 41 34.6063C40.9587 31.3001 38.3212 28.6139 35.0243 28.6139ZM38.9394 34.6889C38.8569 36.7966 37.1261 38.4909 35.0243 38.4909L23.7323 38.4496C24.6389 37.4165 25.1747 36.0527 25.1747 34.5649C25.1747 32.2506 23.8147 30.6389 23.8147 30.6389H35.0655C37.2085 30.6389 38.9806 32.416 38.9806 34.5649L38.9394 34.6889Z" fill="#101010"/>
<path d="M30.6965 15.596H18.5391V13.6123H30.6965C31.2323 13.6123 31.6856 14.0669 31.6856 14.6041C31.6856 15.1414 31.2735 15.596 30.6965 15.596Z" fill="#101010"/>
<path d="M30.6965 25.1012H18.5391V23.0762H30.6965C31.2323 23.0762 31.6856 23.5308 31.6856 24.068C31.6856 24.6466 31.2735 25.1012 30.6965 25.1012Z" fill="#101010"/>
<path d="M32.8395 20.3485H18.5391V18.3235H32.8395C33.3753 18.3235 33.8286 18.7781 33.8286 19.3153C33.8286 19.8939 33.3753 20.3485 32.8395 20.3485Z" fill="#101010"/>
</svg>
