<svg width="280" height="280" viewBox="0 0 280 280" fill="none" xmlns="http://www.w3.org/2000/svg">
<path d="M280 140C280 62.6801 217.32 0 140 0C62.6801 0 0 62.6801 0 140C0 217.32 62.6801 280 140 280C217.32 280 280 217.32 280 140Z" fill="black"/>
<path d="M154.815 125.181V55.999H115.292C88.0028 55.999 65.8828 78.119 65.8828 105.408C65.8828 132.697 88.0028 154.817 115.292 154.817H125.178V125.17H154.826L154.815 125.181Z" fill="white"/>
<path d="M164.702 125.181H154.816V154.828H125.168V224.01H164.691C191.98 224.01 214.1 201.89 214.1 174.601C214.1 147.311 191.98 125.191 164.691 125.191L164.702 125.181Z" fill="white"/>
</svg>
