<svg width="48" height="48" viewBox="0 0 48 48" fill="none" xmlns="http://www.w3.org/2000/svg">
<path fill-rule="evenodd" clip-rule="evenodd" d="M24 13.5C25.9891 13.5 27.8968 12.7098 29.3033 11.3033C30.7098 9.89678 31.5 7.98912 31.5 6H16.5C16.5 7.98912 17.2902 9.89678 18.6967 11.3033C20.1032 12.7098 22.0109 13.5 24 13.5ZM6 31.5V16.5C7.98912 16.5 9.89678 17.2902 11.3033 18.6967C12.7098 20.1032 13.5 22.0109 13.5 24C13.5 25.9891 12.7098 27.8968 11.3033 29.3033C9.89678 30.7098 7.98912 31.5 6 31.5ZM24 31.5C28.1421 31.5 31.5 28.1421 31.5 24C31.5 19.8579 28.1421 16.5 24 16.5C19.8579 16.5 16.5 19.8579 16.5 24C16.5 28.1421 19.8579 31.5 24 31.5ZM34.5 24C34.5 25.9891 35.2902 27.8968 36.6967 29.3033C38.1032 30.7098 40.0109 31.5 42 31.5V16.5C40.0109 16.5 38.1032 17.2902 36.6967 18.6967C35.2902 20.1032 34.5 22.0109 34.5 24ZM42 6V13.5C40.0109 13.5 38.1032 12.7098 36.6967 11.3033C35.2902 9.89678 34.5 7.98912 34.5 6H42ZM6 13.5C7.98912 13.5 9.89678 12.7098 11.3033 11.3033C12.7098 9.89678 13.5 7.98912 13.5 6H6V13.5ZM18.6967 36.6967C20.1032 35.2902 22.0109 34.5 24 34.5C25.9891 34.5 27.8968 35.2902 29.3033 36.6967C30.7098 38.1032 31.5 40.0109 31.5 42H16.5C16.5 40.0109 17.2902 38.1032 18.6967 36.6967ZM34.5 42H42V34.5C40.0109 34.5 38.1032 35.2902 36.6967 36.6967C35.2902 38.1032 34.5 40.0109 34.5 42ZM6 42V34.5C7.98912 34.5 9.89678 35.2902 11.3033 36.6967C12.7098 38.1032 13.5 40.0109 13.5 42H6Z" fill="black"/>
</svg>
