<svg width="48" height="48" viewBox="0 0 48 48" fill="none" xmlns="http://www.w3.org/2000/svg">
<path d="M38 11.1415V12.8035C38 13.9461 37.6838 15.0294 37.0989 15.9792L32.166 24.0223L27.0119 15.6378C25.7786 13.6345 22.2213 13.6345 20.9882 15.6378L15.834 23.9925L10.9328 16.0089C10.332 15.0294 10 13.9165 10 12.8035V11.1415C10 9.68717 11.2648 8.5 12.8142 8.5H35.1858C36.7352 8.5 38 9.68717 38 11.1415Z" fill="#7B78FF"/>
<path d="M32.172 24.0219L27.0179 32.3766C26.4013 33.3857 25.2471 34.009 23.9981 34.009C22.7491 34.009 21.6108 33.3708 20.9783 32.3766L15.8242 23.9922L20.9783 15.6376C22.2116 13.6342 25.7689 13.6342 27.002 15.6376L32.172 24.0219Z" fill="#12429F"/>
<path d="M38 35.1964V36.8584C38 38.3127 36.7352 39.4999 35.1858 39.4999H12.8142C11.2648 39.5146 10 38.3275 10 36.8732V35.1815C10 34.0686 10.3162 32.9852 10.9012 32.0356L15.834 23.9924L20.9882 32.3768C21.6047 33.3859 22.7589 34.0092 24.008 34.0092C25.2569 34.0092 26.3953 33.3711 27.0276 32.3768L32.1818 24.0222L37.083 32.0058C37.6838 32.9852 38 34.0982 38 35.1964Z" fill="#A0D2EB"/>
</svg>
