<svg
    width="20"
    height="20"
    viewBox="0 0 20 20"
    fill="none"
    xmlns="http://www.w3.org/2000/svg"
>
    <rect width="20" height="20" rx="10" fill="white" />
    <path
        d="M9.99998 16.6667C13.6944 16.6667 16.6666 13.6945 16.6666 10C16.6666 6.30557 13.6944 3.33337 9.99998 3.33337C6.30551 3.33337 3.33331 6.30557 3.33331 10C3.33331 13.6945 6.30551 16.6667 9.99998 16.6667Z"
        fill="#2775CA"
    />
    <path
        d="M11.8335 11.0554C11.8335 10.0832 11.2502 9.74985 10.0835 9.61098C9.25019 9.49985 9.08353 9.27765 9.08353 8.88871C9.08353 8.49978 9.36133 8.24985 9.91686 8.24985C10.4169 8.24985 10.6947 8.41651 10.8335 8.83318C10.8613 8.91651 10.9447 8.97205 11.028 8.97205H11.4724C11.5835 8.97205 11.6669 8.88871 11.6669 8.77765V8.74985C11.5557 8.13871 11.0557 7.66651 10.4169 7.61098V6.94431C10.4169 6.83318 10.3335 6.74985 10.1947 6.72205H9.77799C9.66686 6.72205 9.58353 6.80538 9.55573 6.94431V7.58318C8.72239 7.69431 8.19466 8.24985 8.19466 8.94431C8.19466 9.86098 8.75019 10.222 9.91686 10.361C10.6947 10.4998 10.9447 10.6665 10.9447 11.111C10.9447 11.5554 10.5557 11.861 10.028 11.861C9.30573 11.861 9.05573 11.5554 8.97239 11.1387C8.94466 11.0276 8.86133 10.972 8.77799 10.972H8.30573C8.19466 10.972 8.11133 11.0554 8.11133 11.1665V11.1943C8.22239 11.8887 8.66686 12.3887 9.58353 12.5276V13.1943C9.58353 13.3054 9.66686 13.3887 9.80573 13.4165H10.2224C10.3335 13.4165 10.4169 13.3332 10.4447 13.1943V12.5276C11.278 12.3887 11.8335 11.8054 11.8335 11.0554Z"
        fill="white"
    />
    <path
        d="M8.58322 13.9725C6.41656 13.1947 5.30542 10.7781 6.11102 8.63914C6.52769 7.47248 7.44436 6.58361 8.58322 6.16694C8.69436 6.11141 8.74989 6.02808 8.74989 5.88914V5.50028C8.74989 5.38914 8.69436 5.30581 8.58322 5.27808C8.55542 5.27808 8.49989 5.27808 8.47209 5.30581C5.83322 6.13914 4.38876 8.94474 5.22209 11.5836C5.72209 13.1391 6.91656 14.3336 8.47209 14.8336C8.58322 14.8891 8.69436 14.8336 8.72209 14.7225C8.74989 14.6947 8.74989 14.6669 8.74989 14.6114V14.2225C8.74989 14.1391 8.66656 14.0281 8.58322 13.9725ZM11.5277 5.30581C11.4166 5.25028 11.3054 5.30581 11.2777 5.41694C11.2499 5.44474 11.2499 5.47248 11.2499 5.52808V5.91694C11.2499 6.02808 11.3332 6.13914 11.4166 6.19474C13.5832 6.97248 14.6944 9.38914 13.8888 11.5281C13.4721 12.6947 12.5554 13.5836 11.4166 14.0003C11.3054 14.0558 11.2499 14.1391 11.2499 14.2781V14.6669C11.2499 14.7781 11.3054 14.8614 11.4166 14.8891C11.4444 14.8891 11.4999 14.8891 11.5277 14.8614C14.1666 14.0281 15.611 11.2225 14.7777 8.58361C14.2777 7.00028 13.0554 5.80581 11.5277 5.30581Z"
        fill="white"
    />
</svg>
