<svg
    width="20"
    height="20"
    viewBox="0 0 20 20"
    fill="none"
    xmlns="http://www.w3.org/2000/svg"
>
    <rect width="20" height="20" rx="10" fill="white" />
    <path
        fill-rule="evenodd"
        clip-rule="evenodd"
        d="M5.7745 4.22393L3.34331 9.36059C3.33406 9.37969 3.33113 9.40128 3.33494 9.42218C3.33876 9.44308 3.34912 9.4622 3.36452 9.47676L9.93058 15.8055C9.94923 15.8235 9.97408 15.8336 9.99992 15.8336C10.0258 15.8336 10.0506 15.8235 10.0693 15.8055L16.6353 9.47715C16.6507 9.4626 16.6611 9.44347 16.6649 9.42257C16.6687 9.40167 16.6658 9.38009 16.6565 9.36098L14.2253 4.22432C14.2175 4.20707 14.2049 4.19246 14.189 4.18223C14.1731 4.172 14.1546 4.16658 14.1358 4.16663H5.86485C5.8459 4.1664 5.82729 4.17168 5.81125 4.18185C5.79522 4.19201 5.78246 4.20663 5.7745 4.22393Z"
        fill="#50AF95"
    />
    <path
        fill-rule="evenodd"
        clip-rule="evenodd"
        d="M10.8436 9.88832C10.7964 9.89188 10.5529 9.9065 10.0096 9.9065C9.5775 9.9065 9.27071 9.89346 9.16307 9.88832C7.49318 9.81443 6.24674 9.52204 6.24674 9.17196C6.24674 8.82187 7.49318 8.52987 9.16307 8.4548V9.59711C9.27228 9.60502 9.58497 9.62359 10.0171 9.62359C10.5356 9.62359 10.7953 9.60185 10.842 9.59751V8.45559C12.5084 8.53027 13.7521 8.82266 13.7521 9.17196C13.7521 9.52125 12.5088 9.81364 10.842 9.88793L10.8436 9.88832ZM10.8436 8.33745V7.31525H13.1691V5.75647H6.83755V7.31525H9.16268V8.33705C7.2728 8.42437 5.85156 8.80093 5.85156 9.25217C5.85156 9.7034 7.2728 10.0796 9.16268 10.1673V13.4429H10.8432V10.1661C12.7287 10.0788 14.1476 9.70261 14.1476 9.25177C14.1476 8.80093 12.7299 8.42477 10.8432 8.33705L10.8436 8.33745Z"
        fill="white"
    />
</svg>
