<svg width="64" height="64" viewBox="0 0 64 64" fill="none" xmlns="http://www.w3.org/2000/svg">
<rect width="64" height="64" rx="32" fill="white"/>
<path d="M39.9175 37.302V35.2958C41.1224 34.8722 41.9998 33.557 41.9998 32.0003C41.9998 30.4436 41.1224 29.1247 39.9175 28.7049V26.6987C41.0522 26.3011 41.8984 25.1085 41.992 23.667H40.6116V24.28C40.6116 24.7519 40.331 25.168 39.9175 25.376V25.0899C39.9175 24.6701 39.5589 24.3283 39.1183 24.3283H39.0481C38.6075 24.3283 38.2487 24.6701 38.2487 25.0899V25.376C37.8354 25.168 37.5546 24.7556 37.5546 24.28V23.667H36.1743C36.2679 25.1085 37.114 26.3011 38.2487 26.6987V28.7049C37.0477 29.1247 36.1665 30.4399 36.1665 32.0003C36.1665 33.5607 37.0438 34.8759 38.2487 35.2958V37.302C37.114 37.6996 36.2679 38.8922 36.1743 40.3337H37.5546V39.7206C37.5546 39.2488 37.8354 38.8327 38.2487 38.6247V38.9108C38.2487 39.3306 38.6075 39.6724 39.0481 39.6724H39.1183C39.5589 39.6724 39.9175 39.3306 39.9175 38.9108V38.6247C40.331 38.8327 40.6116 39.2451 40.6116 39.7206V40.3337H41.992C41.8984 38.8922 41.0522 37.6996 39.9175 37.302ZM37.5546 32.8771V31.1198C37.5546 30.648 37.8354 30.2319 38.2487 30.0238V30.3099C38.2487 30.7297 38.6075 31.0715 39.0481 31.0715H39.1183C39.5589 31.0715 39.9175 30.7297 39.9175 30.3099V30.0238C40.331 30.2319 40.6116 30.6443 40.6116 31.1198V32.8771C40.6116 33.349 40.331 33.7651 39.9175 33.9731V33.6871C39.9175 33.2672 39.5589 32.9254 39.1183 32.9254H39.0481C38.6075 32.9254 38.2487 33.2672 38.2487 33.6871V33.9731C37.8393 33.7651 37.5546 33.3527 37.5546 32.8771Z" fill="#171717"/>
<path d="M49.0831 33.0687V30.932C50.2888 30.5083 51.1668 29.1928 51.1668 27.6358C51.1668 26.0787 50.2888 24.7595 49.0831 24.3396V23.667H47.417V24.3396C46.2114 24.7632 45.3335 26.0787 45.3335 27.6358C45.3335 29.1928 46.2114 30.512 47.417 30.932V33.0687C46.2114 33.4923 45.3335 34.8078 45.3335 36.3649C45.3335 37.9219 46.2114 39.2411 47.417 39.6611V40.3337H49.0831V39.6611C50.2888 39.2374 51.1668 37.9219 51.1668 36.3649C51.1668 34.8078 50.2888 33.4923 49.0831 33.0687ZM46.7186 28.5128V26.7551C46.7186 26.2831 46.9996 25.8669 47.4131 25.6588V25.945C47.4131 26.3649 47.7722 26.7068 48.2131 26.7068H48.2794C48.7203 26.7068 49.0792 26.3649 49.0792 25.945V25.6588C49.4929 25.8669 49.7738 26.2794 49.7738 26.7551V28.5128C49.7738 28.9847 49.4929 29.4009 49.0792 29.609V29.3229C49.0792 28.903 48.7203 28.5611 48.2794 28.5611H48.2092C47.7683 28.5611 47.4092 28.903 47.4092 29.3229V29.609C47.0035 29.4009 46.7186 28.9884 46.7186 28.5128ZM49.7777 37.2456C49.7777 37.7175 49.4968 38.1338 49.0831 38.3418V37.9219C49.0831 37.502 48.7242 37.1601 48.2833 37.1601H48.217C47.7761 37.1601 47.417 37.502 47.417 37.9219V38.3418C47.0035 38.1338 46.7225 37.7213 46.7225 37.2456V35.4879C46.7225 35.0159 47.0035 34.5997 47.417 34.3916V34.544C47.417 34.9639 47.7761 35.3058 48.217 35.3058H48.2872C48.7281 35.3058 49.087 34.9639 49.087 34.544V34.3916C49.5007 34.5997 49.7816 35.0122 49.7816 35.4879V37.2456H49.7777Z" fill="#171717"/>
<path d="M30.7192 30.2978C30.7028 30.2123 30.6823 30.1306 30.6495 30.0526C30.6618 30.034 33.3825 26.5973 30.8626 24.4722C28.3468 22.3471 25.4088 25.1187 25.3924 25.1335C24.9253 24.9998 24.4541 24.918 23.9869 24.8809C23.9869 24.8809 23.9869 24.8809 23.9828 24.8809C23.024 24.736 21.68 24.8809 21.68 24.8809C21.217 24.918 20.7499 24.9998 20.2869 25.1298C20.2705 25.1149 17.3326 22.3433 14.8167 24.4685C12.3008 26.5936 15.0175 30.034 15.0298 30.0489C15.0011 30.1306 14.9765 30.2123 14.9601 30.2941C14.6897 31.7653 12.8335 32.2186 12.8335 34.7822C12.8335 37.394 14.7716 39.4522 18.7298 39.4522H20.3524C20.3606 39.4597 20.9876 40.2697 22.2824 40.3179C22.2824 40.3179 22.5815 40.3476 23.2699 40.3254C24.6425 40.3254 25.3104 39.4671 25.3145 39.4559H26.9371C30.8953 39.4559 32.8334 37.3977 32.8334 34.7859C32.8457 32.226 30.9896 31.769 30.7192 30.2978Z" fill="#171717"/>
</svg>
