<svg
    width="20"
    height="21"
    viewBox="0 0 20 21"
    fill="none"
    xmlns="http://www.w3.org/2000/svg"
>
    <rect y="0.959961" width="20" height="20" rx="10" fill="white" />
    <g clipPath="{`url(#wbtc_clippath_id)`}">
        <path
            d="M15.0463 6.31781L14.6069 6.75713C15.6552 7.9035 16.2366 9.40068 16.2366 10.9541C16.2366 12.5075 15.6552 14.0047 14.6069 15.151L15.0463 15.5904C16.2121 14.3258 16.8593 12.6689 16.8593 10.949C16.8593 9.22903 16.2121 7.57209 15.0463 6.30756V6.31781Z"
            fill="#5A5564"
        />
        <path
            d="M5.80748 6.35589C6.95386 5.3076 8.45103 4.72627 10.0044 4.72627C11.5579 4.72627 13.055 5.3076 14.2014 6.35589L14.6407 5.91657C13.3762 4.75076 11.7192 4.10352 9.99932 4.10352C8.27939 4.10352 6.62244 4.75076 5.35791 5.91657L5.80748 6.35589Z"
            fill="#5A5564"
        />
        <path
            d="M5.39592 15.1554C4.34888 14.0093 3.76831 12.5131 3.76831 10.9607C3.76831 9.4083 4.34888 7.91204 5.39592 6.76592L4.95661 6.3266C3.7908 7.59113 3.14355 9.24808 3.14355 10.968C3.14355 12.6879 3.7908 14.3449 4.95661 15.6094L5.39592 15.1554Z"
            fill="#5A5564"
        />
        <path
            d="M14.1955 15.5611C13.0492 16.6094 11.552 17.1907 9.99859 17.1907C8.44517 17.1907 6.948 16.6094 5.80162 15.5611L5.3623 16.0004C6.62684 17.1662 8.28378 17.8135 10.0037 17.8135C11.7236 17.8135 13.3806 17.1662 14.6451 16.0004L14.1955 15.5611Z"
            fill="#5A5564"
        />
        <path
            d="M12.7737 9.49409C12.6858 8.57737 11.895 8.26985 10.8949 8.17613V6.91382H10.1217V8.1527C9.91811 8.1527 9.71016 8.1527 9.50368 8.1527V6.91382H8.73634V8.18491H7.16797V9.0123C7.16797 9.0123 7.73908 9.00205 7.7303 9.0123C7.83327 9.00097 7.93663 9.03006 8.01858 9.09343C8.10053 9.15681 8.15468 9.24952 8.16962 9.35204V12.8314C8.16742 12.8676 8.15799 12.9029 8.14189 12.9354C8.12579 12.9678 8.10335 12.9967 8.07589 13.0204C8.04895 13.0444 8.01742 13.0628 7.9832 13.0744C7.94897 13.086 7.91276 13.0905 7.87674 13.0877C7.88699 13.0965 7.31441 13.0877 7.31441 13.0877L7.16797 14.0117H8.72169V15.3033H9.4949V14.0308H10.1129V15.2975H10.8875V14.0205C12.1938 13.9415 13.1046 13.6193 13.2189 12.3965C13.3111 11.4124 12.8484 10.9731 12.1088 10.7959C12.5584 10.5748 12.8366 10.1648 12.7737 9.49409ZM11.69 12.2442C11.69 13.2049 10.044 13.095 9.51979 13.095V11.3905C10.044 11.3919 11.69 11.2411 11.69 12.2442ZM11.3312 9.84261C11.3312 10.7212 9.95764 10.6143 9.52125 10.6143V9.06502C9.95764 9.06502 11.3312 8.92736 11.3312 9.84261Z"
            fill="#F09242"
        />
        <path
            d="M9.99854 18.96C8.41641 18.9597 6.8699 18.4903 5.55453 17.6111C4.23916 16.7319 3.21401 15.4825 2.60869 14.0208C2.00337 12.559 1.84506 10.9506 2.15379 9.39888C2.46252 7.84717 3.22442 6.42184 4.34315 5.30311C5.46188 4.18438 6.88721 3.42248 8.43892 3.11375C9.99063 2.80503 11.599 2.96333 13.0608 3.56865C14.5225 4.17397 15.772 5.19912 16.6512 6.51449C17.5303 7.82986 17.9997 9.37637 18 10.9585C18.0002 12.0093 17.7934 13.0499 17.3913 14.0208C16.9893 14.9916 16.3999 15.8738 15.6569 16.6168C14.9138 17.3599 14.0317 17.9492 13.0608 18.3513C12.0899 18.7533 11.0494 18.9602 9.99854 18.96ZM9.99854 3.5838C8.54091 3.58496 7.11635 4.01821 5.9049 4.82881C4.69345 5.6394 3.74951 6.79095 3.19237 8.1379C2.63523 9.48484 2.48991 10.9667 2.77477 12.3962C3.05964 13.8258 3.7619 15.1387 4.7928 16.1692C5.8237 17.1997 7.13696 17.9015 8.56659 18.1858C9.99622 18.4701 11.478 18.3242 12.8248 17.7665C14.1715 17.2088 15.3227 16.2644 16.1328 15.0526C16.9429 13.8409 17.3756 12.4161 17.3762 10.9585C17.3766 9.98969 17.186 9.0303 16.8153 8.13519C16.4446 7.24009 15.9012 6.42682 15.216 5.7419C14.5308 5.05698 13.7173 4.51384 12.8221 4.14354C11.9268 3.77323 10.9674 3.58303 9.99854 3.5838Z"
            fill="#282138"
        />
    </g>
    <defs>
        <clipPath id="wbtc_clippath_id">
            <rect
                width="16"
                height="16"
                fill="white"
                transform="translate(2 2.95996)"
            />
        </clipPath>
    </defs>
</svg>
