<svg width="48" height="48" viewBox="0 0 48 48" fill="none" xmlns="http://www.w3.org/2000/svg">
<mask id="mask0_3342_2203" style="mask-type:alpha" maskUnits="userSpaceOnUse" x="37" y="9" width="6" height="11">
<path d="M37.2358 9.37732H42.7227V19.1774H37.2358V9.37732Z" fill="black"/>
</mask>
<g mask="url(#mask0_3342_2203)">
<path d="M42.0746 9.37732H33.6699C33.3129 9.37732 33.0234 9.66983 33.0234 10.0307V18.524C33.0234 18.8849 33.3129 19.1774 33.6699 19.1774H42.0746C42.4317 19.1774 42.7212 18.8849 42.7212 18.524V10.0307C42.7212 9.66983 42.4317 9.37732 42.0746 9.37732Z" fill="black" fill-opacity="0.5"/>
</g>
<mask id="mask1_3342_2203" style="mask-type:alpha" maskUnits="userSpaceOnUse" x="37" y="28" width="6" height="11">
<path d="M37.2358 28.9758H42.7227V38.7759H37.2358V28.9758Z" fill="black"/>
</mask>
<g mask="url(#mask1_3342_2203)">
<path d="M42.0746 28.9758H33.6699C33.3129 28.9758 33.0234 29.2683 33.0234 29.6292V38.1225C33.0234 38.4834 33.3129 38.7759 33.6699 38.7759H42.0746C42.4317 38.7759 42.7212 38.4834 42.7212 38.1225V29.6292C42.7212 29.2683 42.4317 28.9758 42.0746 28.9758Z" fill="black" fill-opacity="0.5"/>
</g>
<path d="M24.1021 19.2012H15.7372C15.3818 19.2012 15.0938 19.4902 15.0938 19.8467V28.2395C15.0938 28.596 15.3818 28.8851 15.7372 28.8851H24.1021C24.4574 28.8851 24.7455 28.596 24.7455 28.2395V19.8467C24.7455 19.4902 24.4574 19.2012 24.1021 19.2012Z" fill="black"/>
<path d="M14.4223 9.37622H6.01761C5.66055 9.37622 5.37109 9.66873 5.37109 10.0296V18.5229C5.37109 18.8837 5.66055 19.1762 6.01761 19.1762H14.4223C14.7794 19.1762 15.0688 18.8837 15.0688 18.5229V10.0296C15.0688 9.66873 14.7794 9.37622 14.4223 9.37622Z" fill="black"/>
<path d="M33.813 9.37622H25.4083C25.0512 9.37622 24.7617 9.66873 24.7617 10.0296V18.5229C24.7617 18.8837 25.0512 19.1762 25.4083 19.1762H33.813C34.17 19.1762 34.4594 18.8837 34.4594 18.5229V10.0296C34.4594 9.66873 34.17 9.37622 33.813 9.37622Z" fill="black"/>
<path d="M14.4223 28.9758H6.01761C5.66055 28.9758 5.37109 29.2683 5.37109 29.6292V38.1225C5.37109 38.4834 5.66055 38.7759 6.01761 38.7759H14.4223C14.7794 38.7759 15.0688 38.4834 15.0688 38.1225V29.6292C15.0688 29.2683 14.7794 28.9758 14.4223 28.9758Z" fill="black"/>
<path d="M33.813 28.9758H25.4083C25.0512 28.9758 24.7617 29.2683 24.7617 29.6292V38.1225C24.7617 38.4834 25.0512 38.7759 25.4083 38.7759H33.813C34.17 38.7759 34.4594 38.4834 34.4594 38.1225V29.6292C34.4594 29.2683 34.17 28.9758 33.813 28.9758Z" fill="black"/>
</svg>
