<svg width="48" height="48" viewBox="0 0 48 48" fill="none" xmlns="http://www.w3.org/2000/svg">
<g id="Logo_tiny/ZeroLend_light">
<path id="Vector (Stroke)" fill-rule="evenodd" clip-rule="evenodd" d="M32.7288 11.7637C34.4027 12.9142 34.8095 15.1788 33.6374 16.8219L20.4243 35.3444C19.2523 36.9874 16.9451 37.3868 15.2712 36.2363C13.5973 35.0858 13.1905 32.8212 14.3626 31.1781L27.5757 12.6556C28.7477 11.0126 31.0549 10.6132 32.7288 11.7637ZM37.4815 19.4639C40.1401 15.737 39.2173 10.6002 35.4204 7.99054C31.6235 5.38091 26.3902 6.28666 23.7316 10.0136L10.5185 28.5361C7.8599 32.263 8.78266 37.3998 12.5796 40.0095C16.3765 42.6191 21.6098 41.7133 24.2684 37.9864L37.4815 19.4639Z" fill="black"/>
</g>
</svg>
