<svg width="48" height="48" viewBox="0 0 48 48" fill="none" xmlns="http://www.w3.org/2000/svg">
<g clip-path="url(#clip0_3319_1727)">
<circle cx="24" cy="24" r="24" fill="#111D3C"/>
<path fill-rule="evenodd" clip-rule="evenodd" d="M16.5746 20.697L25.1492 25.6722V35.6116L16.5746 40.5868L8 35.6116V25.6722L16.5746 20.697ZM16.5746 23.6628L10.5652 27.1496V34.1342L16.5746 37.621L22.5839 34.1342V27.1496L16.5746 23.6628Z" fill="#03D498"/>
<path fill-rule="evenodd" clip-rule="evenodd" d="M31.1566 20.697L39.7312 25.6722V35.6116L31.1566 40.5868L22.582 35.6116V25.6722L31.1566 20.697ZM25.1473 27.1496V34.1342L31.1566 37.621L37.1659 34.1342V27.1496L31.1566 23.6628L25.1473 27.1496Z" fill="#03D498"/>
<path fill-rule="evenodd" clip-rule="evenodd" d="M25.1473 26.2933V34.7554H22.582V26.2933H25.1473Z" fill="#03D498"/>
<path fill-rule="evenodd" clip-rule="evenodd" d="M23.8715 8L32.4461 12.9752V22.9146L23.8715 27.8898L15.2969 22.9146V12.9752L23.8715 8ZM17.8621 14.4526V21.4372L23.8715 24.924L29.8808 21.4372V14.4526L23.8715 10.9658L17.8621 14.4526Z" fill="#03D498"/>
<path d="M31.1659 22.1799L23.874 26.4109L16.582 22.1799" stroke="#03D498" stroke-width="2.56522"/>
<path fill-rule="evenodd" clip-rule="evenodd" d="M23.8715 16.4738L32.4461 21.4489V31.3883L23.8715 36.3636L15.2969 31.3883V21.4489L23.8715 16.4738ZM17.8621 22.9263V29.911L23.8715 33.3978L29.8808 29.911V22.9263L23.8715 19.4395L17.8621 22.9263Z" fill="white"/>
</g>
<defs>
<clipPath id="clip0_3319_1727">
<rect width="48" height="48" fill="white"/>
</clipPath>
</defs>
</svg>
