<svg
    width="40"
    height="45"
    viewBox="0 0 40 45"
    fill="none"
    xmlns="http://www.w3.org/2000/svg"
>
    <g id="Symbol - Original">
        <path
            id="Vector"
            d="M25.0637 20.1756L28.3622 14.6883L37.2503 28.2625V30.8823L37.2226 12.9542C37.212 12.7384 37.1489 12.5282 37.0388 12.3411C36.9286 12.154 36.7745 11.9954 36.5892 11.8784L20.5851 2.84141C20.3938 2.75166 20.1845 2.70508 19.9725 2.70508C19.7604 2.70508 19.5511 2.75166 19.3598 2.84141L19.2179 2.92286L19.1626 2.95679L3.62566 11.78L3.56682 11.8038C3.48619 11.842 3.40867 11.8863 3.33493 11.9361C3.18699 12.0372 3.06095 12.166 2.96411 12.3151C2.86727 12.4642 2.80156 12.6307 2.77077 12.8049C2.76045 12.8564 2.75351 12.9085 2.75 12.961L2.77423 27.5702L11.0774 14.9869C12.1158 13.3207 14.3932 12.7811 16.501 12.8116L18.9757 12.8761L4.38364 35.8029L6.11419 36.7735L20.8585 12.8965L27.3827 12.8727L12.6626 37.3538L18.7957 40.8118L19.5294 41.2258C19.8474 41.3427 20.1979 41.3427 20.5159 41.2258L36.7484 32.0055L33.6334 33.7668L25.0637 20.1756ZM26.3063 37.9476L20.1109 28.4118L23.9077 22.1201L32.0413 34.6932L26.3063 37.9476Z"
            fill="#2D374B"
        />
        <path
            id="Vector_2"
            d="M20.1211 28.4118L26.3165 37.9476L32.0411 34.6932L23.9041 22.1235L20.1211 28.4118Z"
            fill="#28A0F0"
        />
        <path
            id="Vector_3"
            d="M37.2525 30.882V28.2656L28.3644 14.6914L25.0625 20.1754L33.6426 33.7835L36.7576 32.0222C36.908 31.9033 37.0309 31.7544 37.118 31.5853C37.2052 31.4162 37.2546 31.2308 37.2629 31.0415L37.2525 30.882Z"
            fill="#28A0F0"
        />
        <path
            id="Vector_4"
            d="M0 33.3286L4.38176 35.8025L18.9634 12.8758L16.4887 12.8113C14.3809 12.7807 12.1139 13.3203 11.0755 14.9865L2.78619 27.5698L0 31.7676V33.3286Z"
            fill="white"
        />
        <path
            id="Vector_5"
            d="M27.3804 12.876L20.8563 12.8997L6.10156 36.7733L11.2586 39.685L12.6604 37.3536L27.3804 12.876Z"
            fill="white"
        />
        <path
            id="Vector_6"
            d="M40 12.842C39.9704 12.1821 39.7776 11.5392 39.4381 10.9687C39.0986 10.3982 38.6227 9.91721 38.0514 9.56723L21.8361 0.425019C21.2574 0.145418 20.6209 0 19.9758 0C19.3306 0 18.6941 0.145418 18.1154 0.425019C17.9978 0.49289 2.34663 9.38058 2.34663 9.38058C2.13184 9.48423 1.92582 9.60452 1.73055 9.7403C1.22251 10.0946 0.802898 10.5571 0.503184 11.0931C0.20347 11.6291 0.0314406 12.2247 0 12.8352L0 31.7678L2.78619 27.57L2.76888 12.9608C2.76551 12.9088 2.76551 12.8567 2.76888 12.8047C2.83366 12.4566 3.03653 12.1478 3.33305 11.9461C3.40919 11.8952 19.3095 2.87176 19.358 2.84462C19.5492 2.75487 19.7586 2.70828 19.9706 2.70828C20.1826 2.70828 20.3919 2.75487 20.5832 2.84462L36.5873 11.8782C36.7733 11.9948 36.9281 12.1533 37.0388 12.3404C37.1496 12.5275 37.2132 12.7379 37.2242 12.954V31.0416C37.2204 31.229 37.1758 31.4134 37.0934 31.5825C37.011 31.7516 36.8928 31.9016 36.7466 32.0223L33.6316 33.7836L32.0291 34.693L26.3044 37.9474L20.5001 41.2426C20.1822 41.3597 19.8317 41.3597 19.5137 41.2426L12.6607 37.3536L11.2763 39.6849L17.4301 43.1667L17.9631 43.4653C18.195 43.5909 18.3508 43.6757 18.4096 43.7029C18.9246 43.9287 19.4826 44.0443 20.0467 44.0422C20.5634 44.0427 21.0754 43.9471 21.5558 43.7606L38.4114 34.1908C38.8885 33.8271 39.2781 33.365 39.5527 32.8372C39.8272 32.3094 39.9799 31.7288 40 31.1366V12.842Z"
            fill="#96BEDC"
        />
    </g>
</svg>
